<svg enable-background="new 0 0 256 256" height="512" viewBox="0 0 256 256" width="512" xmlns="http://www.w3.org/2000/svg"><path d="m40.802 56.539c25.401 0 46.588-3.496 53.188-4.711.097.228.162.472.159.73-.021 1.745-.527 5.17-3.774 8.024-.632.555-.755 1.482-.353 2.198-4.236 3.712-14.15 9.771-32.312 7.592-25.617-3.074-38.701-7.276-49.578.461 5.233-6.597 15.103-14.294 32.67-14.294z" fill="#f9bd55"/><path d="m181.548 154.437c-37.046-10.728-67.244-34.788-63.382-53.325 2.562-12.296 10.119-17.035 17.035-18.7 1.273-.306 2.558-.505 3.844-.616-.441-.305-.862-.611-1.308-.916-1.575-1.076-2.471-2.924-2.213-4.815 10.976-80.565-47.826-48.674-47.826-48.674-.471.754-.271 1.736.403 2.317 1.614 1.393 4.064 4.629 1.887 10.436-2.416 6.441 1.496 9.719 3.283 10.828.552.343.887.936.879 1.586-.021 1.745-.527 5.17-3.774 8.024-.702.617-.782 1.695-.205 2.431 2.442 3.114 7.213 11.524.841 24.267-8.197 16.395 4.099 56.357 51.234 72.752 1.051.366 2.074.697 3.095 1.025-.009.17-.021.34-.021.512 0 5.354 4.38 9.734 9.734 9.734 3.981 0 7.421-2.424 8.924-5.868 10.51 1.443 18.733.649 24.999-1.015z" fill="#52565b"/><path d="m147.059 167.082-2.483 1.976c-.591.115-1.194.196-1.818.196-5.354 0-9.734-4.38-9.734-9.734 0-1.037.168-2.037.472-2.976 2.774 1.253 5.685 2.423 8.75 3.489 1.054.367 2.08.699 3.103 1.028-.009.17-.029.337-.029.509-.001 2.045.648 3.942 1.739 5.512z" fill="#52565b"/><g fill="#f9bd55"><path d="m120.757 190.85c.624-2.394 2.071-4.491 4.007-6.031l22.288-17.731c1.754 2.53 4.67 4.2 7.962 4.213l-6.059 5.223c-1.174 1.012-1.425 2.732-.589 4.038.193.301.447.563.727.784 2.41 1.899 3.188 3.861 3.27 5.513.069 1.398-1.666 2.09-2.632 1.078-1.659-1.737-5.221-3.229-12.862-1.296-8.056 2.039-12.1 7.318-14.077 11.399-.638 1.318-2.606.921-2.675-.542-.129-2.705.192-4.929.64-6.648z"/><path d="m99.825 180.328c1.052-2.239 2.859-4.036 5.043-5.196l28.189-14.957c.201 2.961 1.736 5.565 4.01 7.216l-6.898 4.017c-1.339.78-1.901 2.425-1.318 3.861.134.331.336.635.571.904 1.048 1.197 1.655 2.328 1.972 3.37l-3.127 2.488c-1.599-1.753-4.93-3.331-11.833-2.891-8.293.529-13.236 4.978-15.926 8.628-.869 1.179-2.731.428-2.531-1.022.37-2.683 1.092-4.81 1.848-6.418z"/><path d="m87.543 27.715c-.249.694-.023 1.492.557 1.993 1.614 1.393 4.064 4.629 1.887 10.436-2.416 6.441 1.496 9.719 3.283 10.828.333.206.573.51.721.856-6.599 1.215-27.787 4.711-53.188 4.711-21.592 0-31.557 11.628-35.575 18.548-.75 1.292-2.708.772-2.724-.723-.529-47.933 70.856-47.256 85.039-46.649z"/></g><path d="m211.972 159.812 39.642 29.732c1.832 1.374 1.349 4.244-.832 4.942l-8.787 2.812c-7.19 2.301-15.062.573-20.628-4.529-2.12-1.944-4.892-3.022-7.768-3.022-3.634 0-7.053-1.718-9.223-4.633l-22.823-30.669c9.828 2.846 20.136 4.751 30.419 5.367z" fill="#52565b"/><path d="m118.165 101.112c2.562-12.296 10.119-17.035 17.035-18.7 7.494-1.804 15.39-.149 21.797 4.137 18.744 12.54 48.274 46.019 55.393 54.226.681.785.207 2.008-.824 2.136l-3.466.433c-1.012.127-1.491 1.317-.847 2.109l10.094 12.423c.704.866.061 2.146-1.054 2.119-50.408-1.211-103.158-34.738-98.128-58.883z" fill="#52565b"/><path d="m24.131 39.085c7.023 1.192 15.798 5.275 3.586 19.098-12.759 3.448-19.393 11.571-22.49 16.904-.75 1.292-2.708.772-2.724-.723-.192-17.376 9.07-28.36 21.628-35.279z" fill="#52565b"/><path d="m91.012 87.279c6.373-12.747 1.598-21.157-.843-24.269-.576-.734-.496-1.811.205-2.427 3.248-2.854 3.754-6.281 3.775-8.025.008-.65-.327-1.243-.879-1.586-1.787-1.108-5.698-4.386-3.283-10.828 1.264-3.371.965-5.87.18-7.651 6.77-.96 16.728-8.232 23.206 10.184.445 1.266 1.331 2.337 2.385 3.166 2.841 2.235 7.762 8.193 2.408 20.429-3.362 7.685-4.248 13.569-4.24 17.652.019 9.873-4.886 19.221-13.456 24.123-2.764 1.581-5.993 2.869-9.745 3.616-2.935-9.696-2.636-18.54.287-24.384z" fill="#e3e4e5"/><path d="m207.253 145.455c-.643-.792-.165-1.982.847-2.109l3.466-.433c1.031-.129 1.505-1.352.824-2.136-1.2-1.384-3.049-3.498-5.364-6.097-27.473 6.537-56.701 4.29-72.407-3.893 18.787 15.493 50.67 28.464 81.674 29.211 1.115.027 1.758-1.253 1.054-2.119z" fill="#828487"/><path d="m136.868 186.641c.468-.118.92-.223 1.357-.317l20.068 3.588c47.452 10.404 95.207 24.754 95.207 24.754v19.827s-44.558-20.482-96.88-34.815l-30.259-6.905c2.362-2.566 5.723-4.921 10.507-6.132z" fill="#9e512b"/><path d="m124.764 184.818c-1.936 1.54-3.383 3.638-4.007 6.031-.05.191-.09.411-.136.614l-19.525-4.456c1.709-2.126 4.174-4.401 7.59-5.965l17.003 3.04z" fill="#9e512b"/><path d="m88.447 177.424 11.795 2.109c-.149.259-.289.524-.417.796-.713 1.517-1.385 3.514-1.771 5.986l-11.048-2.521c-20.493-5.659-36.313-12.898-48.313-20.594 0-.001 13.261 7.09 49.754 14.224z" fill="#9e512b"/><path d="m29.373 137.334c2.92-.946 6.247-.085 8.311 2.432 1.798 2.193 2.174 5.08 1.252 7.559-2.92.946-6.247.085-8.311-2.432-1.798-2.193-2.174-5.08-1.252-7.559z" fill="#7ccc4e"/><path d="m61.873 157.376c1.744 2.526 1.873 5.96.054 8.659-1.585 2.352-4.243 3.54-6.882 3.367-1.744-2.526-1.873-5.96-.054-8.659 1.584-2.352 4.242-3.54 6.882-3.367z" fill="#7ccc4e"/><path d="m169.337 211.603c3.037.444 5.639 2.689 6.376 5.859.642 2.762-.298 5.518-2.223 7.332-3.037-.444-5.639-2.689-6.376-5.859-.642-2.762.299-5.517 2.223-7.332z" fill="#7ccc4e"/><path d="m65.144 73.333c-2.406 0-4.98-.148-7.732-.479-5.17-.621-9.888-1.294-14.051-1.889-16.15-2.308-25.9-3.701-33.78 1.904-1.015.722-2.405.587-3.263-.316-.857-.903-.919-2.299-.145-3.274 5.516-6.952 16.001-15.24 34.629-15.24 25.405 0 46.787-3.574 52.735-4.669 1.15-.216 2.294.402 2.752 1.479.245.574.365 1.159.359 1.738-.026 2.118-.619 6.103-4.223 9.508.261.913-.017 1.918-.757 2.566-3.945 3.458-12.264 8.672-26.524 8.672zm-41.428-9.412c5.693 0 12.278.941 20.352 2.095 4.137.591 8.825 1.261 13.939 1.874 15.739 1.889 24.824-2.643 29.289-6.102.03-1.158.523-2.288 1.428-3.084 1.431-1.257 2.176-2.647 2.555-3.863-8.664 1.452-28.034 4.198-50.477 4.198-9.011 0-15.855 2.13-21.003 5.051 1.26-.116 2.564-.169 3.917-.169z"/><path d="m155.054 173.803c-6.746 0-12.234-5.488-12.234-12.234 0-2.631.83-5.142 2.401-7.262.822-1.108 2.388-1.342 3.497-.521s1.342 2.388.521 3.497c-.928 1.252-1.418 2.734-1.418 4.286 0 3.989 3.245 7.234 7.234 7.234s7.234-3.245 7.234-7.234c0-1.381 1.119-2.5 2.5-2.5s2.5 1.119 2.5 2.5c-.001 6.745-5.489 12.234-12.235 12.234z"/><path d="m155.054 173.803c-6.3 0-11.503-4.786-12.164-10.914-.484-.16-.972-.324-1.466-.496-24.458-8.507-43.154-24.87-51.295-44.891-4.781-11.758-5.286-23.474-1.353-31.34 5.751-11.504 1.516-18.942-.573-21.606-1.403-1.789-1.175-4.359.521-5.85 2.299-2.021 2.828-4.384 2.913-5.812-2.061-1.382-6.975-5.668-3.99-13.627 1.557-4.151.218-6.459-1.179-7.666-1.636-1.413-2.01-3.739-.891-5.533.229-.367.549-.668.929-.875.984-.534 24.278-12.944 39.919-2.138 11.428 7.896 15.323 25.846 11.576 53.348-.125.919.314 1.844 1.147 2.413.264.181.519.36.774.541l.547.384c.866.6 1.263 1.679.992 2.697-.271 1.019-1.151 1.758-2.202 1.848-1.204.104-2.373.291-3.473.556-8.158 1.964-13.263 7.609-15.173 16.779-3.409 16.362 25.391 39.92 61.63 50.414.524.152.984.471 1.31.909l7.429 9.982c.496.666.628 1.533.355 2.316s-.917 1.379-1.719 1.592c-7.185 1.908-15.339 2.342-24.252 1.295-2.229 3.499-6.099 5.674-10.312 5.674zm-62.521-111.811c2.767 3.792 7.413 13.008.715 26.405-3.251 6.501-2.671 16.931 1.512 27.221 7.6 18.689 25.207 34.017 48.306 42.052 1.033.359 2.037.684 3.04 1.007 1.079.347 1.789 1.377 1.73 2.509l-.006.122c-.005.086-.011.173-.011.261 0 3.989 3.245 7.234 7.234 7.234 2.871 0 5.474-1.715 6.633-4.369.447-1.026 1.52-1.635 2.631-1.476 7.414 1.018 14.24.971 20.351-.139l-4.626-6.217c-39.548-11.677-68.346-36.695-64.324-56 2.807-13.475 11.238-18.56 18.123-20.423-.714-1.348-1.007-2.893-.794-4.451 3.471-25.474.29-41.809-9.453-48.552-10.9-7.544-27.52-.954-32.935 1.547 1.79 1.991 4.031 5.999 1.669 12.298-1.615 4.307.337 6.633 2.26 7.826 1.31.813 2.08 2.211 2.062 3.741-.026 2.095-.608 6.021-4.117 9.404z"/><path d="m142.758 171.753c-6.746 0-12.235-5.488-12.235-12.234 0-1.269.2-2.529.594-3.747.219-.677.716-1.228 1.366-1.516s1.393-.286 2.041.007c2.782 1.256 5.656 2.402 8.542 3.406 1.034.359 2.042.686 3.047 1.01 1.082.349 1.792 1.382 1.73 2.517l-.025.374c0 1.455.447 2.869 1.292 4.086.752 1.082.535 2.562-.497 3.382l-2.483 1.976c-.314.25-.684.421-1.079.498-.844.165-1.574.241-2.293.241zm-7.207-11.598c.323 3.692 3.432 6.598 7.207 6.598.238 0 .489-.018.767-.055l.321-.255c-.499-1.13-.82-2.326-.955-3.554-.484-.16-.972-.325-1.466-.497-1.972-.685-3.937-1.434-5.874-2.237z"/><path d="m121.549 201.344c-.269 0-.542-.027-.815-.083-1.778-.364-3.029-1.829-3.115-3.644-.124-2.606.119-5.095.719-7.397.739-2.834 2.468-5.447 4.869-7.357l22.289-17.731c.541-.43 1.236-.616 1.921-.517.684.101 1.296.48 1.69 1.049 1.355 1.955 3.567 3.128 5.917 3.138 1.043.004 1.974.656 2.335 1.634s.077 2.078-.713 2.759l-6.059 5.223c-.229.198-.279.541-.116.796.021.034.078.097.168.168 3.316 2.614 4.125 5.441 4.22 7.354.083 1.674-.861 3.185-2.406 3.85-1.572.676-3.35.314-4.531-.921-.931-.976-3.526-2.351-10.441-.599-7.126 1.803-10.698 6.469-12.44 10.065-.672 1.387-2.015 2.213-3.492 2.213zm1.064-3.963h.01zm24.132-26.855-20.425 16.249c-1.559 1.241-2.676 2.912-3.144 4.706-.139.533-.253 1.081-.343 1.643 2.633-3.611 6.822-7.236 13.422-8.906 5.115-1.294 9.203-1.319 12.21-.083-.269-.279-.575-.554-.919-.826-.52-.409-.952-.88-1.284-1.398-1.497-2.339-1.041-5.468 1.061-7.281l2.396-2.065c-1.081-.526-2.085-1.213-2.974-2.039zm-25.988 20.324h.01z"/><path d="m99.396 190.856c-.499 0-1.007-.097-1.5-.297-1.682-.684-2.645-2.353-2.396-4.154.356-2.585 1.05-4.987 2.062-7.14 1.245-2.651 3.424-4.903 6.135-6.341l28.188-14.958c.748-.397 1.646-.389 2.387.024.74.412 1.222 1.17 1.279 2.016.145 2.136 1.233 4.09 2.985 5.362.684.497 1.071 1.305 1.028 2.149s-.509 1.609-1.239 2.034l-6.898 4.017c-.262.153-.374.48-.259.762.005.013.037.083.135.195 1.198 1.369 2.034 2.812 2.484 4.29.299.981-.032 2.046-.835 2.685l-3.127 2.488c-1.029.819-2.517.7-3.403-.271-.872-.955-3.312-2.499-9.827-2.081-7.335.468-11.702 4.4-14.073 7.617-.767 1.037-1.92 1.603-3.126 1.603zm31.956-26.946-25.312 13.431c-1.761.934-3.165 2.372-3.953 4.05-.234.499-.447 1.016-.639 1.552 3.25-3.067 8.032-5.864 14.826-6.297 5.245-.334 9.274.395 12.019 2.17l.005-.004c-.214-.329-.467-.66-.758-.991-.437-.498-.776-1.041-1.007-1.611-1.043-2.573-.021-5.565 2.377-6.961l4.088-2.38c-.684-.907-1.238-1.902-1.646-2.959zm-31.527 16.418h.01z"/><path d="m38.69 165.7c-.462 0-.929-.128-1.347-.396-19.697-12.631-33.966-27.43-37.24-38.62-.388-1.325.373-2.714 1.697-3.102 1.327-.385 2.714.372 3.102 1.698 2.905 9.93 16.698 23.989 35.14 35.815 1.162.746 1.5 2.292.755 3.454-.477.744-1.283 1.151-2.107 1.151z"/><path d="m158.011 218.533c-.792 0-1.571-.375-2.057-1.075-.787-1.135-.505-2.692.629-3.479 13.763-9.545 31.904-6.841 32.671-6.72 1.364.213 2.297 1.492 2.083 2.856-.213 1.363-1.494 2.295-2.854 2.083-.22-.033-16.978-2.483-29.05 5.889-.434.301-.931.446-1.422.446z"/><path d="m46.156 169.129c-.551 0-1.105-.181-1.567-.554-11.251-9.069-4.753-27.662-4.471-28.449.466-1.3 1.9-1.974 3.197-1.51 1.299.466 1.975 1.896 1.51 3.196-.083.234-5.559 16.051 2.901 22.87 1.075.866 1.244 2.44.377 3.515-.493.614-1.217.932-1.947.932z"/><path d="m36.533 150.207c-2.988 0-5.865-1.32-7.84-3.729-2.287-2.788-2.924-6.626-1.662-10.017.267-.716.846-1.271 1.572-1.506 4.017-1.303 8.34-.036 11.015 3.225 2.287 2.788 2.923 6.626 1.661 10.017-.267.716-.846 1.271-1.572 1.506-1.049.339-2.119.504-3.174.504zm-5.114-10.741c-.146 1.367.252 2.76 1.139 3.841 1.08 1.316 2.681 1.989 4.332 1.885.146-1.367-.252-2.76-1.139-3.841-1.079-1.317-2.692-1.987-4.332-1.885z"/><path d="m55.544 171.918c-.221 0-.441-.007-.663-.021-.762-.05-1.46-.446-1.894-1.074-2.398-3.475-2.426-7.98-.07-11.477 2.015-2.99 5.51-4.704 9.119-4.465.762.05 1.46.446 1.894 1.074 2.398 3.475 2.426 7.98.07 11.477-1.891 2.807-5.086 4.486-8.456 4.486zm4.873-11.97c-1.352.252-2.572 1.033-3.353 2.192-.952 1.412-1.138 3.149-.563 4.69 1.352-.252 2.572-1.033 3.353-2.192.951-1.412 1.138-3.149.563-4.69z"/><path d="m173.491 227.294c-.12 0-.241-.009-.362-.026-4.178-.611-7.495-3.66-8.45-7.766-.816-3.513.311-7.236 2.943-9.718.556-.524 1.321-.767 2.077-.655 4.178.611 7.495 3.66 8.45 7.766.816 3.513-.311 7.236-2.943 9.718-.467.441-1.082.681-1.715.681zm-3.262-12.873c-.736 1.162-.996 2.587-.679 3.949.386 1.658 1.53 2.978 3.05 3.607.736-1.162.996-2.587.679-3.949-.386-1.658-1.53-2.978-3.05-3.607z"/><path d="m253.5 236.994c-.355 0-.711-.076-1.044-.229-.444-.204-44.957-20.551-96.444-34.661l-30.207-6.893c-.869-.198-1.566-.844-1.831-1.695s-.056-1.779.547-2.435c3.099-3.369 7.046-5.678 11.733-6.864h.001c.499-.126.98-.238 1.446-.338.317-.068.645-.074.963-.016l20.067 3.588c47.097 10.325 95.008 24.677 95.486 24.821 1.057.317 1.781 1.291 1.781 2.394v19.827c0 .852-.434 1.645-1.151 2.104-.407.264-.876.397-1.347.397zm-121.684-45.539 25.36 5.787c.035.008.07.017.104.026 43.523 11.923 82.114 28.276 93.719 33.374v-14.109c-9.099-2.686-51.538-15.034-93.243-24.178l-19.479-3.481c-.26.06-.526.124-.797.192-2.082.526-3.975 1.326-5.664 2.389z"/><path d="m120.621 193.964c-.186 0-.372-.021-.556-.062l-19.525-4.456c-.84-.192-1.522-.803-1.805-1.616-.283-.814-.127-1.716.413-2.388 2.348-2.92 5.207-5.165 8.498-6.672.463-.212.98-.279 1.481-.188l17.003 3.04c.967.173 1.743.896 1.984 1.849s-.099 1.958-.868 2.569l-.924.735c-1.56 1.241-2.676 2.912-3.144 4.706-.022.085-.04.177-.06.269l-.057.265c-.146.648-.544 1.21-1.106 1.564-.404.254-.866.385-1.334.385zm-14.572-8.39 12.865 2.936c.41-.988.943-1.935 1.582-2.816l-11.453-2.048c-1.059.541-2.059 1.185-2.994 1.928z"/><path d="m98.053 188.814c-.186 0-.372-.021-.556-.062l-11.047-2.522c-.037-.008-.073-.018-.109-.028-19.12-5.28-35.605-12.312-48.997-20.899-1.13-.725-1.486-2.212-.807-3.37.68-1.158 2.151-1.573 3.335-.939.127.067 13.517 7.026 49.035 13.972l11.774 2.105c.801.143 1.483.667 1.826 1.405.344.738.307 1.597-.099 2.303-.114.198-.222.401-.32.609-.731 1.557-1.258 3.343-1.565 5.311-.107.685-.494 1.294-1.067 1.684-.417.284-.907.431-1.403.431zm-10.436-7.446 8.504 1.94c.166-.642.353-1.266.562-1.873l-8.676-1.551c-.013-.002-.026-.005-.04-.007-5.905-1.155-11.205-2.307-15.946-3.429 4.97 1.78 10.173 3.421 15.596 4.92z"/><path d="m3.986 78.324c-.34 0-.685-.044-1.029-.134-1.747-.46-2.933-1.986-2.954-3.797-.13-11.791 3.882-21.719 11.923-29.509 21.013-20.355 63.272-20.2 75.724-19.666.794.034 1.524.443 1.968 1.103.349.519.487 1.143.4 1.75 1.797 1.677 4.968 5.863 2.31 12.952-1.615 4.307.337 6.633 2.26 7.826.756.47 1.345 1.161 1.702 2 .298.699.263 1.495-.097 2.164s-1.003 1.139-1.75 1.276c-6.053 1.115-27.812 4.752-53.641 4.752-20.331 0-29.661 10.841-33.413 17.304-.728 1.253-2.02 1.979-3.403 1.979zm77.098-48.237c-15.2 0-48.744 1.981-65.68 18.388-6.172 5.979-9.622 13.432-10.286 22.194 5.267-7.299 15.876-16.63 35.684-16.63 20.736 0 38.793-2.381 47.964-3.852-1.724-2.289-3.017-5.863-1.12-10.921 1.557-4.151.218-6.459-1.179-7.666-.476-.411-.848-.911-1.105-1.459-1.176-.03-2.619-.054-4.278-.054z"/><path d="m104.622 45.999c-.002 0-.005 0-.008 0-1.381-.004-2.496-1.127-2.492-2.508.002-.699-.564-1.269-1.264-1.271-.439-.043-.758.23-.897.368s-.373.438-.374.895c-.004 1.378-1.123 2.492-2.5 2.492-.002 0-.005 0-.008 0-1.38-.004-2.497-1.127-2.492-2.508.005-1.674.662-3.246 1.85-4.426 1.183-1.175 2.751-1.821 4.417-1.821h.021c3.456.011 6.258 2.832 6.247 6.288-.004 1.377-1.123 2.491-2.5 2.491z"/><path d="m235.607 200.793c-5.812 0-11.53-2.15-15.929-6.182-1.663-1.525-3.822-2.365-6.079-2.365-4.402 0-8.6-2.108-11.228-5.64l-22.823-30.668c-.641-.861-.661-2.036-.049-2.917.611-.882 1.719-1.275 2.75-.977 10.066 2.915 20.117 4.688 29.873 5.272.489.029.958.202 1.351.496l39.642 29.732c1.599 1.199 2.386 3.169 2.054 5.14-.333 1.971-1.721 3.574-3.625 4.183l-8.787 2.812c-2.342.749-4.754 1.114-7.15 1.114zm-47.779-42.104 18.554 24.932c1.689 2.27 4.388 3.625 7.217 3.625 3.511 0 6.87 1.307 9.458 3.679 4.891 4.484 11.854 6.012 18.176 3.991l8.787-2.812c.051-.017.186-.06.218-.251s-.081-.277-.124-.309l-39.044-29.284c-7.627-.502-15.415-1.699-23.242-3.571z"/><path d="m216.329 162.498c-.032 0-.064 0-.096-.001-17.817-.429-37.33-4.966-54.945-12.774-16.791-7.444-30.449-17.104-38.46-27.201-6.049-7.625-8.508-15.205-7.109-21.919 2.913-13.985 11.884-18.933 18.897-20.621 7.971-1.919 16.637-.283 23.771 4.49 18.746 12.542 47.52 45.013 55.892 54.666.919 1.06 1.179 2.532.677 3.843-.503 1.314-1.683 2.238-3.08 2.413l-1.318.165 8.729 10.744c.945 1.163 1.123 2.72.463 4.064-.648 1.32-1.954 2.131-3.421 2.131zm.024-5h.01zm-75.06-73.303c-1.856 0-3.704.214-5.507.648-8.157 1.964-13.262 7.609-15.173 16.779-1.086 5.214 1.034 11.366 6.132 17.792 13.955 17.59 49.998 36.292 86.997 37.992l-8.43-10.375c-.87-1.071-1.091-2.532-.577-3.812.515-1.281 1.685-2.183 3.055-2.354l1.227-.153c-8.374-9.565-35.953-40.404-53.411-52.084-4.348-2.91-9.357-4.433-14.313-4.433zm-23.127 16.917h.01z"/><path d="m3.986 78.324c-.34 0-.685-.044-1.029-.134-1.747-.46-2.933-1.986-2.954-3.797-.181-16.402 7.531-29.018 22.922-37.498.496-.273 1.068-.368 1.625-.275 7.68 1.303 10.375 4.641 11.282 7.211 1.519 4.299-.523 9.535-6.242 16.007-.324.367-.749.63-1.221.758-11.604 3.136-17.813 10.294-20.98 15.747-.728 1.255-2.02 1.981-3.403 1.981zm1.017-3.987h.01zm19.56-32.629c-11.982 6.854-18.51 16.586-19.445 28.977 3.651-5.028 10.247-11.541 21.205-14.708 3.886-4.532 5.586-8.239 4.795-10.48-.783-2.215-4.141-3.292-6.555-3.789z"/><path d="m90.723 114.166c-1.082 0-2.066-.705-2.391-1.776-3.037-10.032-2.875-19.592.443-26.228 5.753-11.506 1.515-18.945-.575-21.608-1.404-1.789-1.175-4.358.523-5.848 2.298-2.02 2.827-4.383 2.912-5.812-2.061-1.381-6.975-5.668-3.99-13.626.847-2.257.925-4.196.233-5.763-.316-.716-.278-1.539.102-2.224.38-.684 1.059-1.151 1.834-1.261 1.046-.148 2.278-.5 3.582-.871 6.467-1.844 16.237-4.628 22.333 12.701.319.907 1.031 1.605 1.572 2.031 2.995 2.356 9.297 9.353 3.153 23.396-2.646 6.049-4.04 11.805-4.03 16.645.021 11.016-5.617 21.093-14.714 26.298-3.217 1.84-6.749 3.152-10.499 3.898-.162.031-.326.048-.488.048zm1.81-52.174c2.77 3.795 7.412 13.01.715 26.405-2.476 4.952-2.732 12.405-.756 20.279 2.383-.662 4.641-1.599 6.738-2.798 7.541-4.314 12.214-12.725 12.197-21.948-.011-5.607 1.485-11.885 4.449-18.659 4.575-10.456.921-15.429-1.664-17.462-1.523-1.198-2.629-2.686-3.198-4.301-4.534-12.891-9.961-11.343-16.246-9.553-.512.146-1.013.289-1.508.422.266 2.055-.044 4.279-.932 6.645-1.615 4.307.337 6.633 2.26 7.826 1.31.813 2.08 2.211 2.062 3.74-.026 2.095-.608 6.021-4.117 9.404zm-1.521 25.287h.01z"/><path d="m216.329 162.498c-.032 0-.064 0-.096-.001-29.468-.71-62.127-12.4-83.205-29.782-.987-.814-1.2-2.242-.494-3.309.707-1.067 2.104-1.427 3.24-.837 15.899 8.283 44.961 9.794 70.673 3.678.892-.212 1.833.083 2.445.769 2.325 2.61 4.182 4.733 5.387 6.122.92 1.061 1.179 2.534.676 3.844-.503 1.313-1.684 2.237-3.081 2.411l-1.317.165 8.729 10.744c.945 1.163 1.123 2.72.463 4.064-.647 1.322-1.953 2.132-3.42 2.132zm-.922-3.043h.01zm-64.639-20.696c16.72 9.553 39.459 17.56 62.974 18.647l-8.43-10.375s0 0 0-.001c-.87-1.071-1.09-2.532-.576-3.812s1.685-2.182 3.055-2.353l1.228-.153c-.818-.935-1.784-2.033-2.875-3.262-18.765 4.239-39.185 4.567-55.376 1.309z"/></svg>