<svg enable-background="new 0 0 256 256" height="512" viewBox="0 0 256 256" width="512" xmlns="http://www.w3.org/2000/svg"><path d="m164.216 139.486c-10.518 3.328-24.077 5.793-41.235 5.793-17.111 0-30.642-2.451-41.149-5.765-38.399 42.885.824 85.034 13.139 96.461 1.413 1.311.985 3.529-.81 4.323-4.477 1.981-6.036 5.131-6.453 7.858-.432 2.832 1.979 5.344 5.02 5.344h18.056c7.606 0 11.035-4.702 11.955-11.653h.397c.92 6.951 4.349 11.653 11.955 11.653h18.252c3.041 0 5.452-2.513 5.02-5.344-.416-2.727-1.975-5.877-6.452-7.858-1.796-.794-2.223-3.012-.81-4.323 12.318-11.43 51.556-53.594 13.115-96.489z" fill="#f9bd55"/><path d="m123.968 169.5h-2.059c-7.9 0-14.304 6.404-14.304 14.304v.226s14.243 30.517 15.333 51.098c1.09-20.582 15.333-51.098 15.333-51.098.126-7.987-6.314-14.53-14.303-14.53z" fill="#f4dbce"/><path d="m122.938 235.128c-.086 1.621-.091 3.181 0 4.659.091-1.477.086-3.037 0-4.659z" fill="#f4dbce"/><path d="m192.285 93.744c6.845 0 14.545-6.329 14.545-6.329-10.227-1.706-12.33-11.645-17.807-24.41 22.519-11.25 16.81-45.832 13.712-58.937-.401-1.698-2.59-2.13-3.637-.735-2.699 3.594-8.444 8.53-20.429 11.296-11.576 2.671-18.086 8.631-21.552 13.279-16.285-6.556-34.135-5.59-34.135-5.59s-17.851-.966-34.135 5.59c-3.468-4.648-9.978-10.608-21.554-13.279-11.985-2.766-17.73-7.702-20.429-11.296-1.048-1.395-3.236-.962-3.637.735-3.098 13.104-8.807 47.687 13.712 58.937-5.477 12.764-7.58 22.703-17.807 24.41 0 0 7.7 6.329 14.545 6.329 0 0-3.422 8.137-12.834 9.945 0 0 5.134 9.041 21.39 9.041 0 0-5.134 7.233-11.123 9.041 0 0 18.823 23.507 71.871 23.507s71.871-23.507 71.871-23.507c-5.989-1.808-11.123-9.041-11.123-9.041 16.256 0 21.39-9.041 21.39-9.041-9.412-1.808-12.834-9.945-12.834-9.945z" fill="#f9bd55"/><path d="m123.497 101.516s-.031 10.225-11.853 11.085c1.051 10.022 5.954 17.609 11.853 17.609s10.802-7.587 11.853-17.609c-11.822-.86-11.853-11.085-11.853-11.085z" fill="#52565b"/><path d="m115.603 124.919c2.115 3.291 4.872 5.292 7.894 5.292 3.023 0 5.779-2.001 7.894-5.292-2.114-3.296-4.87-5.299-7.894-5.299-3.024-.001-5.78 2.003-7.894 5.299z" fill="#fd605b"/><path d="m174.507 239.049c9.435-4.956 40.084-24.333 5.543-52.136-3.582 23.335-21.365 42.024-28.949 49.061-1.413 1.311-.986 3.529.81 4.323 4.477 1.981 6.036 5.131 6.452 7.858.432 2.832-1.979 5.344-5.02 5.344h20.047c3.081 0 5.469-2.573 5.005-5.439-.35-2.161-1.425-4.575-4.1-6.456-.937-.658-.81-2.018.212-2.555z" fill="#f9bd55"/><path d="m213.196 142.873c-7.008-.997-13.409 4.229-13.735 11.3-.826 17.904-6.032 30.472-12.354 39.225 4.205 4.499 6.724 8.74 7.975 12.693 16.366-14.382 24.355-34.792 28.035-48.067 1.944-7.01-2.719-14.126-9.921-15.151z" fill="#f9bd55"/><path d="m202.735 4.069c-.026-.11-.078-.199-.118-.297-2.177 4.411-10.31 19.205-23.363 23.556-15.401 5.134-6.845 16.256-6.845 16.256l-4.278 2.567s2.567 11.978 12.834 11.978l8.729 4.505c21.713-11.606 16.107-45.596 13.041-58.565z" fill="#f98080"/><path d="m66.708 27.327c-13.053-4.351-21.186-19.145-23.363-23.556-.04.099-.092.188-.118.297-3.066 12.969-8.672 46.959 13.041 58.566l8.729-4.505c10.267 0 12.834-11.978 12.834-11.978l-4.278-2.567s8.556-11.123-6.845-16.257z" fill="#f98080"/><path d="m132.046 90.987c0 4.166-4.383 10.057-8.549 10.057s-8.549-5.891-8.549-10.057 4.383-1.006 8.549-1.006 8.549-3.16 8.549 1.006z" fill="#52565b"/><circle cx="122.994" cy="164.405" fill="#f9e63a" r="11.063"/><path d="m122.981 145.279c-14.952 0-27.171-1.872-37.026-4.555 2.792 7.71 14.701 13.798 29.849 15.284 1.934-1.658 4.443-2.666 7.19-2.666s5.256 1.008 7.19 2.666c15.154-1.487 27.066-7.579 29.852-15.293-9.86 2.688-22.087 4.564-37.055 4.564z" fill="#039be6"/><path d="m71.565 239.049c-9.435-4.956-40.084-24.333-5.543-52.136 3.582 23.335 21.365 42.024 28.949 49.061 1.413 1.311.986 3.529-.81 4.323-4.477 1.981-6.036 5.131-6.452 7.858-.432 2.832 1.979 5.344 5.02 5.344h-20.047c-3.081 0-5.469-2.573-5.005-5.439.35-2.161 1.425-4.575 4.1-6.456.937-.658.81-2.018-.212-2.555z" fill="#f9bd55"/><path d="m173.391 256h-20.047c-1.381 0-2.5-1.119-2.5-2.5s1.119-2.5 2.5-2.5c.819 0 1.574-.333 2.072-.913.276-.322.583-.853.477-1.555-.412-2.699-2.045-4.645-4.993-5.949-1.637-.724-2.785-2.18-3.072-3.895-.28-1.673.308-3.374 1.573-4.547 7.317-6.79 24.71-25.02 28.178-47.608.136-.884.733-1.627 1.566-1.951s1.776-.178 2.472.383c12.132 9.765 17.801 19.664 16.852 29.421-1.292 13.274-14.556 22.312-21.486 26.165 2.096 1.882 3.428 4.312 3.881 7.109.327 2.018-.259 4.083-1.607 5.668-1.446 1.698-3.584 2.672-5.866 2.672zm-12.843-5h12.842c.814 0 1.564-.332 2.058-.912.233-.273.605-.85.479-1.628-.326-2.013-1.33-3.586-3.071-4.811-1.146-.807-1.777-2.114-1.688-3.498.091-1.409.904-2.648 2.175-3.316 5.677-2.982 19.005-11.187 20.148-22.933.694-7.131-3.27-14.623-11.793-22.307-5.049 22.108-21.66 39.495-28.897 46.211-.045.067-.022.142.121.205 5.692 2.518 7.445 6.701 7.912 9.767.167 1.089.063 2.192-.286 3.222zm15.121-9.737c.001-.001.001-.001 0 0z"/><path d="m92.729 256h-20.047c-2.283 0-4.42-.974-5.865-2.67-1.348-1.584-1.934-3.65-1.607-5.668.453-2.797 1.784-5.227 3.881-7.109-6.931-3.853-20.195-12.891-21.487-26.165-.95-9.758 4.72-19.657 16.852-29.422.695-.561 1.638-.708 2.472-.383.833.324 1.431 1.067 1.566 1.951 3.468 22.588 20.861 40.818 28.179 47.608 1.265 1.174 1.853 2.874 1.573 4.547-.287 1.715-1.436 3.171-3.072 3.895-2.947 1.304-4.58 3.25-4.992 5.949-.107.702.2 1.232.476 1.554.498.581 1.254.913 2.073.913 1.381 0 2.5 1.119 2.5 2.5s-1.121 2.5-2.502 2.5zm-28.356-64.404c-8.523 7.685-12.488 15.176-11.793 22.308 1.144 11.746 14.471 19.95 20.148 22.932 1.271.667 2.083 1.907 2.175 3.315.089 1.384-.541 2.692-1.688 3.499-1.741 1.224-2.745 2.797-3.071 4.811-.126.778.247 1.354.479 1.628.493.58 1.243.912 2.058.912h12.842c-.349-1.031-.452-2.133-.286-3.222.467-3.065 2.22-7.249 7.912-9.767.143-.063.166-.137.164-.154-7.277-6.763-23.89-24.153-28.94-46.262z"/><path d="m135.091 256c-5.326 0-9.297-1.997-11.805-5.935-4.561-7.162-3.749-20.729 2.413-40.326 4.466-14.204 10.248-26.643 10.306-26.767.584-1.25 2.071-1.791 3.322-1.208s1.792 2.071 1.208 3.322c-6.199 13.285-20.625 50.372-13.032 62.293 1.552 2.436 4.033 3.62 7.587 3.62 1.381 0 2.5 1.119 2.5 2.5s-1.118 2.501-2.499 2.501z"/><path d="m110.785 256c-1.381 0-2.5-1.119-2.5-2.5s1.119-2.5 2.5-2.5c3.554 0 6.036-1.184 7.587-3.62 7.592-11.921-6.833-49.009-13.032-62.293-.583-1.251-.043-2.739 1.208-3.322 1.252-.583 2.739-.043 3.322 1.208.058.124 5.84 12.563 10.306 26.767 6.162 19.596 6.974 33.164 2.413 40.326-2.507 3.937-6.479 5.934-11.804 5.934z"/><path d="m195.082 208.591c-.224 0-.45-.03-.671-.092-.813-.227-1.458-.849-1.712-1.654-1.208-3.817-3.704-7.767-7.417-11.74-.816-.873-.9-2.202-.201-3.171 7.185-9.947 11.183-22.691 11.883-37.877.187-4.047 2.091-7.857 5.224-10.451 3.159-2.617 7.302-3.783 11.361-3.208 4.147.59 7.84 2.938 10.133 6.441 2.291 3.501 2.964 7.821 1.846 11.854-4.009 14.459-12.259 34.746-28.794 49.277-.463.405-1.052.621-1.652.621zm-4.79-15.391c2.467 2.851 4.395 5.724 5.763 8.587 13.878-13.502 21.047-31.421 24.654-44.431.734-2.646.292-5.482-1.211-7.779-1.505-2.3-3.931-3.841-6.653-4.229-2.668-.376-5.39.39-7.468 2.109-2.08 1.723-3.294 4.149-3.417 6.831-.71 15.352-4.633 28.43-11.668 38.912z"/><path d="m122.981 147.779c-53.632 0-73.023-23.447-73.822-24.445-.519-.648-.682-1.511-.436-2.304.247-.792.87-1.412 1.665-1.651 2.476-.748 4.857-2.674 6.652-4.46-13.49-1.683-18.158-9.619-18.371-9.995-.398-.701-.434-1.55-.096-2.282s1.007-1.256 1.798-1.408c4.569-.878 7.49-3.471 9.167-5.561-6.195-1.611-11.712-6.097-11.993-6.327-.757-.623-1.081-1.63-.828-2.578.253-.947 1.037-1.659 2.003-1.82 6.842-1.142 9.308-6.559 13.422-16.838.52-1.299 1.052-2.628 1.618-3.998-9.26-5.547-14.564-15.514-15.775-29.667-1.042-12.185 1.312-24.622 2.809-30.952.41-1.731 1.744-3.033 3.482-3.396 1.747-.366 3.509.298 4.587 1.735 2.478 3.298 7.784 7.774 18.992 10.36 11.144 2.572 17.899 8.065 21.807 12.72 15.522-5.741 31.559-5.18 33.319-5.098 1.763-.083 17.799-.642 33.319 5.098 3.908-4.655 10.663-10.148 21.807-12.72 11.208-2.586 16.515-7.062 18.992-10.361 1.079-1.436 2.842-2.098 4.587-1.734 1.738.363 3.072 1.665 3.482 3.396 1.496 6.33 3.851 18.767 2.809 30.952-1.211 14.153-6.515 24.12-15.775 29.667.566 1.37 1.098 2.699 1.618 3.998 4.114 10.279 6.58 15.697 13.422 16.838.967.161 1.75.873 2.003 1.82s-.07 1.955-.828 2.578c-.281.23-5.798 4.716-11.993 6.327 1.677 2.09 4.597 4.683 9.166 5.561.792.152 1.461.676 1.798 1.408s.302 1.581-.096 2.282c-.213.376-4.881 8.312-18.371 9.995 1.795 1.786 4.176 3.712 6.652 4.46.795.24 1.418.859 1.665 1.651.246.793.083 1.656-.436 2.304-.799.999-20.19 24.445-73.821 24.445zm-67.577-25.229c6.411 5.776 26.559 20.229 67.577 20.229 41.202 0 61.228-14.439 67.591-20.22-5.01-2.983-8.694-8.117-8.882-8.382-.542-.762-.612-1.763-.183-2.594s1.286-1.353 2.221-1.353c9.119 0 14.316-2.987 16.954-5.266-7.632-3.15-10.563-9.921-10.703-10.251-.324-.772-.241-1.655.222-2.353s1.245-1.117 2.083-1.117c3.07 0 6.466-1.57 9.011-3.07-6.155-3.304-8.963-10.322-12.119-18.205-.769-1.922-1.565-3.91-2.452-5.977-.522-1.217-.005-2.63 1.18-3.222 20.255-10.119 15.788-41.264 12.612-55.197-3.178 3.868-9.38 8.746-21.287 11.493-10.891 2.513-16.947 8.096-20.11 12.337-.679.91-1.883 1.248-2.938.825-15.552-6.261-32.894-5.422-33.068-5.413-.088.004-.18.004-.268 0-.171-.009-17.518-.848-33.068 5.413-1.054.423-2.26.085-2.938-.825-3.163-4.241-9.219-9.824-20.11-12.337-11.908-2.748-18.11-7.625-21.287-11.493-3.176 13.934-7.643 45.079 12.612 55.197 1.185.592 1.703 2.005 1.18 3.222-.887 2.067-1.683 4.055-2.452 5.977-3.155 7.883-5.963 14.901-12.119 18.205 2.545 1.5 5.941 3.07 9.012 3.07.837 0 1.619.419 2.083 1.117.463.698.546 1.581.222 2.353-.139.331-3.071 7.103-10.705 10.252 2.633 2.274 7.832 5.265 16.957 5.265.935 0 1.792.522 2.221 1.353s.359 1.832-.183 2.594c-.186.264-3.863 5.389-8.866 8.373z"/><path d="m189.696 65.135c-.893 0-1.756-.479-2.207-1.322-.651-1.218-.191-2.732 1.026-3.383 8.562-4.577 13.44-13.583 14.5-26.768.664-8.262-.322-16.672-1.45-22.939-4.115 6.514-11.4 15.604-21.52 18.976-4.12 1.374-6.569 3.249-7.28 5.574-.995 3.253 1.599 6.752 1.625 6.787.435.565.607 1.29.475 1.99s-.559 1.311-1.17 1.678l-2.618 1.571c1.021 2.854 3.778 8.331 9.888 8.331 1.381 0 2.5 1.119 2.5 2.5s-1.119 2.5-2.5 2.5c-9.72 0-14.244-9.128-15.278-13.955-.224-1.045.241-2.118 1.158-2.668l2.154-1.292c-1.032-2.134-2.073-5.443-1.015-8.903 1.211-3.962 4.737-6.941 10.48-8.855 12.118-4.039 19.835-18.083 21.912-22.291.436-.883 1.352-1.417 2.333-1.392.984.036 1.855.646 2.226 1.558.049.105.16.346.234.662 1.474 6.233 3.801 18.492 2.831 30.569-1.204 14.991-6.966 25.346-17.126 30.776-.377.201-.78.296-1.178.296z"/><path d="m153.343 256h-18.252c-4.218 0-9.201-1.291-12.153-6.489-2.953 5.199-7.935 6.489-12.153 6.489h-18.056c-2.278 0-4.416-.968-5.865-2.655-1.336-1.555-1.929-3.584-1.626-5.566.468-3.066 2.22-7.249 7.913-9.767.142-.063.165-.137.163-.154-7.003-6.509-19.665-19.953-26.269-37.433-8.487-22.467-4.139-43.521 12.925-62.578.654-.732 1.678-1.013 2.614-.717 11.884 3.749 25.476 5.649 40.397 5.649 14.957 0 28.576-1.91 40.48-5.676.938-.297 1.961-.017 2.616.715 17.082 19.061 21.44 40.121 12.954 62.595-6.603 17.486-19.269 30.934-26.231 37.394-.044.067-.021.142.122.205 5.692 2.518 7.444 6.701 7.912 9.767.303 1.982-.29 4.011-1.626 5.566-1.449 1.687-3.586 2.655-5.865 2.655zm-30.604-16.653h.397c1.254 0 2.314.929 2.479 2.172.868 6.557 3.791 9.481 9.477 9.481h18.252c.819 0 1.574-.333 2.072-.913.276-.322.583-.853.477-1.555-.412-2.699-2.045-4.645-4.993-5.949-1.637-.724-2.785-2.18-3.072-3.895-.28-1.673.308-3.373 1.572-4.547 12.213-11.332 48.995-51.181 14.006-91.791-12.013 3.603-25.603 5.428-40.425 5.428-14.786 0-28.346-1.816-40.337-5.401-34.95 40.601 1.819 80.436 14.028 91.764 1.265 1.174 1.853 2.874 1.573 4.547-.287 1.715-1.435 3.17-3.071 3.895-2.948 1.304-4.581 3.25-4.993 5.949-.107.702.2 1.233.477 1.555.498.58 1.253.913 2.072.913h18.056c5.686 0 8.609-2.924 9.476-9.481.163-1.243 1.223-2.172 2.477-2.172z"/><path d="m122.994 177.968c-7.479 0-13.563-6.084-13.563-13.563s6.084-13.563 13.563-13.563 13.563 6.084 13.563 13.563-6.084 13.563-13.563 13.563zm0-22.126c-4.722 0-8.563 3.841-8.563 8.563s3.841 8.563 8.563 8.563 8.563-3.841 8.563-8.563-3.841-8.563-8.563-8.563z"/><path d="m130.185 158.508c-.594 0-1.172-.212-1.627-.602-1.553-1.331-3.528-2.063-5.563-2.063s-4.011.733-5.564 2.064c-.517.443-1.191.653-1.871.59-16.267-1.596-28.811-8.238-31.956-16.921-.318-.878-.121-1.859.512-2.546.632-.687 1.596-.962 2.495-.718 10.888 2.964 23.124 4.468 36.37 4.468 13.256 0 25.502-1.506 36.398-4.477.9-.245 1.862.031 2.495.717s.831 1.667.514 2.545c-3.139 8.688-15.684 15.334-31.959 16.932-.082.007-.163.011-.244.011zm-38.396-13.803c4.744 4.276 13.313 7.58 23.27 8.71 2.305-1.666 5.083-2.573 7.936-2.573 2.854 0 5.631.907 7.936 2.573 9.964-1.131 18.538-4.438 23.279-8.718-9.614 2.047-20.087 3.083-31.229 3.083-11.128-.001-21.589-1.033-31.192-3.075z"/><path d="m122.994 177.968c-7.479 0-13.563-6.084-13.563-13.563 0-1.381 1.119-2.5 2.5-2.5h22.126c1.381 0 2.5 1.119 2.5 2.5 0 7.479-6.084 13.563-13.563 13.563zm-8.191-11.063c1.072 3.506 4.339 6.063 8.191 6.063s7.119-2.557 8.191-6.063z"/><path d="m122.867 169.922c-1.381 0-2.5-1.119-2.5-2.5v-3.017c0-1.381 1.119-2.5 2.5-2.5s2.5 1.119 2.5 2.5v3.017c0 1.381-1.119 2.5-2.5 2.5z"/><path d="m123.497 103.544c-5.691 0-11.049-7.074-11.049-12.557 0-1.697.534-2.975 1.586-3.798 1.732-1.357 3.905-.817 6.007-.296 1.168.29 2.376.589 3.456.589s2.288-.299 3.456-.589c2.101-.521 4.274-1.06 6.007.296 1.053.823 1.586 2.102 1.586 3.798 0 5.483-5.358 12.557-11.049 12.557zm-6.026-12.115c.307 3.07 3.655 7.116 6.026 7.116s5.72-4.045 6.026-7.116c-.441.087-.963.217-1.368.317-1.322.328-2.968.736-4.658.736s-3.336-.408-4.658-.736c-.405-.1-.927-.23-1.368-.317z"/><path d="m136.43 115.143c-.402 0-.812-.015-1.231-.045-14.002-1-14.201-13.449-14.202-13.575-.004-1.381 1.112-2.503 2.493-2.507h.007c1.372 0 2.487 1.106 2.5 2.477.015.826.417 7.964 9.558 8.618 2.439.172 4.306-.358 5.682-1.629 2.661-2.457 2.728-6.931 2.728-6.976.011-1.376 1.161-2.458 2.51-2.484 1.376.005 2.49 1.118 2.49 2.495 0 .27-.049 6.647-4.302 10.608-2.154 2.004-4.92 3.018-8.233 3.018z"/><path d="m110.565 115.143c-3.314 0-6.079-1.013-8.233-3.019-4.253-3.96-4.302-10.339-4.302-10.608 0-1.381 1.119-2.5 2.5-2.5s2.5 1.119 2.5 2.5c0 .035.067 4.509 2.728 6.966 1.376 1.271 3.235 1.807 5.682 1.629 9.426-.673 9.557-8.279 9.558-8.602.004-1.378 1.123-2.493 2.5-2.493h.007c1.381.004 2.497 1.126 2.493 2.507 0 .125-.199 12.574-14.202 13.575-.419.029-.829.045-1.231.045z"/><path d="m123.497 132.71c-7.217 0-13.113-8.162-14.339-19.849-.071-.673.135-1.346.569-1.865s1.061-.84 1.735-.889c9.128-.665 9.52-7.805 9.535-8.618.025-1.364 1.138-2.464 2.5-2.464h.019c1.366.01 2.469 1.104 2.481 2.468.016.828.419 7.951 9.535 8.614.675.049 1.301.37 1.735.889.435.519.64 1.192.569 1.865-1.226 11.687-7.122 19.849-14.339 19.849zm-9.025-17.97c1.345 7.44 5.089 12.971 9.025 12.971s7.68-5.531 9.025-12.971c-4.599-.926-7.364-3.252-9.025-5.7-1.661 2.448-4.425 4.774-9.025 5.7z"/><path d="m226.083 102.539c-.195 0-.393-.023-.591-.071-32.438-7.864-61.307-5.99-61.594-5.97-1.385.09-2.571-.945-2.666-2.322s.945-2.571 2.322-2.666c.295-.019 29.937-1.944 63.116 6.099 1.342.325 2.166 1.677 1.841 3.019-.277 1.143-1.301 1.911-2.428 1.911z"/><path d="m223.417 127.014c-.389 0-.783-.091-1.152-.283-29.61-15.406-58.087-20.501-58.371-20.551-1.36-.238-2.27-1.533-2.032-2.894.238-1.36 1.532-2.269 2.894-2.032.292.051 29.53 5.283 59.817 21.041 1.225.637 1.701 2.147 1.064 3.372-.446.857-1.318 1.347-2.22 1.347z"/><path d="m21.917 102.539c-1.127 0-2.15-.768-2.428-1.912-.325-1.342.499-2.693 1.841-3.019 33.18-8.043 62.82-6.119 63.116-6.099 1.377.095 2.417 1.289 2.322 2.666-.094 1.377-1.288 2.412-2.665 2.323-.29-.02-29.197-1.885-61.595 5.97-.198.048-.397.071-.591.071z"/><path d="m24.583 127.014c-.903 0-1.774-.49-2.22-1.347-.637-1.225-.161-2.734 1.064-3.372 30.288-15.758 59.526-20.99 59.817-21.041 1.363-.236 2.655.672 2.893 2.032s-.672 2.655-2.031 2.894c-.285.05-28.799 5.165-58.372 20.551-.367.192-.762.283-1.151.283z"/><path d="m138.143 83.357c-1.377 0-2.496-1.114-2.5-2.492-.017-5.29 4.273-9.607 9.562-9.624 2.591-.014 4.975.981 6.793 2.788 1.817 1.806 2.823 4.212 2.832 6.774.004 1.381-1.111 2.504-2.492 2.508-.003 0-.006 0-.008 0-1.377 0-2.496-1.114-2.5-2.492-.004-1.228-.485-2.379-1.356-3.244-.867-.861-2.016-1.335-3.237-1.335-.005 0-.01 0-.015 0-2.533.008-4.587 2.076-4.579 4.608.004 1.381-1.111 2.503-2.492 2.508-.003.001-.006.001-.008.001z"/><path d="m108.339 83.334c-1.381 0-2.5-1.119-2.5-2.5 0-2.533-2.061-4.593-4.594-4.593s-4.593 2.061-4.593 4.593c0 1.381-1.119 2.5-2.5 2.5s-2.5-1.119-2.5-2.5c0-5.29 4.304-9.593 9.593-9.593 5.29 0 9.594 4.304 9.594 9.593 0 1.381-1.119 2.5-2.5 2.5z"/><path d="m56.266 65.135c-.398 0-.801-.095-1.177-.296-10.159-5.431-15.922-15.785-17.126-30.776-.97-12.078 1.357-24.337 2.831-30.569.075-.316.186-.557.238-.673.371-.912 1.24-1.517 2.224-1.553.979-.034 1.895.514 2.331 1.397 2.077 4.208 9.797 18.252 21.912 22.291 5.743 1.914 9.269 4.894 10.48 8.855 1.058 3.46.017 6.77-1.016 8.903l2.154 1.292c.917.55 1.382 1.623 1.158 2.668-1.034 4.827-5.559 13.955-15.278 13.955-1.381 0-2.5-1.119-2.5-2.5s1.119-2.5 2.5-2.5c6.069 0 8.848-5.489 9.881-8.335l-2.611-1.566c-.611-.367-1.037-.977-1.17-1.678s.04-1.425.475-1.99c.02-.026 2.633-3.546 1.619-6.81-.72-2.314-3.167-4.182-7.272-5.551-10.118-3.372-17.405-12.463-21.521-18.977-1.128 6.267-2.114 14.678-1.45 22.941 1.06 13.185 5.938 22.19 14.5 26.767 1.217.651 1.677 2.166 1.026 3.383-.452.842-1.316 1.322-2.208 1.322z"/><path d="m123.497 132.71c-3.777 0-7.328-2.287-9.997-6.44-.529-.823-.529-1.878-.001-2.701 2.668-4.159 6.219-6.45 9.999-6.45s7.331 2.291 9.999 6.45c.528.823.527 1.879-.001 2.702-2.671 4.152-6.222 6.439-9.999 6.439zm-4.808-7.793c1.13 1.368 2.792 2.793 4.808 2.793s3.678-1.425 4.809-2.793c-1.13-1.37-2.791-2.798-4.809-2.798-2.017 0-3.679 1.428-4.808 2.798z"/></svg>