<?xml version="1.0"?>
<svg xmlns="http://www.w3.org/2000/svg" height="512px" viewBox="0 0 512 512" width="512px" class=""><g><path d="m256 296c-22.089844 0-40-17.910156-40-40 0-14.804688 8.046875-27.71875 20-34.636719v-121.363281c0-11.046875 8.953125-20 20-20s20 8.953125 20 20v121.363281c11.953125 6.917969 20 19.832031 20 34.636719 0 3.582031-.480469 7.050781-1.363281 10.355469l53.003906 53.003906c7.8125 7.808594 7.8125 20.472656 0 28.28125-3.902344 3.90625-9.023437 5.859375-14.140625 5.859375-5.121094 0-10.238281-1.953125-14.140625-5.859375l-53.003906-53c-3.304688.882813-6.773438 1.359375-10.355469 1.359375zm181.152344-220.886719c-48.261719-48.332031-112.453125-75.007812-180.75-75.113281-.136719 0-.261719 0-.398438 0-139.863281 0-254.667968 113.648438-255.9921872 253.519531-.5664068 59.636719 19.8164062 117.886719 57.3867192 164.027344.695312.851563.671874 2.042969-.027344 2.742187l-34.535156 34.40625c-9.609376 9.609376-12.460938 23.941407-7.261719 36.507813 5.203125 12.582031 17.359375 20.722656 30.980469 20.738281l90.652343.058594h.035157c13.289062 0 25.78125-5.175781 35.179687-14.574219 9.410156-9.40625 14.585937-21.910156 14.578125-35.214843l-.050781-90.664063c-.015625-13.613281-8.15625-25.769531-20.738281-30.972656-12.566407-5.199219-26.898438-2.347657-36.507813 7.261719-.050781.050781-.105469.105468-.15625.15625l-7.84375 8.023437c-7.726563 7.894531-7.585937 20.554687.3125 28.28125 6.839844 6.691406 17.253906 7.480469 24.941406 2.4375l.042969 75.5c0 3.519531-1.789062 5.839844-2.859375 6.90625-1.066406 1.070313-3.382813 2.859375-6.898437 2.859375-.003907 0-.007813 0-.007813 0l-75.042969-.050781 23.4375-23.347657c15.285156-15.285156 16.480469-39.496093 2.785156-56.3125-31.691406-38.917968-48.882812-88.066406-48.40625-138.390624 1.121094-118.019532 97.976563-213.898438 215.996094-213.898438h.335938c118.914062.183594 215.660156 97.082031 215.660156 216 0 42.589844-12.664062 84.046875-36.625 119.886719-6.140625 9.179687-3.671875 21.601562 5.507812 27.742187 9.179688 6.136719 21.605469 3.671875 27.742188-5.511718 28.375-42.441407 43.375-91.585938 43.375-142.117188 0-68.308594-26.582031-132.550781-74.847656-180.886719zm-69.414063 365.78125c-33.597656 20.347657-72.234375 31.105469-111.738281 31.105469-11.046875 0-20 8.953125-20 20s8.953125 20 20 20c46.8125 0 92.617188-12.757812 132.460938-36.894531 9.449218-5.722657 12.46875-18.019531 6.746093-27.46875-5.726562-9.445313-18.023437-12.464844-27.46875-6.742188zm0 0" data-original="#000000" class="active-path" data-old_color="#000000" fill="#6334DC"/></g> </svg>
