<svg id="f1410098-b6ef-424e-beee-8c1519bc1d1f" data-name="Layer 1" xmlns="http://www.w3.org/2000/svg" xmlns:xlink="http://www.w3.org/1999/xlink" width="915.68773" height="679.27607" viewBox="0 0 915.68773 679.27607"><defs><linearGradient id="b5076013-d6c0-4649-8f63-d536232108ef" x1="549.23403" y1="734.77229" x2="549.23403" y2="126.56914" gradientTransform="matrix(0.97485, 0.30762, -0.30291, 0.99, 144.20301, -171.28919)" gradientUnits="userSpaceOnUse"><stop offset="0" stop-color="gray" stop-opacity="0.25"/><stop offset="0.53514" stop-color="gray" stop-opacity="0.12"/><stop offset="1" stop-color="gray" stop-opacity="0.1"/></linearGradient><linearGradient id="be72c466-93ff-4e9c-a64c-30b94918ee69" x1="549.32281" y1="679.27607" x2="549.32281" y2="233.83602" gradientTransform="matrix(1, 0, 0, 1, 0, 0)" xlink:href="#b5076013-d6c0-4649-8f63-d536232108ef"/></defs><title>Credit card</title><rect x="184.85689" y="201.52958" width="728.622" height="445.00176" rx="27.5" transform="translate(-243.24579 71.69262) rotate(-17.2615)" fill="url(#b5076013-d6c0-4649-8f63-d536232108ef)"/><rect x="193.71997" y="205.56022" width="713.75592" height="429.25181" rx="27.5" transform="translate(-242.04064 71.94381) rotate(-17.2615)" fill="#fff"/><rect x="155.9523" y="267.86085" width="713.75592" height="61.55937" transform="translate(-207.67506 55.26252) rotate(-17.2615)" fill="#6c63ff"/><rect x="303.66876" y="610.48755" width="181.35057" height="26.62027" transform="translate(-309.4966 34.74867) rotate(-17.2615)" fill="#bdbdbd"/><rect x="287.34157" y="547.84131" width="314.45191" height="26.62027" transform="translate(-288.64532 46.83008) rotate(-17.2615)" fill="#e0e0e0"/><rect x="182.9579" y="233.83602" width="732.72983" height="445.44005" rx="27.5" fill="url(#be72c466-93ff-4e9c-a64c-30b94918ee69)"/><rect x="191.27673" y="238.37789" width="713.75592" height="429.25181" rx="27.5" fill="#fff"/><rect x="361.01292" y="446.76044" width="20.79708" height="59.06372" fill="#e0e0e0"/><rect x="387.63319" y="446.76044" width="20.79708" height="59.06372" fill="#e0e0e0"/><rect x="414.25346" y="446.76044" width="20.79708" height="59.06372" fill="#e0e0e0"/><rect x="460.83892" y="446.76044" width="20.79708" height="59.06372" fill="#e0e0e0"/><rect x="487.45919" y="446.76044" width="20.79708" height="59.06372" fill="#e0e0e0"/><rect x="514.07946" y="446.76044" width="20.79708" height="59.06372" fill="#e0e0e0"/><rect x="560.66493" y="446.76044" width="20.79708" height="59.06372" fill="#e0e0e0"/><rect x="587.28519" y="446.76044" width="20.79708" height="59.06372" fill="#e0e0e0"/><rect x="613.90546" y="446.76044" width="20.79708" height="59.06372" fill="#e0e0e0"/><rect x="660.49093" y="446.76044" width="20.79708" height="59.06372" fill="#e0e0e0"/><rect x="687.1112" y="446.76044" width="20.79708" height="59.06372" fill="#e0e0e0"/><rect x="713.73147" y="446.76044" width="20.79708" height="59.06372" fill="#e0e0e0"/><rect x="236.68773" y="350.83602" width="124" height="68" fill="#6c63ff"/><rect x="718.68773" y="573.83602" width="76" height="76" fill="#6c63ff" opacity="0.1"/><rect x="756.68773" y="573.83602" width="76" height="76" fill="#6c63ff" opacity="0.1"/></svg>