<svg enable-background="new 0 0 256 256" height="512" viewBox="0 0 256 256" width="512" xmlns="http://www.w3.org/2000/svg"><path d="m153.458 76.874c-13.445-6.722-17.811-20.619-19.223-28.424-.589-3.253-3.391-5.634-6.697-5.634s-6.108 2.381-6.697 5.634c-1.412 7.804-5.778 21.702-19.223 28.424-19.289 9.645-19.289 32.551-2.411 39.785 16.473 7.06 28.331-11.755 28.331-11.755s11.858 18.814 28.331 11.755c16.879-7.234 16.879-30.14-2.411-39.785z" fill="#f4dbce"/><path d="m138.724 80.677c0 5.451-5.735 11.139-11.186 11.139s-11.186-5.688-11.186-11.139 5.735-3.254 11.186-3.254c5.451-.001 11.186-2.197 11.186 3.254z" fill="#7d3d1a"/><path d="m148.526 120.719c-9.088 0-16.658-6.172-20.988-11.542-5.598 6.94-16.613 15.224-29.316 9.779-8.431-3.613-13.619-11.028-13.878-19.835-.293-9.973 5.897-19.354 16.156-24.483 12.497-6.249 16.567-19.369 17.881-26.633.806-4.456 4.658-7.689 9.157-7.689 4.5 0 8.351 3.234 9.157 7.689 1.314 7.264 5.384 20.384 17.881 26.633 10.258 5.129 16.449 14.51 16.156 24.483-.259 8.807-5.447 16.222-13.878 19.835-2.876 1.233-5.667 1.762-8.328 1.763zm-20.988-18.315c.858 0 1.657.44 2.115 1.167.026.041 2.855 4.455 7.493 7.948 5.864 4.417 11.832 5.374 17.739 2.842 6.594-2.826 10.649-8.578 10.85-15.386.235-8.004-4.897-15.616-13.394-19.864-14.444-7.222-19.085-22.031-20.565-30.215-.375-2.074-2.157-3.579-4.237-3.579s-3.862 1.505-4.237 3.58c-1.48 8.184-6.121 22.992-20.565 30.214-8.497 4.249-13.629 11.86-13.394 19.865.2 6.808 4.256 12.56 10.85 15.386 14.346 6.149 25.125-10.62 25.232-10.79.456-.727 1.255-1.168 2.113-1.168z"/><path d="m127.538 94.316c-6.907 0-13.687-6.756-13.687-13.639 0-2.003.601-3.566 1.786-4.646 2.099-1.913 5.131-1.631 8.339-1.333 1.182.11 2.403.224 3.561.224s2.379-.114 3.561-.224c3.208-.299 6.239-.581 8.339 1.333 1.185 1.08 1.786 2.643 1.786 4.646.001 6.883-6.778 13.639-13.685 13.639zm-7.06-14.83c-.712 0-1.288.061-1.473.241-.001.001-.153.208-.153.95 0 4.037 4.627 8.639 8.687 8.639s8.686-4.602 8.686-8.639c0-.741-.152-.948-.154-.95-.439-.428-3.085-.182-4.508-.049-1.294.121-2.634.245-4.024.245s-2.729-.125-4.024-.245c-.825-.077-2.058-.192-3.037-.192z"/><path d="m127.321 108.056c-1.381 0-2.5-1.119-2.5-2.5v-11.777c0-1.381 1.119-2.5 2.5-2.5s2.5 1.119 2.5 2.5v11.777c0 1.381-1.119 2.5-2.5 2.5z"/><g fill="#eaa250"><path d="m168.864 5.156c-1.603-.041-3.026-.022-4.287.046-4.717.256-6.491 6.395-2.601 9.075 3.856 2.657 7.99 7.638 8.165 16.814.33 17.347 8.67 65.604 21.018 61.688 9.544-3.027-8.743-18.396 11.92-38.846 20.662-20.45-16.781-48.327-34.215-48.777z"/><path d="m86.273 5.156c1.603-.041 3.026-.022 4.287.046 4.717.256 6.491 6.395 2.601 9.075-3.856 2.657-7.99 7.638-8.165 16.814-.33 17.347-8.67 65.604-21.018 61.688-9.544-3.027 8.743-18.396-11.92-38.846-20.661-20.45 16.782-48.327 34.215-48.777z"/><path d="m170.141 31.091c-.175-9.176-4.309-14.157-8.165-16.814-2.165-1.491-2.571-4.052-1.696-6.076-8.222-4.914-15.993-5.939-21.9-5.655-7.227.347-14.456.347-21.683 0-5.894-.283-13.646.738-21.849 5.626.891 2.028.489 4.607-1.686 6.106-3.856 2.657-7.99 7.638-8.165 16.814-.303 15.931-7.363 57.926-18.077 61.644 2.053 10.782 14.074 17.62 28.052 21.544-12.477-8.967-10.864-28.649 6.646-37.404 13.445-6.722 17.811-20.619 19.223-28.424.589-3.253 3.391-5.634 6.697-5.634s6.108 2.381 6.697 5.634c1.412 7.804 5.778 21.702 19.223 28.424 17.51 8.755 19.123 28.437 6.646 37.404 13.988-3.927 26.015-10.772 28.056-21.566-10.682-3.851-17.716-45.721-18.019-61.623z"/></g><path d="m189.741 95.502c-1.335 0-2.909-.383-4.574-1.578-4.897-3.513-9.202-13.217-12.794-28.84-3.06-13.311-4.598-26.927-4.731-33.946-.127-6.671-2.511-11.651-7.084-14.803-2.655-1.829-3.803-5.03-2.922-8.155.887-3.149 3.559-5.299 6.807-5.475 1.367-.075 2.876-.091 4.487-.049 13.048.337 34.97 14.313 41.003 29.542 3.438 8.679 1.677 16.81-5.095 23.511-11.634 11.514-9.995 20.943-8.799 27.828.796 4.583 1.699 9.778-4.124 11.624-.609.194-1.346.341-2.174.341zm-22.509-87.868c-.891 0-1.733.021-2.52.064-1.646.089-2.15 1.429-2.265 1.837-.112.399-.376 1.771.947 2.682 4.108 2.831 9.047 8.395 9.247 18.825.315 16.569 7.053 52.801 15.441 58.819 1.088.781 1.812.695 2.321.534 1.344-.426 1.625-.728.709-6.002-1.228-7.063-3.282-18.886 10.208-32.237 5.311-5.255 6.644-11.351 3.964-18.116-5.622-14.19-26.098-26.117-36.483-26.386-.538-.013-1.061-.02-1.569-.02z"/><path d="m65.396 95.502c-.829 0-1.565-.147-2.173-.341-5.823-1.846-4.92-7.041-4.124-11.624 1.196-6.885 2.835-16.313-8.799-27.828-6.771-6.702-8.533-14.832-5.095-23.511 6.034-15.228 27.956-29.204 41.004-29.541 1.609-.042 3.12-.026 4.487.048 3.248.176 5.92 2.326 6.807 5.475.88 3.125-.267 6.326-2.922 8.155-4.574 3.152-6.958 8.132-7.084 14.804-.133 7.019-1.671 20.635-4.731 33.946-3.592 15.624-7.897 25.327-12.794 28.84-1.666 1.194-3.241 1.577-4.576 1.577zm22.51-87.868c-.508 0-1.031.007-1.567.021-10.386.268-30.862 12.196-36.485 26.386-2.68 6.765-1.347 12.86 3.964 18.116 13.49 13.351 11.435 25.174 10.208 32.237-.917 5.275-.635 5.576.709 6.002.509.163 1.232.248 2.321-.533 3.715-2.665 7.664-12.104 10.835-25.898 2.98-12.963 4.477-26.152 4.605-32.92.199-10.43 5.138-15.994 9.247-18.826 1.323-.911 1.059-2.283.947-2.682-.115-.408-.619-1.749-2.265-1.838-.785-.044-1.629-.065-2.519-.065zm-1.633-2.478h.01z"/><path d="m160.104 116.779c-.94 0-1.828-.534-2.252-1.417-.526-1.093-.191-2.406.794-3.114 4.961-3.565 7.526-9.116 7.038-15.229-.586-7.33-5.574-14.024-13.343-17.909-14.443-7.222-19.084-22.03-20.565-30.214-.375-2.074-2.157-3.58-4.237-3.58s-3.862 1.505-4.237 3.58c-1.48 8.184-6.121 22.992-20.565 30.214-7.769 3.885-12.757 10.58-13.343 17.909-.489 6.113 2.077 11.664 7.038 15.229.985.708 1.32 2.021.794 3.114s-1.761 1.651-2.929 1.323c-17.528-4.92-27.844-13.041-29.833-23.483-.232-1.219.465-2.423 1.637-2.83 1.382-.48 6.286-3.662 11.333-24.469 3.135-12.926 4.921-27.321 5.064-34.86.199-10.43 5.138-15.994 9.247-18.826 1.219-.84 1.201-2.163.815-3.042-.507-1.155-.075-2.507 1.009-3.153 7.309-4.355 15.136-6.369 23.248-5.976 7.115.342 14.329.342 21.443 0 8.14-.389 15.98 1.63 23.303 6.007 1.077.644 1.51 1.986 1.012 3.138-.378.875-.39 2.192.82 3.025 4.109 2.832 9.048 8.396 9.247 18.825.346 18.176 7.97 56.291 16.367 59.317 1.155.417 1.837 1.61 1.609 2.816-1.977 10.455-12.293 18.584-29.836 23.508-.227.067-.454.097-.678.097zm-90.288-22.779c2.23 6.969 9.444 11.727 17.159 14.912-1.995-3.681-2.915-7.918-2.566-12.291.727-9.09 6.742-17.308 16.091-21.982 12.497-6.249 16.567-19.369 17.881-26.633.806-4.456 4.657-7.689 9.157-7.689s8.351 3.234 9.157 7.689c1.314 7.264 5.386 20.385 17.881 26.633 9.349 4.674 15.364 12.892 16.091 21.982.35 4.372-.571 8.61-2.566 12.291 7.728-3.191 14.952-7.959 17.169-14.948-11.623-8.384-17.38-49.773-17.628-62.826-.127-6.671-2.511-11.652-7.084-14.804-2.31-1.592-3.461-4.231-3.166-6.9-5.995-3.23-12.347-4.709-18.892-4.393-7.273.35-14.649.35-21.923 0-6.524-.312-12.853 1.153-18.83 4.36.309 2.68-.841 5.332-3.166 6.933-4.573 3.152-6.957 8.132-7.084 14.804-.25 13.101-6.025 54.552-17.681 62.862z"/><path d="m139.631 116.024c-7.475-3.794-12.093-11.119-12.093-11.119s-4.814 7.624-12.562 11.342l-1.669 10.643c-1.35 8.606 5.303 16.384 14.015 16.384s15.365-7.778 14.015-16.384z" fill="#fd605b"/><path d="m138.932 115.64c.233.128.46.262.699.383l1.704 10.866c.384 2.448.102 4.821-.672 6.975 5.785-3.538 10.474-9.348 13.247-16.492-5.722 1.798-10.822.549-14.978-1.732z" fill="#52565b"/><path d="m113.306 126.89 1.669-10.643c.092-.044.178-.095.27-.141-3.896 1.929-8.551 2.89-13.726 1.371 2.624 6.703 6.93 12.24 12.252 15.8-.619-1.994-.814-4.161-.465-6.387z" fill="#52565b"/><path d="m113.771 133.278c-5.322-3.56-9.628-9.097-12.252-15.8-.761-.223-1.53-.483-2.313-.819-1.557-.667-2.967-1.469-4.235-2.38-6.204-1.742-12.016-4.061-16.748-7.04 3.671 14.793 18.485 26.567 37.531 30.049-.862-1.216-1.535-2.566-1.983-4.01z" fill="#039be6"/><path d="m160.104 114.278c-1.268.911-2.678 1.713-4.235 2.38-.662.284-1.313.511-1.959.714-2.773 7.143-7.461 12.954-13.246 16.492-.448 1.246-1.058 2.418-1.822 3.481 19.16-3.395 34.103-15.169 37.842-29.996-4.701 2.928-10.452 5.209-16.58 6.929z" fill="#039be6"/><path d="m127.321 145.774c-4.884 0-9.506-2.128-12.68-5.84-3.175-3.711-4.561-8.607-3.804-13.432l1.669-10.642c.127-.813.646-1.511 1.388-1.867 7.019-3.369 11.486-10.354 11.53-10.424.458-.725 1.256-1.165 2.114-1.165.859 0 1.657.441 2.114 1.167.041.064 4.371 6.803 11.11 10.223.716.364 1.214 1.049 1.338 1.842l1.704 10.866c.757 4.825-.629 9.72-3.804 13.432-3.173 3.712-7.795 5.84-12.679 5.84zm-10.072-27.883-1.472 9.386c-.53 3.379.441 6.808 2.664 9.407 2.224 2.599 5.46 4.09 8.881 4.09s6.657-1.491 8.88-4.09 3.194-6.028 2.664-9.407l-1.512-9.642c-4.435-2.527-7.807-6.066-9.817-8.53-2.082 2.548-5.621 6.248-10.288 8.786z"/><path d="m140.664 136.365c-.562 0-1.122-.189-1.579-.562-.822-.67-1.133-1.786-.774-2.784.673-1.872.859-3.804.555-5.742l-1.522-9.706c-.912-.749-1.192-2.062-.604-3.134.663-1.21 2.182-1.654 3.394-.99l.001.001c4.33 2.377 8.711 2.895 13.026 1.539.916-.287 1.917-.025 2.574.677s.853 1.718.505 2.613c-2.953 7.604-8.021 13.897-14.273 17.72-.402.247-.853.368-1.303.368zm2.111-16.431 1.03 6.569c.085.543.144 1.087.175 1.629 2.171-2.104 4.074-4.615 5.625-7.43-2.284.135-4.562-.121-6.83-.768z"/><path d="m113.771 135.778c-.484 0-.968-.14-1.39-.422-5.721-3.827-10.405-9.853-13.19-16.967-.348-.888-.16-1.896.485-2.6.644-.704 1.632-.978 2.547-.71 3.94 1.157 7.95.749 11.913-1.213 1.237-.613 2.736-.107 3.349 1.129.417.841.317 1.804-.178 2.527l-1.53 9.755c-.278 1.775-.149 3.545.383 5.26.314 1.011-.043 2.111-.893 2.744-.443.331-.969.497-1.496.497zm-7.982-15.066c1.383 2.509 3.047 4.784 4.927 6.739.031-.316.072-.632.122-.949l1.012-6.453c-2.014.529-4.033.75-6.061.663z"/><path d="m148.36 58.428c-1.377 0-2.496-1.114-2.5-2.492-.008-2.482.951-4.818 2.7-6.579 1.75-1.76 4.08-2.734 6.562-2.742h.031c2.47 0 4.794.958 6.547 2.7 1.761 1.749 2.734 4.079 2.743 6.561.004 1.381-1.111 2.504-2.492 2.508-.003 0-.006 0-.008 0-1.377 0-2.496-1.114-2.5-2.492-.004-1.146-.454-2.223-1.267-3.03-.813-.808-1.882-1.256-3.038-1.247-1.146.003-2.223.453-3.031 1.267-.808.813-1.251 1.892-1.247 3.038.004 1.381-1.111 2.504-2.492 2.508-.002 0-.005 0-.008 0z"/><path d="m106.888 58.406c-1.381 0-2.5-1.119-2.5-2.5 0-2.366-1.925-4.291-4.292-4.291s-4.291 1.925-4.291 4.291c0 1.381-1.119 2.5-2.5 2.5s-2.5-1.119-2.5-2.5c0-5.123 4.168-9.291 9.291-9.291 5.124 0 9.292 4.168 9.292 9.291 0 1.381-1.119 2.5-2.5 2.5z"/><path d="m115.755 139.787c-.149 0-.3-.013-.45-.041-20.103-3.675-35.61-16.198-39.508-31.906-.246-.99.135-2.03.961-2.628.827-.599 1.934-.633 2.797-.09 4.245 2.672 9.659 4.943 16.092 6.749.281.079.546.206.783.376 1.146.824 2.412 1.535 3.761 2.113.61.262 1.255.49 2.032.718.742.218 1.341.767 1.624 1.487 2.416 6.172 6.435 11.369 11.314 14.633.476.318.828.791.998 1.337.366 1.179.916 2.29 1.634 3.302.588.829.616 1.932.07 2.79-.464.731-1.264 1.16-2.108 1.16zm-32.924-27.241c4.646 9.365 14.36 16.895 26.722 20.668-4.151-3.53-7.587-8.272-9.905-13.708-.5-.172-.968-.353-1.427-.55-1.54-.66-2.999-1.462-4.34-2.388-4.061-1.16-7.756-2.505-11.05-4.022z"/><path d="m138.841 139.846c-.849 0-1.653-.433-2.115-1.168-.542-.861-.508-1.964.085-2.79.623-.867 1.127-1.832 1.5-2.869.193-.536.562-.99 1.048-1.287 5.322-3.255 9.663-8.676 12.22-15.264.275-.708.856-1.252 1.581-1.48.668-.21 1.215-.409 1.724-.627 1.351-.579 2.617-1.29 3.762-2.112.237-.171.502-.298.783-.377 6.362-1.786 11.723-4.021 15.934-6.644.866-.538 1.972-.499 2.795.103.824.601 1.2 1.642.951 2.631-3.976 15.763-19.61 28.263-39.831 31.846-.146.025-.292.038-.437.038zm16.955-20.471c-2.281 5.403-5.645 10.092-9.739 13.629 12.002-3.824 21.427-11.208 26.005-20.371-3.245 1.48-6.879 2.796-10.867 3.935-1.341.925-2.799 1.728-4.341 2.389-.34.145-.688.283-1.058.418z"/><path d="m233.019 150.657-3.171-2.035c-.323-.207-.383-.649-.137-.943 15.061-18.009 8.359-38.412 6.992-42.028-.121-.32-.469-.481-.794-.374l-2.806.924c-.363.12-.743-.113-.818-.488-3.18-15.854-15.307-20.393-19.083-21.436-.492-.136-.922.332-.764.817 10.528 32.294-11.219 56.389-24.338 67.421.145 1.31.274 2.636.385 3.978 8.776-.085 17.431 1.993 22.347 8.954 14.25-4.857 20.714-11.848 22.344-13.856.238-.297.163-.729-.157-.934z" fill="#eaa250"/><path d="m210.831 167.946c-.796 0-1.564-.381-2.042-1.058-3.766-5.333-10.572-7.997-20.28-7.896-.008 0-.016 0-.024 0-1.298 0-2.383-.996-2.491-2.292-.11-1.319-.236-2.623-.379-3.911-.092-.83.237-1.651.876-2.188 13.094-11.011 33.568-34.063 23.57-64.733-.36-1.106-.086-2.313.715-3.15.795-.832 1.98-1.158 3.092-.851 3.856 1.065 16.336 5.679 20.401 21.318l.86-.283c1.598-.529 3.318.292 3.913 1.864 1.506 3.984 8.083 24.302-6.097 42.873l1.425.915c.753.483 1.266 1.265 1.407 2.146.141.877-.1 1.776-.66 2.467-1.749 2.155-8.611 9.58-23.479 14.647-.266.088-.538.132-.807.132zm-20.061-13.927c9.376.313 16.399 3.155 20.925 8.468 9.937-3.663 15.53-8.279 18.127-10.911l-1.324-.85c-.756-.485-1.267-1.272-1.402-2.16-.136-.892.119-1.8.698-2.493 12.583-15.046 9.038-31.82 7.15-37.848l-1.06.349c-.848.28-1.777.182-2.549-.268-.777-.452-1.325-1.218-1.502-2.102-2.235-11.146-9.309-16.154-13.963-18.288 3.541 13.575 2.032 27.009-4.501 39.984-5.697 11.312-14.179 20.075-20.645 25.661.015.153.03.305.046.458z"/><path d="m143.377 247.3c.321-1.873.822-3.889 1.607-5.613 1.25-2.747 1.971-5.682 1.971-8.674v-57.121c0-6.868-3.924-12.85-9.755-16.088-2.918-1.343-6.181-2.119-9.631-2.17-3.45.051-6.713.827-9.631 2.17-5.83 3.237-9.755 9.22-9.755 16.088v57.121c0 2.992.721 5.927 1.971 8.674.784 1.724 1.286 3.74 1.607 5.613.068.395.086.784.064 1.165 4.898 1.758 10.196 2.743 15.744 2.743s10.847-.984 15.744-2.743c-.022-.381-.004-.771.064-1.165z" fill="#f4dbce"/><path d="m196.712 237.78 12.439-29.471c15.293-42.919-2.454-51.994-20.671-51.817 1.828 22.015-1.075 48.161-15.846 74.176-1.763 3.105-.917 6.942 1.954 9.185 1.8 1.407 3.755 3.182 5.349 5.237 2.397 3.088.526 7.303-3.108 8.22l.187.188h37.318c4.147-17.682-17.622-15.718-17.622-15.718z" fill="#eaa250"/><path d="m75.2 245.09c1.595-2.055 3.549-3.83 5.349-5.237 2.871-2.243 3.717-6.08 1.954-9.185-14.772-26.014-17.674-52.161-15.846-74.176-18.216-.177-35.963 8.898-20.671 51.817l12.439 29.471s-21.769-1.965-17.622 15.718h37.318l.187-.188c-3.634-.917-5.505-5.132-3.108-8.22z" fill="#eaa250"/><path d="m176.426 108.282c-4.12 14.386-18.828 25.74-37.584 29.064v-.001c-2.556 3.56-6.721 5.928-11.521 5.928-4.827 0-9.015-2.394-11.567-5.987-18.471-3.376-32.96-14.552-37.167-28.716-8.561 20.061-24.907 71.338 3.916 122.097 1.763 3.105.917 6.942-1.954 9.185-1.8 1.407-3.755 3.182-5.349 5.237-2.703 3.483.016 8.408 4.579 8.408h26.44c3.472 0 6.098-2.951 5.542-6.198-.321-1.873-.822-3.889-1.607-5.613-1.25-2.747-1.971-5.682-1.971-8.674v-57.121c0-10.209 8.653-18.492 19.386-18.65 10.733.159 19.386 8.441 19.386 18.65v57.121c0 2.992-.721 5.927-1.971 8.674-.784 1.724-1.286 3.74-1.607 5.613-.556 3.248 2.07 6.198 5.542 6.198h26.44c4.562 0 7.282-4.925 4.579-8.408-1.595-2.055-3.549-3.83-5.349-5.237-2.871-2.243-3.717-6.08-1.954-9.185 28.964-51.009 12.316-102.536 3.791-122.385z" fill="#eaa250"/><path d="m214.334 255.999h-37.318c-.667 0-1.305-.266-1.775-.739l-.187-.188c-.632-.637-.874-1.565-.634-2.43s.926-1.535 1.797-1.754c1.006-.254 1.832-.993 2.153-1.927.197-.572.286-1.442-.408-2.336-1.257-1.619-2.91-3.234-4.914-4.8-3.862-3.018-4.951-8.228-2.589-12.389 12.486-21.988 17.711-46.46 15.529-72.734-.058-.692.175-1.377.644-1.891s1.128-.809 1.823-.816c11.407-.112 19.605 3.228 24.376 9.924 6.542 9.182 6.096 24.4-1.326 45.232-.016.045-.033.089-.052.133l-10.969 25.988c4.054.232 10.226 1.327 13.896 5.55 2.871 3.305 3.674 7.763 2.388 13.25-.265 1.128-1.273 1.927-2.434 1.927zm-31.39-5h29.31c.371-2.929-.172-5.195-1.641-6.892-3.322-3.836-11.005-4.069-13.681-3.836-.862.079-1.724-.311-2.24-1.019-.516-.709-.625-1.636-.284-2.443l12.412-29.405c6.82-19.167 7.472-32.822 1.94-40.586-3.41-4.786-9.32-7.396-17.585-7.779 1.689 26.255-3.812 50.755-16.367 72.864-1.146 2.019-.604 4.479 1.319 5.98 2.329 1.82 4.275 3.729 5.785 5.674 1.588 2.046 2.021 4.609 1.187 7.031-.048.139-.099.275-.155.411z"/><path d="m78.122 255.999h-37.319c-1.161 0-2.169-.799-2.434-1.929-1.287-5.487-.483-9.944 2.388-13.25 3.669-4.224 9.842-5.318 13.896-5.55l-10.969-25.988c-.019-.044-.036-.088-.052-.133-7.422-20.832-7.869-36.051-1.326-45.232 4.771-6.695 12.941-10.03 24.376-9.924.695.007 1.355.302 1.823.816s.701 1.199.644 1.891c-2.182 26.274 3.043 50.746 15.529 72.734 2.363 4.161 1.274 9.372-2.589 12.39-2.003 1.565-3.657 3.181-4.914 4.8-.694.895-.605 1.765-.408 2.336.322.935 1.147 1.673 2.153 1.927.871.22 1.557.89 1.797 1.754.24.865-.001 1.793-.634 2.43l-.187.188c-.469.473-1.108.74-1.774.74zm-35.238-5h29.31c-.055-.135-.106-.272-.154-.411-.834-2.422-.402-4.985 1.187-7.031 1.509-1.944 3.456-3.854 5.784-5.673 1.923-1.503 2.466-3.962 1.32-5.981-12.555-22.109-18.056-46.609-16.367-72.864-8.267.382-14.175 2.993-17.585 7.779-5.532 7.764-4.88 21.418 1.94 40.586l12.412 29.405c.341.809.233 1.737-.284 2.446s-1.37 1.098-2.244 1.016c-2.677-.233-10.355.001-13.677 3.837-1.47 1.696-2.013 3.961-1.642 6.891z"/><path d="m127.569 253.708c-5.667 0-11.248-.972-16.589-2.89-1.044-.375-1.716-1.393-1.651-2.5.012-.201.001-.402-.033-.598-.343-2.002-.82-3.685-1.418-4.999-1.457-3.201-2.195-6.468-2.195-9.709v-57.122c0-7.49 4.231-14.492 11.041-18.273.055-.031.111-.059.168-.085 3.338-1.537 6.917-2.344 10.639-2.399 3.796.055 7.375.862 10.713 2.399.057.026.113.055.168.085 6.81 3.782 11.041 10.784 11.041 18.273v57.122c0 3.241-.739 6.508-2.195 9.709-.598 1.313-1.075 2.996-1.418 4.999-.034.196-.044.397-.033.598.065 1.107-.607 2.125-1.651 2.5-5.339 1.918-10.92 2.89-16.587 2.89zm-13.388-7.083c8.67 2.767 18.106 2.767 26.776 0 .414-2.319 1.002-4.328 1.751-5.974 1.159-2.546 1.746-5.116 1.746-7.638v-57.122c0-5.645-3.211-10.946-8.387-13.856-2.677-1.218-5.548-1.858-8.536-1.902-2.915.044-5.786.685-8.462 1.902-5.175 2.911-8.387 8.211-8.387 13.856v57.122c0 2.522.587 5.092 1.746 7.638.75 1.645 1.339 3.654 1.753 5.974z"/><path d="m175.359 255.999h-26.44c-2.453 0-4.747-1.052-6.293-2.886-1.469-1.742-2.093-4.014-1.713-6.235.416-2.427 1.02-4.522 1.796-6.227 1.159-2.546 1.746-5.116 1.746-7.638v-57.122c0-8.768-7.591-16.013-16.922-16.15-9.258.138-16.849 7.383-16.849 16.15v57.122c0 2.522.587 5.092 1.746 7.638.776 1.705 1.38 3.8 1.796 6.227.38 2.221-.244 4.493-1.713 6.235-1.547 1.834-3.84 2.886-6.293 2.886h-26.44c-3.183 0-6.008-1.73-7.372-4.515-1.292-2.639-.986-5.602.818-7.927 1.51-1.944 3.456-3.854 5.784-5.673 1.923-1.503 2.466-3.962 1.32-5.981-29.42-51.812-12.627-104.196-4.042-124.313.414-.969 1.399-1.568 2.442-1.515 1.052.061 1.954.774 2.253 1.784 3.917 13.188 17.742 23.773 35.221 26.968.641.118 1.211.48 1.589 1.012 2.226 3.136 5.699 4.935 9.528 4.935 3.801 0 7.26-1.781 9.49-4.886.38-.53.953-.89 1.595-1.003 17.791-3.152 31.771-13.865 35.616-27.291.291-1.016 1.19-1.74 2.245-1.807 1.051-.065 2.038.537 2.455 1.508 8.655 20.151 25.6 72.631-3.914 124.607-1.146 2.019-.604 4.479 1.319 5.98 2.329 1.82 4.275 3.729 5.785 5.674 1.805 2.325 2.11 5.288.818 7.927-1.363 2.786-4.188 4.516-7.371 4.516zm-47.827-101.257c12.121.177 21.922 9.665 21.922 21.149v57.122c0 3.241-.739 6.508-2.195 9.709-.598 1.314-1.075 2.996-1.418 5-.133.776.083 1.546.606 2.168.594.705 1.495 1.109 2.471 1.109h26.44c1.505 0 2.475-.885 2.881-1.714.258-.528.566-1.576-.277-2.662-1.257-1.619-2.91-3.234-4.914-4.8-3.862-3.018-4.951-8.228-2.589-12.389 25.949-45.697 14.529-91.933 5.985-114.429-6.164 12.115-19.658 21.435-36.206 24.625-3.158 3.865-7.914 6.144-12.918 6.144-5.042 0-9.819-2.304-12.977-6.211-16.241-3.226-29.561-12.43-35.739-24.328-8.473 22.442-19.809 68.62 6.072 114.199 2.363 4.161 1.274 9.372-2.589 12.39-2.003 1.565-3.657 3.181-4.914 4.8-.843 1.086-.535 2.134-.277 2.662.406.829 1.375 1.714 2.881 1.714h26.44c.976 0 1.877-.404 2.471-1.109.524-.622.74-1.392.606-2.168-.343-2.003-.82-3.686-1.418-5-1.457-3.201-2.195-6.468-2.195-9.709v-57.122c.002-11.485 9.803-20.973 21.851-21.15z"/></svg>