<?xml version="1.0"?>
<svg xmlns="http://www.w3.org/2000/svg" height="512px" viewBox="0 -23 512 512" width="512px"><g><path d="m217.613281 342.492188 26.875-74.492188h-40.175781c-15.476562 0-25.25-16.410156-17.71875-29.832031l46.082031-82.167969h70.984375l-36.59375 59h46.316406c12.578126 0 19.195313 14.8125 11 24.289062l-94.414062 108.011719c-1.710938 1.703125-4.304688 2.6875-6.757812 2.699219-3.5.015625-6.226563-1.855469-6.210938-5 .003906-.757812.195312-1.59375.613281-2.507812zm253.945313-305.980469c-23.96875-23.886719-57.703125-36.511719-97.558594-36.511719-54.457031 0-88.847656 25.96875-108.109375 47.753906-3.511719 3.972656-6.644531 7.933594-9.4375 11.78125-2.679687-3.800781-5.691406-7.707031-9.082031-11.625-18.925782-21.855468-53.261719-47.910156-109.371094-47.910156-39.855469 0-73.589844 12.625-97.558594 36.511719-26.835937 26.746093-40.441406 65.828125-40.441406 116.15625 0 48.855469 28.574219 107.472656 84.933594 174.222656 42.980468 50.910156 95.484375 98.003906 130.292968 125.105469 12.003907 9.347656 26.386719 14.019531 40.773438 14.019531 14.382812 0 28.769531-4.675781 40.773438-14.019531 11.582031-9.015625 35.335937-28.242188 64.300781-55.679688 8.019531-7.59375 8.363281-20.253906.765625-28.273437s-20.253906-8.359375-28.273438-.765625c-27.742187 26.277344-50.351562 44.582031-61.367187 53.15625-9.539063 7.425781-22.859375 7.429687-32.398438 0-33.214843-25.859375-83.308593-70.789063-124.304687-119.34375-49.390625-58.5-75.496094-109.820313-75.496094-148.421875 0-93.121094 53.292969-112.667969 98-112.667969 71.136719 0 94.351562 55.066406 98.242188 65.957031 2.757812 10.042969 9.71875 17.042969 19.757812 17.042969 9.882812 0 17-7 19.6875-16.59375 4.464844-11.335938 29.679688-66.40625 98.3125-66.40625 44.707031 0 98 19.546875 98 112.667969 0 37.304687-24.359375 85.609375-72.398438 143.570312-7.046874 8.503907-5.867187 21.109375 2.636719 28.160157 3.730469 3.09375 8.253907 4.601562 12.75 4.601562 5.75 0 11.457031-2.464844 15.410157-7.238281 54.910156-66.246094 81.601562-121.558594 81.601562-169.09375 0-50.328125-13.605469-89.410157-40.441406-116.15625zm0 0" data-original="#000000" class="active-path" data-old_color="#000000" fill="#6334DC"/></g> </svg>
