<svg enable-background="new 0 0 256 256" height="512" viewBox="0 0 256 256" width="512" xmlns="http://www.w3.org/2000/svg"><g fill="#f76e23"><path d="m97.141 186.039c-94.149-2.14-89.301-39.834-89.301-39.834-1.187-.668-2.285-1.468-3.243-2.426-7.489-7.489 7.489-16.048 7.489-16.048s8.29-20.45 38.378-31.953c25.552-9.769 54.067-7.803 78.514 4.473 5.337 2.68 11.172 5.92 17.377 9.827 19.34 12.177 34.363 16.201 42.181 17.531 3.423.582 6.939-.203 9.748-2.243 9.022-6.551 32.112-21.164 46.498-11.009 17.876 12.619 10.948 93.452-46.184 53.549-2.21-1.543-4.822-2.397-7.517-2.385-6.957.032-21.331 1.33-38.308 9.818-21.396 10.7-55.632 10.7-55.632 10.7z"/><path d="m244.783 114.358c-14.387-10.155-37.476 4.458-46.498 11.009-2.775 2.015-6.239 2.8-9.621 2.258.027.543 23.721 15.179 1.751 37.908 2.86-.047 5.48.486 8.184 2.374 57.131 39.904 64.06-40.931 46.184-53.549z"/><path d="m169.821 168.715c-5.201 1.468-10.952 3.577-17.047 6.625-4.127 2.063-8.733 3.726-13.478 5.07 23.088 23.652 43.906 7.615 34.028-7.452-1.008-1.538-2.222-2.919-3.503-4.243z"/><path d="m146.355 110.078c15.212 9.578 27.735 14.101 36.2 16.247 8.454-9.216 6.443-20.704-.532-25.195-9.064-5.837-27.008.493-37.812 7.617.71.436 1.424.878 2.144 1.331z"/><path d="m128.978 100.251c1.755.881 3.568 1.829 5.426 2.836 2.428-2.441 4.591-5.11 6.26-8.128 10.116-18.293-3.557-38.903-33.1-28.651-13.37 4.64-25.404 13.033-34.438 23.921 18.988-2.225 38.45 1.284 55.852 10.022z"/></g><path d="m244.783 114.358c-3.954-2.791-8.566-3.703-13.361-3.434.65.448 1.277.93 1.865 1.463 2.508 2.272 4.304 5.603 3.879 8.961-.445 3.513-3.187 6.481-3.335 10.019-.158 3.784 2.633 6.951 5.041 9.874s4.711 6.717 3.433 10.282c-1.595 4.449-7.682 5.601-10.071 9.679-1.594 2.721-1.195 6.127-1.905 9.199-.791 3.423-3.064 6.476-6.117 8.215-.087.05-.178.092-.267.14 33.44 3.035 35.61-53.971 20.838-64.398z" fill="#52565b"/><path d="m106.39 134.824c4.133 7.285-2.924 8.702-2.954 12.798-.017 2.287 3.237 6.542 1.003 10.942-2.989 5.886-11.007 3.881-13.922 5.641 3.114 4.762 5.288 7.263 8.519 8.489 4.734 1.796 10.273-.409 13.681-4.154s5.078-8.733 6.302-13.646c4.669-18.736-.551-21.201-12.629-20.07z" fill="#52565b"/><path d="m182.555 126.325c8.454-9.216 6.443-20.704-.532-25.195-3.721-2.396-8.939-2.739-14.544-1.822 2.655 1.411 7.394 5.363 7.272 8.391-.085 2.116-2.134 3.931-1.747 6.013.511 2.751 5.337 3.962 3.124 10.732 2.34.77 4.494 1.391 6.427 1.881z" fill="#52565b"/><path d="m169.821 168.715c-1.049.296-2.126.626-3.219.977 4.035 10.937-3.558 6.157-3.748 10.932-.105 2.658 2.419 6.751-2.391 11.687 12.893 1.262 21.837-10.708 9.358-23.596z" fill="#52565b"/><path d="m109.802 65.591c8.288 2.612 7.606 8.578 8.95 10.693 2.136 3.36 7.38 2.088 10.973 3.801 3.788 1.806 5.054 6.858 3.914 10.896-.955 3.382-3.165 6.209-5.523 8.857 1.622.794 3.203 1.578 6.287 3.248 20.088-20.194 6.928-47.033-24.601-37.495z" fill="#52565b"/><path d="m47.255 179.973c8.366 2.215 18.501 3.985 30.776 5.049-7.409-22.37 6.255-49.176-7.152-69.244-5.097-7.629-13.752-13.062-17.907-20.915-3.639 1.273-7.238 2.777-10.879 4.606 3.012 7.576 10.146 13.498 14.392 20.764 4.226 7.233 5.518 16.125 3.524 24.262-2.938 11.985-11.319 19.417-12.754 35.478z" fill="#e3e4e5"/><path d="m175.659 167.266c3.271-15.005-6.72-20.727 3.834-41.772-6.352-1.848-14.503-4.944-24.009-10.085-.511 2.733-1.343 5.406-2.524 7.923-5.552 11.828-15.75 17.775-3.18 40.359 1.905 3.423 3.985 6.821 5.765 10.324 7.41-3.43 14.258-5.511 20.114-6.749z" fill="#e3e4e5"/><path d="m126.231 139.513c3.698-11.687 11.58-20.077 13.997-33.148-10.678-6.237-19.714-10.605-30.976-13.554-13.992 34.361-15.801 37.79-16.332 43.749.347-.032.691-.07 1.024-.115 20.578-2.792 31.126-5.834 25.075 18.451-1.224 4.913-2.894 9.902-6.302 13.646-2.115 2.324-5.051 4.053-8.105 4.603 1.126 3.821 1.87 7.941 1.9 12.517 7.958-.525 19.851-1.786 31.184-4.81-8.796-3.898-17.336-22.785-11.465-41.339z" fill="#e3e4e5"/><path d="m31.586 133.872c-1.377 0-2.496-1.114-2.5-2.492-.016-4.891 3.951-8.883 8.841-8.899h.027c4.879 0 8.856 3.961 8.872 8.843.004 1.381-1.111 2.503-2.492 2.508-.002 0-.005 0-.008 0-1.377 0-2.496-1.114-2.5-2.492-.007-2.13-1.742-3.858-3.871-3.858-.004 0-.008 0-.012 0-2.134.007-3.864 1.749-3.857 3.884.004 1.381-1.111 2.503-2.492 2.508-.003-.002-.006-.002-.008-.002z"/><path d="m97.141 188.539c-.019 0-.038 0-.057-.001-29.583-.672-68.306-5.498-84.789-24.671-5.94-6.91-6.901-13.334-6.987-16.288-.912-.615-1.742-1.296-2.478-2.032-2.733-2.732-3.006-5.548-2.754-7.429.79-5.896 7.672-10.647 10.055-12.129.843-1.765 3.228-6.23 7.995-11.583 5.507-6.185 15.434-14.841 31.446-20.963 25.768-9.851 55.121-8.185 80.529 4.573 5.872 2.949 11.789 6.296 17.586 9.946 19.241 12.114 34.115 15.965 41.269 17.182 2.769.473 5.634-.184 7.86-1.801 9.638-6.998 33.746-22.086 49.409-11.028 12.345 8.714 13.226 41.027 1.571 57.625-6.224 8.867-21.077 20.656-50.628.017-1.826-1.276-3.956-1.979-6.074-1.935-6.821.031-20.724 1.314-37.202 9.555-21.676 10.837-55.33 10.962-56.751 10.962zm-12.848-96.45c-11.234 0-22.4 1.997-32.937 6.024-28.592 10.932-36.876 30.369-36.956 30.564-.212.515-.591.949-1.074 1.226-1.997 1.146-7.812 5.243-8.295 8.884-.095.717-.061 1.83 1.334 3.226.752.752 1.661 1.43 2.7 2.014.888.5 1.384 1.488 1.254 2.499-.027.251-.66 6.741 5.949 14.292 8.506 9.719 29.444 21.549 80.899 22.723 1.119-.005 34.127-.254 54.489-10.435 17.387-8.693 32.158-10.049 39.415-10.082 3.146-.035 6.284.966 8.96 2.835 19.542 13.65 34.645 14.068 43.673 1.21 10.744-15.301 8.907-44.123-.363-50.668-13.384-9.447-36.747 6.024-43.587 10.99-3.308 2.402-7.549 3.378-11.637 2.685-7.52-1.279-23.119-5.304-43.094-17.881-5.662-3.564-11.438-6.831-17.167-9.708-13.752-6.907-28.715-10.398-43.563-10.398z"/><path d="m22.961 151.916c-4.577 0-11.151-.609-16.347-3.532-1.204-.677-1.63-2.201-.953-3.404.676-1.203 2.2-1.63 3.404-.953 7.278 4.093 18.624 2.64 18.738 2.624 1.374-.18 2.626.779 2.809 2.148.183 1.368-.779 2.626-2.147 2.809-.215.028-2.401.308-5.504.308z"/><path d="m226.506 181.425c-7.591 0-17.229-3.012-29.338-11.469-1.995-1.394-3.995-1.976-6.711-1.923-1.035.007-1.933-.577-2.335-1.505-.402-.927-.207-2.006.496-2.732 6.06-6.27 8.955-12.386 8.604-18.18-.494-8.174-7.246-13.653-9.464-15.453-.823-.668-1.534-1.245-1.592-2.414-.037-.753.267-1.482.829-1.985s1.319-.724 2.064-.607c2.778.448 5.534-.198 7.757-1.812 9.638-6.999 33.745-22.085 49.409-11.028 12.345 8.714 13.226 41.027 1.571 57.625-3.674 5.231-10.357 11.483-21.29 11.483zm-31.093-17.784c1.638.463 3.157 1.196 4.618 2.216 19.544 13.651 34.646 14.07 43.674 1.211 10.744-15.302 8.908-44.123-.363-50.668-13.384-9.447-36.747 6.024-43.587 10.99-1.53 1.111-3.227 1.914-5.015 2.391 4.631 4.812 7.141 10.02 7.474 15.535.364 6.051-1.921 12.201-6.801 18.325z"/><path d="m226.508 181.373c-.914 0-1.843-.043-2.788-.128-1.098-.101-2-.907-2.223-1.986-.222-1.08.289-2.178 1.258-2.702l.177-.092c2.489-1.416 4.328-3.885 4.961-6.627.217-.938.318-1.965.425-3.051.214-2.168.456-4.626 1.758-6.85 1.394-2.38 3.648-3.881 5.637-5.205 1.963-1.308 3.658-2.437 4.238-4.054.696-1.94-.316-4.582-3.009-7.849l-.358-.434c-2.425-2.932-5.442-6.581-5.252-11.135.1-2.372 1.067-4.435 1.921-6.253.654-1.394 1.272-2.71 1.432-3.975.336-2.65-1.37-5.247-3.077-6.795-.467-.424-.992-.834-1.605-1.257-.88-.606-1.277-1.705-.988-2.734.289-1.028 1.199-1.761 2.267-1.82 5.796-.316 10.826.982 14.942 3.887v.001c9.841 6.946 12.913 30.455 6.319 48.373-4.941 13.431-14.124 20.686-26.035 20.686zm11.291-67.451c1.502 2.441 2.174 5.156 1.847 7.74-.259 2.047-1.112 3.866-1.866 5.471-.717 1.528-1.395 2.971-1.452 4.338-.11 2.637 2.035 5.23 4.109 7.739l.364.44c3.946 4.788 5.208 8.947 3.857 12.716-1.138 3.174-3.813 4.955-6.173 6.527-1.688 1.125-3.283 2.187-4.094 3.571-.749 1.277-.918 2.995-1.097 4.813-.118 1.195-.24 2.433-.529 3.685-.413 1.788-1.17 3.497-2.197 5.028 6.313-1.197 13.051-5.529 17.283-17.03 6.195-16.834 2.698-37.473-4.511-42.562-1.639-1.156-3.492-1.983-5.541-2.476z"/><path d="m78.031 187.521c-.072 0-.144-.003-.216-.01-11.693-1.013-22.191-2.736-31.201-5.122-1.177-.312-1.958-1.427-1.85-2.64.896-10.014 4.44-16.99 7.568-23.146 2.12-4.173 4.123-8.114 5.248-12.705 1.848-7.537.661-15.704-3.254-22.406-1.691-2.894-3.963-5.681-6.161-8.375-3.201-3.926-6.51-7.984-8.396-12.726-.479-1.205.042-2.576 1.201-3.158 3.625-1.82 7.28-3.368 11.176-4.731 1.166-.41 2.457.097 3.036 1.19 2.088 3.947 5.477 7.295 9.064 10.839 3.076 3.039 6.256 6.181 8.711 9.856 8.008 11.986 6.945 26.116 5.916 39.78-.767 10.193-1.561 20.733 1.531 30.066.265.799.11 1.676-.412 2.336-.476.606-1.2.952-1.961.952zm-28.05-9.431c7.302 1.802 15.571 3.177 24.653 4.102-2.19-9.231-1.458-18.956-.747-28.397 1.009-13.409 1.963-26.075-5.087-36.628-2.174-3.253-5.17-6.214-8.068-9.077-3.181-3.143-6.456-6.378-8.867-10.166-2.217.831-4.361 1.733-6.479 2.726 1.674 3.201 4.106 6.185 6.655 9.31 2.318 2.843 4.715 5.783 6.603 9.013 4.564 7.812 5.947 17.333 3.793 26.118-1.263 5.152-3.492 9.538-5.647 13.78-2.822 5.553-5.733 11.281-6.809 19.219z"/><path d="m155.545 176.516c-.913 0-1.791-.503-2.23-1.368-1.139-2.243-2.44-4.504-3.699-6.69-.681-1.184-1.361-2.365-2.021-3.55-10.764-19.339-5.516-27.963-.441-36.303 1.224-2.012 2.489-4.091 3.542-6.335 1.061-2.26 1.845-4.723 2.33-7.319.147-.785.66-1.453 1.381-1.798.722-.343 1.563-.321 2.266.058 8.078 4.369 15.99 7.694 23.518 9.884.712.207 1.296.721 1.593 1.4.297.681.276 1.457-.057 2.121-6.065 12.094-4.978 18.574-3.826 25.435.777 4.63 1.581 9.416.2 15.749-.21.962-.963 1.71-1.926 1.914-6.572 1.389-13.161 3.6-19.582 6.57-.339.156-.696.232-1.048.232zm1.634-57.387c-.518 1.831-1.172 3.594-1.957 5.266-1.168 2.487-2.505 4.685-3.797 6.809-4.922 8.089-8.81 14.478.538 31.272.647 1.163 1.316 2.324 1.985 3.487.904 1.57 1.829 3.177 2.714 4.81 5.541-2.411 11.192-4.286 16.848-5.591.745-4.648.119-8.378-.54-12.304-1.097-6.536-2.331-13.887 3.023-25.843-6.1-1.967-12.407-4.616-18.814-7.906zm18.48 48.138h.01z"/><path d="m106.512 188.161c-.63 0-1.239-.238-1.703-.669-.504-.47-.793-1.126-.797-1.814-.025-3.939-.614-7.809-1.798-11.827-.201-.682-.103-1.416.271-2.021s.986-1.021 1.685-1.147c2.446-.439 4.888-1.834 6.699-3.824 3.147-3.459 4.66-8.294 5.725-12.568 2.05-8.226 2.147-13.441.289-15.504-2.428-2.696-9.679-1.676-18.86-.385-1.208.17-2.455.346-3.742.521-.366.05-.749.093-1.136.128-.736.072-1.467-.198-1.991-.722-.524-.523-.789-1.253-.723-1.99.472-5.294 1.772-8.469 10.233-29.12 1.758-4.292 3.831-9.35 6.274-15.35.474-1.163 1.737-1.792 2.949-1.476 11.968 3.134 21.29 7.788 31.604 13.812.91.532 1.389 1.577 1.198 2.613-1.455 7.867-4.767 14.072-7.97 20.073-2.361 4.423-4.591 8.601-6.102 13.375-5.446 17.209 2.25 34.822 10.094 38.298.969.43 1.562 1.424 1.479 2.481s-.823 1.946-1.848 2.22c-11.519 3.074-23.577 4.356-31.665 4.89-.055.004-.111.006-.165.006zm1.157-13.274c.661 2.72 1.074 5.398 1.249 8.094 6.374-.504 14.602-1.46 22.889-3.275-5.507-5.427-9.553-15.238-9.941-25.959-.131.57-.271 1.154-.42 1.753-1.216 4.879-2.983 10.444-6.878 14.725-1.903 2.088-4.327 3.713-6.899 4.662zm3.013-42.789c4.32 0 7.661.839 9.916 3.342 1.362 1.513 2.192 3.464 2.496 6.013.221-.901.472-1.8.755-2.693 1.65-5.214 4.094-9.793 6.458-14.222 2.904-5.441 5.661-10.605 7.109-16.914-8.734-5.027-16.835-9.004-26.685-11.816-2.085 5.116-3.886 9.511-5.441 13.307-6.321 15.428-8.525 20.808-9.389 24.537.481-.067.956-.134 1.425-.2 5.136-.724 9.613-1.354 13.356-1.354z"/><path d="m102.614 175.847c-1.479 0-2.981-.251-4.465-.813-5.11-1.939-7.847-6.347-13.3-15.127-.925-1.489-1.938-3.12-3.063-4.904-.737-1.168-.387-2.712.78-3.448 1.168-.738 2.713-.388 3.448.78 1.133 1.796 2.151 3.437 3.082 4.935 5.01 8.068 7.297 11.75 10.826 13.09 3.961 1.502 8.452-.761 10.945-3.5 3.146-3.458 4.66-8.293 5.725-12.567 2.05-8.226 2.147-13.442.289-15.505-2.429-2.696-9.68-1.675-18.861-.385-1.207.17-2.455.346-3.742.521-1.903.258-6.361.861-8.814-2.383-.833-1.102-.614-2.67.487-3.502 1.101-.834 2.668-.616 3.502.486.458.607 1.855.755 4.153.443 1.278-.173 2.518-.348 3.717-.517 11.067-1.558 19.064-2.682 23.272 1.989 3.21 3.563 3.463 9.563.848 20.061-1.216 4.879-2.984 10.444-6.878 14.724-2.823 3.102-7.267 5.622-11.951 5.622z"/><path d="m162.374 194.96c-7.151 0-15.932-3.65-24.866-12.804-.616-.631-.854-1.539-.626-2.391s.886-1.521 1.734-1.761c4.959-1.405 9.347-3.054 13.041-4.9 5.667-2.833 11.55-5.119 17.486-6.795.884-.25 1.835.007 2.475.667 1.661 1.715 2.832 3.137 3.798 4.61 4.63 7.062 3.747 15.015-2.195 19.789-2.806 2.254-6.531 3.585-10.847 3.585zm-18.256-13.413c10.92 9.592 20.927 9.98 25.97 5.931 3.886-3.122 4.335-8.283 1.146-13.148-.584-.892-1.28-1.779-2.188-2.784-5.141 1.544-10.231 3.57-15.154 6.032-2.898 1.447-6.173 2.777-9.774 3.969z"/><path d="m182.555 128.825c-.205 0-.411-.025-.614-.076-8.113-2.057-21.103-6.598-36.918-16.556-.711-.447-1.417-.885-2.119-1.315-.728-.447-1.178-1.235-1.191-2.091-.014-.854.41-1.656 1.123-2.127 6.09-4.016 13.5-7.299 20.328-9.007 8.519-2.129 15.508-1.655 20.213 1.375 3.868 2.49 6.45 6.744 7.085 11.671.78 6.053-1.374 12.203-6.064 17.316-.481.523-1.152.81-1.843.81zm-33.601-20.072c13.752 8.484 25.136 12.687 32.725 14.757 3.005-3.752 4.358-8.026 3.824-12.171-.446-3.462-2.208-6.416-4.833-8.107-5.406-3.481-18.358-2.207-31.716 5.521z"/><path d="m134.403 105.587c-.406 0-.815-.099-1.19-.302-1.814-.983-3.616-1.925-5.356-2.8-17.062-8.566-35.886-11.947-54.44-9.774-1.014.105-2-.392-2.488-1.291-.487-.897-.379-2.002.273-2.789 9.416-11.348 21.706-19.884 35.542-24.686 14.787-5.131 27.819-3.2 34.862 5.164 6.035 7.167 6.512 17.535 1.246 27.06-1.651 2.985-3.835 5.824-6.676 8.681-.481.484-1.123.737-1.773.737zm-50.009-18.517c15.699 0 31.304 3.715 45.706 10.946l.001.001c1.246.626 2.521 1.285 3.81 1.968 1.893-2.066 3.395-4.118 4.566-6.236 4.24-7.667 3.973-15.875-.695-21.419-5.656-6.718-16.646-8.087-29.397-3.66-11.025 3.825-21.005 10.182-29.174 18.535 1.727-.09 3.456-.135 5.183-.135z"/><path d="m102.614 175.847c-1.479 0-2.981-.251-4.465-.813-3.955-1.501-6.469-4.482-9.724-9.459-.372-.567-.496-1.262-.345-1.924s.564-1.233 1.146-1.585c1.462-.883 3.349-1.08 5.346-1.29 3.791-.398 6.371-.846 7.639-3.343 1.041-2.05.288-4.191-.439-6.263-.434-1.236-.844-2.403-.835-3.565.018-2.392 1.416-4.069 2.539-5.416 1.619-1.942 2.51-3.013.742-6.131-.418-.737-.435-1.638-.042-2.39s1.139-1.254 1.983-1.333c5.658-.531 11.337-.502 14.569 3.257 3.086 3.591 3.301 9.544.719 19.907-1.216 4.879-2.983 10.444-6.878 14.725-2.827 3.103-7.271 5.623-11.955 5.623zm-7.961-10.052c1.971 2.645 3.438 3.868 5.27 4.563 3.963 1.498 8.452-.761 10.945-3.5 3.147-3.459 4.66-8.294 5.725-12.568 2.03-8.146 2.145-13.341.341-15.438-1.1-1.281-3.255-1.829-6.963-1.749.887 4.036-1.256 6.608-2.655 8.286-.738.886-1.375 1.65-1.38 2.253.003.306.32 1.21.553 1.871.871 2.48 2.187 6.229.18 10.184-2.594 5.109-7.999 5.677-11.575 6.052-.144.014-.291.029-.441.046z"/><path d="m182.555 128.825c-.204 0-.41-.025-.614-.076-2.1-.532-4.319-1.182-6.595-1.931-1.31-.432-2.023-1.842-1.594-3.152 1.063-3.251.119-4.366-1.189-5.91-.811-.958-1.73-2.044-2.017-3.588-.363-1.956.42-3.553 1.05-4.836.314-.642.64-1.305.657-1.733.053-1.31-3.171-4.606-5.948-6.083-.947-.503-1.468-1.555-1.293-2.613s1.004-1.888 2.062-2.061c6.828-1.119 12.312-.383 16.302 2.187 3.868 2.49 6.45 6.744 7.085 11.671.78 6.053-1.374 12.203-6.064 17.316-.48.522-1.151.809-1.842.809zm-3.466-6.065c.878.268 1.743.519 2.59.75 3.005-3.752 4.358-8.026 3.824-12.171-.446-3.462-2.208-6.416-4.833-8.107-1.678-1.08-3.883-1.701-6.519-1.854 1.788 1.906 3.189 4.176 3.099 6.422-.06 1.482-.672 2.731-1.165 3.734-.321.653-.684 1.394-.623 1.722.044.238.549.834.917 1.269 1.29 1.523 3.32 3.919 2.71 8.235z"/><path d="m162.323 194.902c-.691 0-1.393-.034-2.103-.104-.957-.094-1.774-.728-2.104-1.63-.33-.903-.113-1.915.558-2.604 2.756-2.828 2.37-5.021 1.962-7.344-.155-.879-.315-1.788-.279-2.696.138-3.47 2.744-4.457 3.996-4.932.311-.118.779-.295.894-.402-.01 0 .372-.943-.99-4.634-.235-.639-.2-1.347.098-1.959.298-.613.833-1.077 1.482-1.286 1.122-.361 2.229-.699 3.306-1.003.883-.25 1.835.007 2.475.667 6.325 6.532 8.297 13.709 5.41 19.692-2.478 5.134-8.117 8.235-14.705 8.235zm3.041-14.314c-.004.033-.009.078-.011.136-.015.372.093.984.207 1.632.312 1.774.766 4.354-.363 7.276 3.357-.657 6.045-2.48 7.327-5.136 1.61-3.337.722-7.469-2.417-11.624.692 3.912-.567 6.104-3.982 7.397-.244.092-.591.224-.761.319z"/><path d="m134.403 105.587c-.406 0-.815-.099-1.189-.302-2.991-1.62-4.515-2.379-6.196-3.202-.702-.344-1.203-.996-1.353-1.764s.066-1.561.586-2.145c2.1-2.356 4.156-4.941 4.984-7.872.805-2.853.045-6.706-2.584-7.96-1.039-.495-2.431-.678-3.905-.87-2.749-.359-6.169-.807-8.102-3.848-.518-.813-.782-1.749-1.063-2.739-.708-2.497-1.509-5.328-6.529-6.91-1.046-.33-1.755-1.303-1.749-2.399s.727-2.061 1.776-2.378c11.986-3.627 27.324-3.284 34.433 8.55 5.853 9.744 2.974 22.737-7.335 33.102-.482.484-1.124.737-1.774.737zm-2.33-6.565c.548.282 1.149.597 1.832.959 7.611-8.417 9.719-18.336 5.32-25.658-3.958-6.59-12.359-9.355-22.645-7.74 2.52 2.387 3.305 5.158 3.81 6.94.146.516.346 1.222.472 1.42.633.996 2.134 1.258 4.53 1.571 1.713.225 3.654.478 5.409 1.314 5.237 2.497 6.611 8.99 5.245 13.831-.789 2.797-2.276 5.197-3.973 7.363z"/></svg>