<svg height="512pt" viewBox="0 0 512 512" width="512pt" xmlns="http://www.w3.org/2000/svg"><path d="m492 351c11.046875 0 20-8.953125 20-20v-251c0-44.113281-35.886719-80-80-80h-352c-44.113281 0-80 35.886719-80 80v352c0 44.113281 35.886719 80 80 80h352c44.113281 0 80-35.886719 80-80 0-11.046875-8.953125-20-20-20s-20 8.953125-20 20c0 22.054688-17.945312 40-40 40h-156v-103.726562c13.519531 20.140624 31.835938 40.152343 56.679688 57.210937 3.457031 2.378906 7.398437 3.519531 11.304687 3.519531 6.367187 0 12.625-3.035156 16.503906-8.683594 6.25-9.101562 3.941407-21.554687-5.164062-27.808593-30.519531-20.957031-52.777344-49.933594-66.160157-86.128907-.015624-.042968-.03125-.089843-.050781-.136718 19.144531 12.59375 34.90625 18.753906 47.886719 18.753906 31.285156 0 57.835938-20.632812 66.777344-49h68.222656v55c0 11.046875 8.953125 20 20 20zm-412-311h156v176.019531c-.855469-.660156-1.714844-1.316406-2.589844-1.980469-25.871094-19.539062-46.285156-29.039062-62.410156-29.039062-32.011719 0-59.054688 21.609375-67.359375 51h-63.640625v-156c0-22.054688 17.945312-40 40-40zm140.714844 215c-3.5625 2.949219-7.527344 6.113281-11.699219 9.257812-26.761719 20.160157-36.941406 20.742188-38.015625 20.742188-16.542969 0-30-13.457031-30-30s13.457031-30 30-30c1.074219 0 11.253906.582031 38.015625 20.742188 4.171875 3.144531 8.132813 6.308593 11.699219 9.257812zm-140.714844 217c-22.054688 0-40-17.945312-40-40v-156h64.222656c8.941406 28.367188 35.496094 49 66.777344 49 14.160156 0 31.632812-7.328125 53.203125-22.351562-9.742187 28.042968-29.105469 63.484374-67.523437 89.867187-9.105469 6.25-11.417969 18.703125-5.164063 27.808594 3.875 5.644531 10.136719 8.679687 16.503906 8.679687 3.902344 0 7.84375-1.140625 11.304688-3.515625 24.839843-17.058593 43.15625-37.074219 56.675781-57.214843v103.726562zm257-187c-1.074219 0-11.253906-.582031-38.015625-20.742188-4.171875-3.144531-8.136719-6.308593-11.699219-9.257812 3.5625-2.949219 7.527344-6.113281 11.699219-9.257812 26.761719-20.160157 36.941406-20.742188 38.015625-20.742188 16.542969 0 30 13.457031 30 30s-13.457031 30-30 30zm67.359375-49c-8.304687-29.390625-35.347656-51-67.359375-51-15.828125 0-35.796875 9.160156-61 27.984375v-172.984375h156c22.054688 0 40 17.945312 40 40v156zm0 0"/></svg>