<?xml version="1.0" encoding="iso-8859-1"?>
<!-- Generator: Adobe Illustrator 19.0.0, SVG Export Plug-In . SVG Version: 6.00 Build 0)  -->
<svg version="1.1" id="Capa_1" xmlns="http://www.w3.org/2000/svg" xmlns:xlink="http://www.w3.org/1999/xlink" x="0px" y="0px"
	 viewBox="0 0 512 512" style="enable-background:new 0 0 512 512;" xml:space="preserve">
<g>
	<g>
		<path d="M309.5,358c11.046,0,20-8.954,20-20v-75c0-40.804-33.196-74-74-74s-74,33.196-74,74v175c0,40.804,33.196,74,74,74
			s74-33.196,74-74c0-11.046-8.954-20-20-20c-11.046,0-20,8.954-20,20c0,18.748-15.252,34-34,34s-34-15.252-34-34V263
			c0-18.748,15.252-34,34-34s34,15.252,34,34v75C289.5,349.046,298.454,358,309.5,358z"/>
	</g>
</g>
<g>
	<g>
		<path d="M256.5,0c-40.804,0-74,33.196-74,74s33.196,74,74,74s74-33.196,74-74S297.304,0,256.5,0z M256.5,108
			c-18.748,0-34-15.252-34-34s15.252-34,34-34s34,15.252,34,34S275.248,108,256.5,108z"/>
	</g>
</g>
<g>
</g>
<g>
</g>
<g>
</g>
<g>
</g>
<g>
</g>
<g>
</g>
<g>
</g>
<g>
</g>
<g>
</g>
<g>
</g>
<g>
</g>
<g>
</g>
<g>
</g>
<g>
</g>
<g>
</g>
</svg>
