<svg height="512pt" viewBox="0 0 512 512" width="512pt" xmlns="http://www.w3.org/2000/svg"><path d="m216 512h-136c-44.113281 0-80-35.886719-80-80v-352c0-44.113281 35.886719-80 80-80h136c44.113281 0 80 35.886719 80 80v56c0 11.046875-8.953125 20-20 20s-20-8.953125-20-20v-56c0-22.054688-17.945312-40-40-40h-136c-22.054688 0-40 17.945312-40 40v352c0 22.054688 17.945312 40 40 40h136c22.054688 0 40-17.945312 40-40v-55c0-11.046875 8.953125-20 20-20s20 8.953125 20 20v55c0 44.113281-35.886719 80-80 80zm186.675781-122.410156 91.628907-91.089844c11.398437-11.332031 17.675781-26.425781 17.675781-42.496094 0-16.074218-6.277344-31.167968-17.675781-42.5l-91.628907-91.089844c-11.246093-11.179687-27.988281-14.46875-42.648437-8.367187-14.601563 6.070313-24.035156 20.191406-24.035156 35.96875v85.988281h-235.992188c-11.046875 0-20 8.953125-20 20s8.953125 20 20 20h235.992188c22.058593 0 40-17.945312 40-40v-83.710937l90.109374 89.578125c3.792969 3.769531 5.878907 8.785156 5.878907 14.132812 0 5.34375-2.085938 10.363282-5.878907 14.128906l-90.109374 89.582032v-19.710938c0-11.046875-8.953126-20-20-20-11.046876 0-20 8.953125-20 20v21.984375c0 15.777344 9.4375 29.898438 24.039062 35.972657 4.890625 2.035156 10.015625 3.023437 15.089844 3.023437 10.128906 0 20.0625-3.945313 27.554687-11.394531zm0 0"/></svg>