<svg id="Capa_1" enable-background="new 0 0 512.166 512.166" height="512" viewBox="0 0 512.166 512.166" width="512" xmlns="http://www.w3.org/2000/svg"><g><g><path clip-rule="evenodd" d="m50.06 67.305c-56.636 58.619-56.636 154.533 0 213.151l22.989 22.768 168.52 166.879c7.257 5.749 10.885 8.864 14.513 8.977 3.628-.113 7.257-3.228 14.513-8.977l130.565-129.272 37.984-37.607 22.961-22.768c56.636-58.619 56.636-154.533 0-213.151-34.413-35.624-82.97-41.43-127.815-26.619-4.904 1.642-4.762 1.416-8.391 5.041l-44.703 44.658c-8.362 8.354-10.46 8.835-2.239 17.076l47.566 47.518c8.249 8.212 6.123 8.694-2.211 17.048l-56.211 56.155c-2.721 2.719-2.806 4.871-.879 14.102l24.661 117.577c1.786 6.23-4.224 7.363-7.115 3.2l-81.751-118.568c-7.087-10.28-4.961-11.044 3.09-19.086l53.433-53.38c8.362-8.354 10.46-8.835 2.239-17.048l-47.566-47.518c-8.249-8.241-6.123-8.722 2.211-17.076l12.869-12.856c5.896-5.862 6.463-4.304-.198-9.43-23.499-18.124-51.024-30.046-78.548-33.784-36.452-4.9-72.991 4.53-100.487 32.99z" fill="#fd4755" fill-rule="evenodd"/></g><g><path clip-rule="evenodd" d="m229.324 457.955 12.246 12.149c7.257 5.749 10.885 8.864 14.513 8.977 3.628-.113 7.257-3.228 14.513-8.977l130.564-129.273 37.984-37.607 22.961-22.768c56.636-58.619 56.636-154.533 0-213.151-17.603-18.209-38.891-28.63-61.512-32.481 6.236 4.219 12.161 9.203 17.717 14.952 56.665 58.647 56.665 154.561 0 213.18-62.334 61.733-129.487 147.764-188.986 194.999z" fill="#e41e2b" fill-rule="evenodd"/></g><g><path d="m55.396 275.185c-53.943-55.897-53.925-146.797.057-202.668 25.136-26.01 56.578-34.482 87.595-31.671v15.16c0 3.849-.636 4.845-3 8.551-.674 1.056-1.413 2.216-2.221 3.575l-7.939 13.427c-4.78 8.097-2.946 14.958-1.144 19.431l9.325 22.996-27.236 22.617c-.085.071-.169.144-.251.218-4.017 3.648-5.065 5.717-5.34 10.539-.018.306-.037.647-.063 1.031l-2.731 23.796c-.472 4.115 2.481 7.834 6.596 8.306.291.033.579.049.864.049 3.759 0 7.003-2.821 7.442-6.646l2.75-23.957c.012-.104.021-.208.029-.312.035-.479.06-.903.082-1.283.099-.092.21-.194.337-.31l21.646-17.975-1.574 31.679c-.206 4.137 2.981 7.657 7.119 7.863.126.006.253.009.378.009 3.971 0 7.285-3.118 7.484-7.128l1.729-34.794c.341-6.695-2.125-12.12-4.107-16.479-.407-.895-.803-1.763-1.139-2.579l-9.433-23.262c-1.204-2.989-1.006-4.219.151-6.18l7.928-13.408c.708-1.191 1.366-2.22 1.963-3.157 2.873-4.503 5.354-8.393 5.354-16.619v-12.929c23.632 4.849 46.37 15.778 65.142 29.951l-12.074 12.062c-.729.73-1.408 1.398-2.037 2.017-4.225 4.155-7.563 7.437-7.583 12.668-.02 5.144 3.347 8.928 7.417 12.994l47.565 47.518c.924.922 1.59 1.627 2.071 2.162-.652.672-1.449 1.454-2.195 2.186-.653.64-1.359 1.333-2.115 2.087l-53.434 53.38c-.564.563-1.099 1.091-1.603 1.588-3.98 3.925-7.124 7.026-7.846 11.851-.824 5.505 2.125 10.336 5.484 15.21l18.114 26.279c2.351 3.41 7.021 4.27 10.432 1.919s4.27-7.021 1.919-10.432l-18.114-26.28c-1.676-2.431-2.418-3.767-2.747-4.473.707-.846 2.063-2.184 3.291-3.395.525-.518 1.083-1.068 1.671-1.656l53.434-53.38c.721-.72 1.394-1.38 2.017-1.991 4.247-4.166 7.602-7.456 7.625-12.691.024-5.138-3.339-8.917-7.403-12.977l-47.565-47.518c-.936-.935-1.609-1.646-2.092-2.186.646-.667 1.435-1.443 2.174-2.169.66-.649 1.374-1.351 2.129-2.108l12.856-12.844c.846-.841 1.573-1.516 2.174-2.074 2.164-2.011 4.857-4.513 4.637-8.719-.223-4.256-3.172-6.47-6.025-8.612-.499-.375-1.065-.8-1.693-1.283-28.924-22.297-63.089-35.251-96.202-36.475-36.397-1.346-68.489 11.245-92.808 36.411-59.556 61.64-59.556 161.935 0 223.574.038.04.077.079.116.117l121.182 120.013c1.462 1.448 3.37 2.171 5.277 2.171 1.931 0 3.862-.742 5.329-2.223 2.915-2.943 2.892-7.691-.052-10.606z"/><path d="m467.5 62.094c-17.627-18.248-39.171-29.817-64.034-34.388-22.606-4.156-47.339-2.13-71.557 5.868l-.93.31c-5.157 1.713-6.225 2.385-10.38 6.537l-44.702 44.658c-.719.719-1.392 1.378-2.013 1.988-4.247 4.165-7.601 7.455-7.629 12.69-.028 5.14 3.332 8.929 7.403 13.011l47.575 47.527c.911.907 1.572 1.603 2.052 2.135.013.014.012.033-.001.047-.639.659-1.413 1.42-2.139 2.134-.661.649-1.375 1.353-2.133 2.112l-56.21 56.155c-5.743 5.737-4.851 11.695-2.919 20.948l21.044 100.33c.008.038-.042.059-.064.027l-33.317-48.327c-2.387-3.464-7.168-4.295-10.592-1.805-3.336 2.427-3.904 7.206-1.562 10.602l43.218 62.688c3.569 5.139 9.894 7.094 15.042 4.653 4.109-1.95 7.374-6.991 5.526-13.899l-24.613-117.345c-.775-3.711-1.168-6.136-1.172-7.226.007-.015.014-.033.021-.048l56.209-56.153c.729-.731 1.411-1.401 2.04-2.02 4.226-4.155 7.564-7.438 7.58-12.67.016-5.141-3.354-8.916-7.417-12.961l-47.557-47.509c-.921-.923-1.587-1.629-2.068-2.167-.013-.014-.012-.033.001-.047.651-.67 1.444-1.447 2.186-2.175.652-.64 1.357-1.331 2.112-2.084l44.702-44.658c.751-.75 1.884-1.882 2.191-2.088.002-.001.003-.002.005-.003.26-.141 1.35-.503 2.312-.822l.935-.312c46.349-15.308 90.112-6.302 120.069 24.709 53.982 55.872 53.998 146.773.055 202.671l-22.899 22.707-29.995 29.698c-.018.018-.048.012-.058-.012l-8.482-20.601c-.607-1.465-.542-1.675.251-4.243.318-1.03 8.012-34.941 8.012-34.941.534-2.338 1.95-8.55-5.276-12.929l-20.016-12.095c-1.28-.772-4.282-2.422-5.513-3.123-.383-.218-.682-.549-.858-.954-.162-.374-.386-.951-.675-1.827l-6.269-18.927c-1.297-3.916-5.45-6.347-9.398-5.151-4.052 1.227-6.273 5.543-4.95 9.537l6.374 19.245c2.396 7.273 4.936 9.28 10.16 12.125.813.443 15.28 9.13 19.924 11.92.853.512 1.276 1.504 1.056 2.474-1.442 6.377-6.664 29.445-6.903 30.216-1.037 3.354-2.457 7.949.216 14.399l10.833 26.311c.005.013.002.029-.008.039l-126.678 125.423c-.001.001-.002.002-.003.003l-1.531 1.21c-3.059 2.423-6.492 5.141-7.987 5.782-.01.004-.018.004-.028 0-1.495-.642-4.928-3.36-7.987-5.782l-1.53-1.21c-.001-.001-.002-.002-.003-.003l-44.346-43.936c-2.99-2.961-7.839-2.892-10.743.19-2.829 3.003-2.502 7.804.429 10.707l44.402 43.991c.201.2.414.387.636.563l1.843 1.457c7.044 5.579 11.296 8.946 17.08 9.126.078.003.156.004.234.004s.156-.001.234-.004c5.784-.18 10.035-3.547 17.08-9.126l1.841-1.456c.225-.178.44-.368.643-.57l191.506-189.643c.038-.038.076-.076.113-.114 59.554-61.639 59.554-161.934 0-223.573z"/></g></g></svg>