<svg enable-background="new 0 0 256 256" height="512" viewBox="0 0 256 256" width="512" xmlns="http://www.w3.org/2000/svg"><path d="m86.328 97.744c-1.077-1.064-2.026-2.053-2.852-2.952-1.396-1.519-2.142-3.505-2.216-5.543-.018-.509.005-1.022.071-1.532.099-.764.294-1.521.586-2.249.291-.728.68-1.426 1.167-2.074.499-.663 1.059-1.378 1.654-2.117-1.071-1.987-2.107-4.399-3.022-7.343-4.124-13.278-17.541-20.721-27.545-21.992-1.062-.135-2.074-.503-2.975-1.081-5.113-3.279-11.743-3.018-16.618.695-.75.572-1.613.988-2.533 1.199-10.853 2.485-22.851 9.81-29.477 30.542-.303.947.435 1.91 1.425 1.829 1.934-.16 5.831.015 7.405.726 0 0 7.236 17.436 22.203 20.891 14.968 3.456 27.633-2.629 41.367 6.172 0 0 7.524-3.621 13.761-12.886-.86-.791-1.663-1.556-2.401-2.285z" fill="#7ccc4e"/><path d="m88.73 100.031c-6.237 9.265-13.761 12.886-13.761 12.886s3.517 3.603 10.768 8.786c3.382-6.697 7.457-12.077 10.365-15.48z" fill="#f9bd55"/><path d="m220.899 139.944c.724 2.961 1.638 5.829 2.68 8.616 9.527-3.701 15.597-7.861 17.91-9.608z" fill="#f9bd55"/><path d="m186.491 138.587-.014-.061c-21.724-2.203-43.057-7.1-62.316-15.754-3.714 4.09-6.851 9.456-9.495 15.332 11.27 5.083 25.014 10.021 41.39 13.802 12.956 2.991 24.557 3.826 34.752 3.368-2.677-7.024-3.835-13.119-4.317-16.687z" fill="#f9bd55"/><path d="m85.732 121.699c-7.247-5.181-10.763-8.782-10.763-8.782-1.527-.978-3.039-1.764-4.544-2.408-10.04 11.534-18.805 29.216-9.261 51.486 2.992 6.982 12.883 7.135 16.138.272 1.02-2.152 2.146-4.437 3.368-6.791-2.967-12.67.375-24.497 5.062-33.777z" fill="#7ccc4e"/><path d="m201.541 174.314c-5.055-6.372-8.458-13.045-10.743-19.039-7.492.337-15.75-.035-24.739-1.438 3.21 14.77 11.939 31.287 32.398 44.643 5.106 3.333 11.353-2.62 8.907-8.205-2.015-4.6-4.082-10.005-5.823-15.961z" fill="#7ccc4e"/><path d="m251.49 188.731c-11.023-10.431-25.366-27.423-30.591-48.786-12.423.222-23.874-.284-34.408-1.357 1.617 11.965 10.694 52.286 59.991 61.17 6.002 1.081 9.437-6.836 5.008-11.027z" fill="#7ccc4e"/><path d="m124.174 122.757c-11.936-5.344-21.165-11.22-28.072-16.535-8.786 10.286-28.274 38.533-6.883 67.063 4.557 6.078 14.204 3.89 15.745-3.548 3.062-14.78 8.965-35.713 19.21-46.98z" fill="#7ccc4e"/><g fill="#3aa03a"><path d="m110.35 148.674c-7.528-1.738-14.377.084-15.297 4.07-.898 3.89 4.189 8.395 11.432 10.225 1.101-4.563 2.442-9.422 4.06-14.244-.066-.016-.129-.036-.195-.051z"/><path d="m104.839 130.476c-1.324 3.444 2.342 8.121 8.363 11.04 1.926-4.742 4.159-9.238 6.718-13.158-6.985-2.485-13.657-1.588-15.081 2.118z"/><ellipse cx="93.389" cy="138.002" rx="4.389" ry="5.486" transform="matrix(.225 -.974 .974 .225 -62.084 197.953)"/><path d="m187.987 146.305c.545 2.192 1.255 4.62 2.167 7.2 3.429 1.33 6.699-.279 7.268-2.746 1-4.327-5.795-7.572-9.435-4.454z"/><path d="m230.775 163.349c-2.537-4.217-4.824-8.738-6.707-13.534-8.51.262-15.297 3.585-15.206 7.484.128 5.492 12.39 8.138 21.913 6.05z"/><path d="m234.653 169.331c-5.212 1.302-8.752 3.783-8.687 6.557.092 3.938 7.401 6.961 16.326 6.752 1.018-.024 2.01-.094 2.974-.196-3.556-3.831-7.201-8.226-10.613-13.113z"/></g><path d="m83.476 94.793c13.21 14.376 57.904 52.038 158.425 44.131 4.788-.377 8.367-5.191 7.577-10.269-3.059-19.649-15.979-63.968-70.494-76.554-55.786-12.879-85.737 17.775-95.899 31.295-2.596 3.453-2.4 8.359.391 11.397z" fill="#7ccc4e"/><path d="m248.811 124.858c-1.158.846-2.526 1.391-4.011 1.508-100.52 7.907-145.214-29.755-158.424-44.131-.446-.485-.817-1.021-1.13-1.588-.8.974-1.521 1.896-2.162 2.748-2.595 3.453-2.399 8.36.392 11.397 13.21 14.376 57.904 52.038 158.425 44.131 4.788-.376 8.367-5.19 7.577-10.269-.184-1.178-.405-2.451-.667-3.796z" fill="#7ccc4e"/><path d="m192.557 87.128 20.433-18.133c.439-.389.778-.836 1.036-1.314-9.178-6.709-20.648-12.257-35.042-15.58-14.855-3.43-27.861-3.752-39.167-2.153-.069.731.037 1.49.344 2.233l10.416 25.255c.775 1.88 2.667 3.364 4.963 3.894l30.849 7.122c2.296.53 4.647.025 6.168-1.324z" fill="#3aa03a"/><path d="m248.807 124.86c-2.578-13.271-9.285-34.004-26.731-50.5-.417.216-.807.471-1.15.775l-20.433 18.133c-1.521 1.35-1.98 3.339-1.205 5.219l10.416 25.255c.686 1.665 2.25 3.016 4.193 3.672 9.66.132 19.95-.188 30.903-1.05 1.484-.115 2.849-.659 4.007-1.504z" fill="#3aa03a"/><path d="m199.73 126.875c-.023-.062-.036-.124-.061-.185l-10.416-25.255c-.775-1.88-2.667-3.364-4.963-3.894l-30.849-7.122c-2.296-.53-4.647-.025-6.168 1.324l-20.433 18.133c-.054.048-.097.103-.148.152 17.82 8.034 41.73 14.885 73.038 16.847z" fill="#3aa03a"/><path d="m140.751 79.477-10.416-25.256c-.311-.753-.807-1.438-1.43-2.028-22.132 6.067-36.297 19.497-43.659 28.455.312.566.684 1.102 1.129 1.587 4.9 5.333 14.138 13.87 28.946 22.096 1.453-.109 2.8-.622 3.792-1.502l20.433-18.133c1.521-1.35 1.981-3.339 1.205-5.219z" fill="#3aa03a"/><path d="m34.743 95.388c-2.949 0-6.217-.527-9.349-2.125-7.003-3.573-14.367-4.936-14.44-4.949-1.358-.246-2.261-1.546-2.015-2.904.245-1.359 1.541-2.258 2.902-2.016.328.059 8.142 1.495 15.826 5.416 6.881 3.513 15.232.047 15.316.012 1.271-.54 2.737.053 3.278 1.319.541 1.268-.044 2.733-1.31 3.277-.276.118-4.681 1.97-10.208 1.97z"/><path d="m16.254 77.087c-.833 0-1.647-.417-2.122-1.176-.731-1.171-.376-2.713.795-3.445l2.632-1.645c1.169-.731 2.713-.377 3.445.795.731 1.171.376 2.713-.795 3.445l-2.632 1.645c-.412.258-.87.381-1.323.381z"/><path d="m48.77 71.804c-.184 0-.37-.021-.557-.063-1.347-.306-2.189-1.646-1.883-2.992.226-.993.051-2.014-.491-2.876-.543-.862-1.389-1.461-2.382-1.687-.989-.227-2.014-.052-2.876.491s-1.461 1.388-1.688 2.381c-.307 1.346-1.646 2.188-2.992 1.883-1.346-.306-2.189-1.646-1.883-2.992.521-2.295 1.906-4.25 3.899-5.504 1.99-1.254 4.352-1.659 6.648-1.134 2.295.521 4.25 1.906 5.504 3.898 1.254 1.993 1.657 4.354 1.135 6.649-.263 1.16-1.293 1.946-2.434 1.946z"/><path d="m74.969 115.417c-.471 0-.939-.133-1.349-.395-7.72-4.948-14.917-4.804-23.251-4.64-5.488.109-11.169.222-17.329-1.201-13.951-3.221-21.516-17.191-23.455-21.271-1.36-.272-3.789-.42-5.385-.29-1.297.103-2.544-.436-3.351-1.451-.814-1.024-1.062-2.382-.662-3.631 5.732-17.936 16.263-28.776 31.301-32.219.552-.126 1.097-.386 1.574-.75 5.673-4.321 13.501-4.647 19.483-.812.593.38 1.246.617 1.94.706 11.154 1.417 25.181 9.447 29.618 23.73.795 2.563 1.749 4.884 2.835 6.899.477.885.377 1.97-.254 2.753-.576.716-1.12 1.41-1.604 2.053-.344.458-.628.964-.844 1.501-.21.524-.354 1.076-.426 1.638-.049.372-.066.748-.053 1.121.055 1.508.607 2.907 1.559 3.942.859.936 1.79 1.899 2.768 2.864.719.709 1.5 1.455 2.338 2.227.908.836 1.07 2.211.381 3.235-6.541 9.715-14.419 13.583-14.751 13.742-.343.166-.713.249-1.083.249zm-20.451-10.09c6.647 0 13.474.609 20.502 4.692 2.011-1.228 6.365-4.272 10.41-9.661-.295-.283-.58-.562-.857-.835 0 0 0 0-.001 0-1.034-1.021-2.022-2.044-2.937-3.04-1.755-1.91-2.775-4.447-2.872-7.143-.023-.648.007-1.303.09-1.945.126-.976.377-1.938.743-2.854.38-.947.881-1.836 1.489-2.647.222-.295.455-.599.698-.911-.927-1.922-1.749-4.037-2.454-6.307-3.613-11.631-15.549-18.993-25.473-20.253-1.437-.182-2.785-.672-4.009-1.456-4.219-2.706-9.746-2.473-13.755.579-1.039.792-2.246 1.362-3.488 1.647-12.97 2.969-21.867 11.933-27.163 27.382 2.131.012 5.224.203 6.987 1 .578.261 1.035.733 1.278 1.319.067.16 6.952 16.295 20.458 19.414 5.556 1.283 10.92 1.177 16.105 1.074 1.409-.028 2.825-.055 4.249-.055z"/><path d="m99.479 123.89c-.17 0-.33-.02-.489-.05-.16-.03-.32-.08-.471-.14-.149-.06-.3-.14-.43-.23-.14-.09-.271-.2-.38-.31-.12-.12-.22-.24-.311-.38-.09-.14-.17-.28-.229-.43-.061-.15-.11-.31-.14-.47-.04-.16-.051-.33-.051-.49 0-.66.261-1.3.73-1.77.109-.11.24-.22.38-.31.13-.09.28-.17.43-.23s.311-.11.471-.14c.81-.16 1.68.1 2.25.68.47.47.739 1.11.739 1.77s-.27 1.3-.739 1.77c-.459.46-1.099.73-1.76.73z"/><path d="m214.859 175.3c-.659 0-1.31-.27-1.77-.73-.47-.47-.73-1.11-.73-1.77 0-.16.011-.33.04-.49.04-.16.08-.31.15-.46.06-.16.14-.3.23-.44.09-.13.189-.26.31-.38.58-.58 1.44-.84 2.25-.68.16.03.32.08.47.14.15.07.3.14.431.23.14.09.27.2.38.31.12.12.22.25.31.38.09.14.17.28.23.44.069.15.109.3.149.46.03.16.05.33.05.49 0 .66-.27 1.31-.739 1.77-.11.11-.24.22-.38.31-.131.09-.28.17-.431.23-.149.06-.31.11-.47.14-.159.04-.319.05-.48.05z"/><path d="m85.737 124.203c-.517 0-1.025-.16-1.454-.466-7.347-5.251-10.953-8.92-11.104-9.073-.562-.576-.812-1.388-.673-2.18.14-.793.652-1.47 1.378-1.819.062-.031 7.029-3.5 12.771-12.029.396-.588 1.023-.981 1.726-1.08.702-.1 1.413.105 1.956.561l7.372 6.191c.511.429.829 1.044.884 1.708.056.665-.157 1.323-.59 1.83-2.754 3.224-6.73 8.44-10.034 14.984-.329.651-.926 1.126-1.634 1.301-.197.048-.398.072-.598.072zm-6.627-10.869c1.345 1.172 3.267 2.767 5.772 4.646 2.579-4.641 5.382-8.534 7.711-11.439l-3.406-2.86c-3.657 4.792-7.499 7.894-10.077 9.653z"/><path d="m223.579 151.061c-.349 0-.697-.073-1.022-.219-.61-.273-1.085-.78-1.319-1.406-1.149-3.075-2.055-5.985-2.768-8.897-.177-.725-.021-1.492.426-2.09.446-.598 1.137-.966 1.883-1.001l20.591-.991c1.091-.046 2.098.615 2.471 1.646s.031 2.186-.845 2.846c-2.257 1.704-8.579 6.084-18.511 9.943-.292.112-.599.169-.906.169zm.538-8.769c.287.98.6 1.969.94 2.973 2.68-1.131 5.029-2.278 7.041-3.357z"/><path d="m185.595 157.891c-9.783 0-19.883-1.189-30.102-3.548-14.826-3.423-28.908-8.119-41.855-13.958-1.257-.567-1.817-2.046-1.252-3.305 2.994-6.654 6.333-12.033 9.924-15.987.728-.801 1.889-1.042 2.875-.6 17.747 7.974 38.453 13.205 61.544 15.547 1.058.107 1.931.871 2.179 1.904.021.082.05.227.062.31.404 2.993 1.483 9.068 4.175 16.131.286.75.194 1.591-.246 2.262s-1.176 1.09-1.978 1.126c-1.765.078-3.541.118-5.326.118zm-67.585-21.038c12.007 5.23 24.982 9.472 38.608 12.617 10.444 2.412 20.735 3.548 30.681 3.408-1.577-4.735-2.483-8.9-3.002-12.067-22.124-2.41-42.106-7.452-59.453-15.003-2.403 2.932-4.693 6.633-6.834 11.045z"/><path d="m69.291 169.824c-.075 0-.151 0-.228-.002-4.518-.085-8.425-2.708-10.197-6.842-10.206-23.815-.373-42.571 9.673-54.113.712-.818 1.872-1.084 2.869-.657 1.725.738 3.33 1.589 4.91 2.602.159.102.307.222.439.358.032.033 3.486 3.533 10.428 8.495 1.003.717 1.334 2.06.777 3.161-5.608 11.106-7.243 21.899-4.858 32.08.136.581.06 1.191-.216 1.721-1.124 2.167-2.244 4.426-3.328 6.711-1.904 4.016-5.825 6.486-10.269 6.486zm1.811-56.243c-8.653 10.545-16.416 26.95-7.64 47.43 1.002 2.339 3.132 3.764 5.696 3.813 2.563.021 4.785-1.307 5.885-3.627.975-2.056 1.979-4.09 2.989-6.061-2.23-10.485-.707-21.452 4.534-32.646-5.354-3.957-8.363-6.816-9.169-7.609-.752-.474-1.513-.905-2.295-1.3z"/><path d="m201.598 201.937c-1.554 0-3.108-.451-4.507-1.364-18.119-11.829-29.382-27.375-33.475-46.206-.175-.805.059-1.646.624-2.246s1.388-.883 2.205-.755c8.252 1.288 16.405 1.764 24.241 1.411 1.077-.052 2.064.599 2.448 1.607 2.584 6.779 6.07 12.961 10.365 18.375.2.253.35.542.44.852 1.525 5.219 3.448 10.487 5.714 15.659 1.61 3.676.587 7.929-2.547 10.582-1.631 1.383-3.569 2.085-5.508 2.085zm-32.227-45.105c4.397 15.928 14.628 29.222 30.452 39.554 1.857 1.211 3.452.159 4.054-.35 1.191-1.009 2.024-2.873 1.197-4.76-2.284-5.213-4.232-10.525-5.795-15.795-4.12-5.269-7.53-11.195-10.157-17.643-6.429.189-13.054-.148-19.751-1.006z"/><path d="m247.561 202.355c-.501 0-1.009-.045-1.521-.137-50.853-9.164-60.331-50.764-62.025-63.295-.103-.759.148-1.523.681-2.074.532-.55 1.284-.827 2.051-.749 10.831 1.104 22.309 1.556 34.108 1.345h.045c1.15 0 2.154.786 2.429 1.906 5.074 20.745 19.05 37.316 29.882 47.564 2.914 2.758 3.628 7.073 1.775 10.737-1.499 2.962-4.312 4.703-7.425 4.703zm-58.088-60.972c2.655 14.312 13.558 48.004 57.453 55.914 2.182.392 3.241-1.198 3.597-1.901.704-1.394.745-3.434-.751-4.85-10.983-10.394-25.075-27.059-30.801-48.073-10.154.117-20.043-.246-29.498-1.09z"/><path d="m96.2 179.307c-3.509 0-6.805-1.619-8.981-4.523-9.72-12.963-12.507-27.276-8.284-42.539 3.48-12.58 11.059-22.722 15.266-27.647.865-1.012 2.372-1.169 3.426-.358 8.027 6.176 17.304 11.638 27.569 16.234.731.328 1.262.986 1.426 1.771s-.059 1.6-.598 2.193c-9.766 10.739-15.511 30.836-18.611 45.805-.918 4.428-4.239 7.792-8.669 8.781-.852.19-1.705.283-2.544.283zm.303-69.652c-9.122 11.348-24.372 36.671-5.284 62.13 1.526 2.036 3.933 2.917 6.436 2.359 2.523-.563 4.341-2.4 4.861-4.915 2.999-14.479 8.442-33.641 17.646-45.567-8.649-4.084-16.586-8.784-23.659-14.007z"/><path d="m106.484 165.469c-.205 0-.41-.025-.612-.076-8.784-2.22-14.482-7.899-13.255-13.211.663-2.874 3.136-5.017 6.963-6.035 3.274-.872 7.299-.839 11.332.092l.193.049c.665.18 1.272.638 1.598 1.246.324.607.431 1.334.212 1.987-1.447 4.314-2.794 9.037-4 14.036-.157.649-.567 1.208-1.139 1.553-.392.236-.84.359-1.292.359zm-1.727-14.95c-1.412 0-2.737.153-3.892.46-1.895.504-3.156 1.374-3.377 2.327-.382 1.653 2.179 4.65 7.206 6.5.812-3.174 1.678-6.229 2.59-9.132-.86-.104-1.709-.155-2.527-.155z"/><path d="m113.202 144.016c-.374 0-.747-.084-1.091-.25-7.474-3.624-11.424-9.457-9.606-14.186 1.941-5.051 9.788-6.588 18.253-3.577.722.257 1.286.831 1.531 1.556.244.726.144 1.524-.275 2.166-2.323 3.558-4.508 7.842-6.495 12.732-.261.641-.774 1.145-1.42 1.393-.289.111-.593.166-.897.166zm-.82-14.565c-2.86 0-4.793.838-5.209 1.921 0 0 0 0-.001.001-.581 1.513 1.211 4.283 4.812 6.601 1.29-2.937 2.654-5.651 4.082-8.117-1.343-.282-2.583-.406-3.684-.406zm-7.543 1.025h.01z"/><path d="m93.928 144.954c-.692 0-1.394-.079-2.089-.24-4.29-.991-7.086-4.808-6.231-8.509.431-1.87 1.749-3.457 3.617-4.354 1.707-.82 3.738-1.018 5.714-.562 4.29.991 7.086 4.808 6.231 8.509-.431 1.87-1.749 3.457-3.617 4.354-1.107.532-2.349.802-3.625.802zm-1.075-8.904c-.532 0-1.038.104-1.463.308-.289.139-.79.449-.911.971-.2.871.771 2.117 2.485 2.513.863.199 1.747.127 2.424-.197.289-.139.79-.449.911-.971.2-.871-.771-2.117-2.485-2.513-.322-.074-.646-.111-.961-.111z"/><path d="m192.646 156.484c-1.126 0-2.279-.216-3.396-.649-.68-.264-1.21-.81-1.453-1.497-.871-2.464-1.623-4.963-2.236-7.43-.229-.918.081-1.887.799-2.502 2.628-2.25 6.734-2.448 9.988-.478 2.823 1.71 4.168 4.543 3.51 7.393-.408 1.769-1.642 3.313-3.383 4.235-1.164.617-2.477.928-3.829.928zm-.555-5.038c.746.106 1.459.002 2.045-.308.459-.243.77-.586.852-.941.233-1.015-.882-1.781-1.229-1.991-.807-.489-1.879-.757-2.841-.592.353 1.276.745 2.557 1.173 3.832z"/><path d="m223.888 166.57c-5.839 0-11.43-1.389-14.575-3.859-2.379-1.868-2.917-3.942-2.95-5.353-.128-5.5 7.285-9.723 17.628-10.042 1.061-.014 2.018.602 2.404 1.585 1.735 4.421 3.93 8.848 6.522 13.159.415.69.472 1.538.153 2.278-.318.739-.974 1.28-1.761 1.453-2.405.527-4.936.779-7.421.779zm-1.466-14.159c-7.232.598-11.095 3.402-11.062 4.83.012.487.361 1.004 1.04 1.537 2.436 1.914 8.362 3.208 14.387 2.657-1.641-2.977-3.102-5.997-4.365-9.024z"/><path d="m241.425 185.15c-4.316 0-8.392-.709-11.563-2.021-4.055-1.677-6.326-4.228-6.395-7.183-.093-3.983 3.862-7.362 10.581-9.04 1.006-.251 2.062.144 2.655.995 3.07 4.399 6.567 8.72 10.395 12.843.645.694.841 1.691.509 2.578-.332.886-1.137 1.509-2.077 1.609-1.082.114-2.152.185-3.18.209-.31.006-.619.01-.925.01zm-7.785-12.928c-3.55 1.169-5.194 2.772-5.175 3.607.016.638 1.057 1.748 3.307 2.679 2.17.897 5.023 1.457 8.071 1.603-2.202-2.579-4.277-5.217-6.203-7.889z"/><path d="m215.088 142.507c-32.473 0-61.336-5.012-86.074-14.974-26.031-10.482-40.857-23.953-47.378-31.049-3.612-3.93-3.849-10.203-.55-14.59 10.583-14.082 41.366-45.407 98.46-32.229 56.327 13.004 69.397 59.303 72.402 78.606.5 3.211-.368 6.515-2.382 9.062-1.899 2.404-4.553 3.854-7.469 4.083-9.257.728-18.264 1.091-27.009 1.091zm-61.95-90.993c-38.212 0-59.741 22.323-68.056 33.384-1.843 2.452-1.739 6.055.235 8.204 6.235 6.786 20.445 19.68 45.564 29.794 30.678 12.354 67.966 16.907 110.823 13.536 1.514-.119 2.912-.9 3.939-2.199 1.152-1.459 1.649-3.352 1.362-5.192-2.848-18.298-15.232-62.186-68.586-74.503-9.128-2.109-17.547-3.024-25.281-3.024z"/><path d="m215.088 142.507c-32.473 0-61.336-5.012-86.074-14.974-26.031-10.482-40.857-23.953-47.378-31.049-3.612-3.93-3.849-10.203-.55-14.59.703-.938 1.454-1.891 2.229-2.834.526-.64 1.338-.983 2.161-.902.826.076 1.56.557 1.96 1.282.231.421.494.792.78 1.102 6.236 6.787 20.446 19.681 45.564 29.795 30.677 12.354 67.965 16.908 110.824 13.536.966-.076 1.909-.434 2.73-1.034.689-.505 1.593-.622 2.388-.31.797.312 1.378 1.01 1.542 1.85.258 1.323.487 2.632.684 3.89.5 3.212-.368 6.515-2.382 9.062-1.899 2.404-4.553 3.854-7.469 4.083-9.257.73-18.264 1.093-27.009 1.093zm-129.846-57.821c-.054.071-.106.141-.159.211-1.844 2.452-1.74 6.055.234 8.204 6.235 6.786 20.445 19.68 45.564 29.794 30.678 12.354 67.966 16.907 110.823 13.536 1.514-.119 2.912-.9 3.939-2.199 1.152-1.459 1.649-3.352 1.362-5.192-.026-.174-.055-.349-.083-.524-.63.176-1.274.292-1.927.343-43.644 3.434-81.686-1.238-113.084-13.882-25.128-10.121-39.815-23.025-46.669-30.291z"/><path d="m188.215 91.163c-.786 0-1.588-.09-2.389-.275l-30.849-7.122c-3.11-.718-5.62-2.729-6.713-5.377l-10.416-25.255c-.455-1.104-.63-2.254-.521-3.419.107-1.153.993-2.081 2.14-2.243 12.584-1.777 26.068-1.041 40.079 2.193 13.646 3.15 25.743 8.533 35.955 15.998 1.008.737 1.317 2.105.725 3.205-.411.762-.941 1.435-1.578 1.999l-20.432 18.132c-1.591 1.411-3.731 2.164-6.001 2.164zm-45.389-39.076 10.062 24.395c.462 1.121 1.724 2.067 3.215 2.412l30.849 7.122c1.492.345 3.039.046 3.946-.758l19.356-17.178c-9.169-6.229-19.863-10.78-31.833-13.543-12.423-2.869-24.382-3.692-35.595-2.45z"/><path d="m218.047 129.943c-1.403 0-2.798-.009-4.185-.028-.261-.004-.519-.048-.766-.131-2.663-.9-4.742-2.754-5.705-5.088l-10.415-25.255c-1.173-2.843-.444-6 1.856-8.042l20.434-18.134c.478-.424 1.036-.803 1.66-1.125.943-.49 2.094-.326 2.867.404 17.613 16.655 24.658 37.383 27.467 51.84.185.952-.197 1.924-.98 2.496-1.569 1.146-3.396 1.83-5.283 1.979-9.177.721-18.223 1.084-26.95 1.084zm-3.687-5.022c9.727.117 19.897-.234 30.244-1.048.472-.037.938-.142 1.388-.309-2.798-13.184-9.254-31.113-24.124-45.923l-19.717 17.497c-.727.645-.923 1.496-.553 2.395l10.416 25.256c.369.896 1.233 1.675 2.346 2.132z"/><path d="m199.741 129.375c-.056 0-.111-.002-.167-.005-27.794-1.742-52.661-7.482-73.909-17.062-.755-.34-1.292-1.032-1.436-1.848-.143-.815.127-1.648.721-2.225.05-.056.138-.146.235-.232l20.429-18.13c2.143-1.902 5.279-2.608 8.39-1.891l30.849 7.122c3.11.718 5.619 2.728 6.712 5.376l10.416 25.256c.046.111.083.222.117.334.289.792.15 1.651-.355 2.327-.472.632-1.22.978-2.002.978zm-68.479-20.08c18.869 7.967 40.577 12.939 64.635 14.805l-8.954-21.712c-.462-1.121-1.724-2.067-3.215-2.411l-30.849-7.122c-1.49-.346-3.04-.047-3.946.758z"/><path d="m115.321 106.831c-.424 0-.842-.108-1.214-.314-14.887-8.271-24.299-16.85-29.572-22.59-.557-.605-1.054-1.302-1.478-2.071-.495-.896-.393-2.004.257-2.795 8.208-9.988 22.665-23.175 44.93-29.279.846-.23 1.746-.005 2.381.596.902.855 1.582 1.827 2.021 2.888l10.416 25.258c1.172 2.843.444 5.999-1.855 8.042l-20.435 18.133c-1.374 1.219-3.243 1.974-5.265 2.125-.062.005-.123.007-.186.007zm-26.904-26.07c4.976 5.374 13.698 13.267 27.396 20.98.652-.141 1.222-.41 1.642-.783l20.434-18.133c.727-.646.923-1.496.553-2.395-.001 0-.001 0-.001 0l-10.415-25.256c-.016-.039-.033-.078-.052-.117-19.039 5.624-31.842 16.738-39.557 25.704z"/></svg>