<svg height="512" viewBox="0 0 512 512" width="512" xmlns="http://www.w3.org/2000/svg"><g id="flat"><path d="m488 120v160l-8 16 8 160v32h-296v-368l8-64h280z" fill="#f55648"/><path d="m247.273 338.126a24 24 0 0 0 -36.442-14.188 55.94 55.94 0 0 0 -78.988-6.669 15.98 15.98 0 0 0 -26.137 17.89c-.116.292-.242.578-.347.875-.453-.011-.9-.034-1.359-.034a56.013 56.013 0 0 0 -55.433 48h238.866a56.057 56.057 0 0 0 -40.16-45.874z" fill="#fbb540"/><path d="m488 278.52v177.48h-32l-40-48v48h-48.3v-56l-6.91-14.14a185.883 185.883 0 0 1 -18.86-81.56h-47.76a16.216 16.216 0 0 1 -7.2-1.7l-22.06-11.04a16.093 16.093 0 0 1 -8.91-14.41v-24.41a17.18 17.18 0 0 1 17.19-17.18h20.46a8.6 8.6 0 0 0 7.69-4.75l17.17-34.34a22.556 22.556 0 0 1 20.17-12.47h40.24a44.052 44.052 0 0 1 41.79 30.12l15.73 47.21z" fill="#ebebeb"/><path d="m352 152h-128l8-16-8-16h128l-8 16z" fill="#ea9d2d"/><path d="m256 456h232v32h-232z" fill="#dc4d41"/><path d="m312 488h-288l9.85-64 2.46-16 3.69-24h256z" fill="#6cbae5"/><circle cx="120" cy="328" fill="#da922a" r="16"/><circle cx="168" cy="368" fill="#da922a" r="16"/><circle cx="224" cy="336" fill="#da922a" r="16"/><g fill="#4799cf"><circle cx="144" cy="432" r="8"/><circle cx="168" cy="416" r="8"/><circle cx="192" cy="432" r="8"/><path d="m184 448a16 16 0 0 0 -32 0 8 8 0 0 0 0 16h32a8 8 0 0 0 0-16z"/></g><circle cx="343.784" cy="225.105" fill="#744630" r="10.45"/><path d="m435.451 254.131-12 16.8a100.183 100.183 0 0 1 -81.522 41.953v34.37a140.549 140.549 0 0 0 110.94-54.254l16.448-21.147a2 2 0 0 0 -.684-3.017l-30.66-15.33a2 2 0 0 0 -2.522.625z" fill="#4799cf"/><path d="m289.18 235.56-2.27 6.82a22.518 22.518 0 0 1 -21.36 15.4h-9.55v-5.04a17.18 17.18 0 0 1 17.19-17.18z" fill="#744630"/><circle cx="288" cy="136" fill="#fbb540" r="32"/><path d="m200 24h280v32h-280z" fill="#dc4d41"/><path d="m424 456h-16v-48a8 8 0 0 1 1.344-4.438l16-24 13.312 8.876-14.656 21.984z" fill="#cdcdcd"/><path d="m488 120v8h-72v-16h71z" fill="#dc4d41"/><path d="m384 112h16v16h-16z" fill="#dc4d41"/><path d="m88 408v16h-54.15l2.46-16z" fill="#4799cf"/><path d="m104 408h16v16h-16z" fill="#4799cf"/><path d="m376.3 184v60.148a25.778 25.778 0 0 0 25.778 25.778 25.778 25.778 0 0 0 25.778-25.778v-31.814a28.335 28.335 0 0 0 -28.338-28.334z" fill="#744630"/><circle cx="333.333" cy="330.074" fill="#fece2f" r="17.185"/></g></svg>