<svg height="512" viewBox="0 0 512 512" width="512" xmlns="http://www.w3.org/2000/svg"><g id="Flat"><path d="m120 120h16v16h-16z" fill="#92563a"/><path d="m328 320v176h-184v-136h-8l-16 136h-56l20.05-180.42a40 40 0 0 1 39.75-35.58h44.2a8 8 0 0 0 8-8v-56h64v56a8 8 0 0 0 8 8h40a40 40 0 0 1 40 40z" fill="#fec9a3"/><path d="m240 216v32.51a72.1 72.1 0 0 1 -64 0v-32.51z" fill="#feb784"/><path d="m280 448v48h-144l-.41-28.72-.28-19.28c-19.79-23.56-18.46-57.28.69-80v-88h24l7.21 25.23a42.421 42.421 0 0 0 81.58 0l7.21-25.23h24v88a62.085 62.085 0 0 1 0 80z" fill="#d3669a"/><path d="m280 448v48h-144l-.41-28.72c55.3-14.78 108.62-41.05 154.27-83.08a62.042 62.042 0 0 1 -9.86 63.8z" fill="#cc6395"/><circle cx="288" cy="64" fill="#804a32" r="40"/><path d="m128 128h8a0 0 0 0 1 0 0v48a0 0 0 0 1 0 0h-8a24 24 0 0 1 -24-24 24 24 0 0 1 24-24z" fill="#feb784"/><path d="m280 112v56a72 72 0 1 1 -144 0v-56a63.951 63.951 0 0 1 64-64h16a64 64 0 0 1 64 64z" fill="#fec9a3"/><path d="m280 112v56a72.033 72.033 0 0 1 -89.62 69.82 86.626 86.626 0 0 0 29.89-65.55v-38.57a86.862 86.862 0 0 0 -49.76-78.52 63.692 63.692 0 0 1 29.49-7.18h16a64 64 0 0 1 64 64z" fill="#fec093"/><path d="m200 24a80 80 0 0 0 -80 80v24c48 0 128-64 128-64l32 64 16 8v-32a80 80 0 0 0 -80-80z" fill="#92563a"/><path d="m280 128h8a24 24 0 0 1 24 24 24 24 0 0 1 -24 24h-8a0 0 0 0 1 0 0v-48a0 0 0 0 1 0 0z" fill="#feb784"/><path d="m56 464h280v32h-280z" fill="#cfcfcd"/><path d="m246.24 496h-176.19a17.987 17.987 0 0 1 -17.46-13.63l-28.16-112.67a13.877 13.877 0 0 1 -.43-3.45 14.237 14.237 0 0 1 14.25-14.25h179.31a18 18 0 0 1 17.57 14.1l1.21 5.43 23.81 107.13a14.255 14.255 0 0 1 -13.91 17.34z" fill="#e0e0de"/><ellipse cx="136" cy="424" fill="#f2f2f2" rx="15.31" ry="16.721" transform="matrix(.691 -.723 .723 .691 -264.373 229.131)"/><path d="m246.24 496h-176.19a18.005 18.005 0 0 1 -14.25-7c66.91-19.35 130.49-55.96 180.54-117.47l23.81 107.13a14.255 14.255 0 0 1 -13.91 17.34z" fill="#dbdbd9"/><path d="m472 352a16 16 0 0 0 -16-16h-24a48 48 0 0 0 -48 48 48 48 0 0 0 48 48h8a16 16 0 0 1 16 16 16 16 0 0 1 -16 16h-56v32h56a48 48 0 0 0 48-48 48 48 0 0 0 -48-48h-8a16 16 0 0 1 -16-16 16 16 0 0 1 16-16h24a16 16 0 0 0 16-16z" fill="#404f66"/><path d="m448 496h-128v-4.686a27.315 27.315 0 0 1 8-19.314v-120h64l16 48a63.632 63.632 0 0 1 40 59.081z" fill="#485870"/><path d="m370.7 368h-21.39a45.305 45.305 0 0 1 -45.31-45.3 45.312 45.312 0 0 1 4.783-20.261l3.217-6.439v-32a33.3 33.3 0 0 1 31.589 22.768l.411 1.232h32l.411-1.232a33.3 33.3 0 0 1 31.589-22.768v32l3.217 6.434a45.312 45.312 0 0 1 4.783 20.266 45.305 45.305 0 0 1 -45.3 45.3z" fill="#4d5e78"/><path d="m328 312h16v16h-16z" fill="#348fd9"/><path d="m376 312h16v16h-16z" fill="#348fd9"/><path d="m360 496h-16v-4.687a35.045 35.045 0 0 1 8-22.388v-44.925h16v48a8 8 0 0 1 -2.343 5.657 19.185 19.185 0 0 0 -5.657 13.656z" fill="#3b495e"/><path d="m384 424h16v72h-16z" fill="#3b495e"/><path d="m172 128a12 12 0 1 0 12 12 12.013 12.013 0 0 0 -12-12z" fill="#92563a"/><path d="m244 128a12 12 0 1 0 12 12 12.013 12.013 0 0 0 -12-12z" fill="#92563a"/><path d="m208 200a24.028 24.028 0 0 1 -24-24h16a8 8 0 0 0 16 0h16a24.028 24.028 0 0 1 -24 24z" fill="#f7ad7c"/></g></svg>