<svg id="b5b072d9-b5a4-4f96-a9a9-2e33ee6d5cf1" data-name="Layer 1" xmlns="http://www.w3.org/2000/svg" xmlns:xlink="http://www.w3.org/1999/xlink" width="955" height="680.5" viewBox="0 0 955 680.5"><defs><linearGradient id="a5ac7b16-889c-4327-95b5-489bb9690718" x1="380.51" y1="452.69" x2="687.26" y2="452.69" gradientTransform="translate(72.62 -49.07) rotate(9.18)" gradientUnits="userSpaceOnUse"><stop offset="0" stop-color="gray" stop-opacity="0.25"/><stop offset="0.54" stop-color="gray" stop-opacity="0.12"/><stop offset="1" stop-color="gray" stop-opacity="0.1"/></linearGradient></defs><title>good doggy</title><path d="M980.07,687.7c-7.12,3.67-14.58,6.84-21.93,9.95-27.19,11.47-54.8,23.06-84,27C819.27,732,762.66,712,708.76,724.48c-45.15,10.42-82.49,42.35-126.6,56.57-20.51,6.61-41.85,9.2-63.38,9.2H516c-2.65,0-5.29-.1-7.94-.2-21.83-.82-43.75-4-65.15-8.17-67.57-13-136.34-36.83-188-80.7C405.33,673.69,715.18,631.51,980.07,687.7Z" transform="translate(-122.5 -109.75)" fill="#252223" opacity="0.1"/><polygon points="910 249 910 185 872 185 872 249 827 249 827 150 794 150 794 76 767 76 767 0 711 0 711 76 684 76 684 150 652 150 652 61 634 61 634 16 623 16 623 61 559 61 559 345 510 345 510 315 480 315 480 345 431 345 431 249 343 249 343 185 305 185 305 249 303 249 303 372 263 372 263 300 215 300 215 372 175 372 175 150 144 150 144 76 30 76 30 150 0 150 0 541 175 541 303 541 431 541 559 541 652 541 827 541 955 541 955 249 910 249" fill="#6c63ff" opacity="0.3"/><rect x="19" y="173" width="42" height="24" fill="#fff" opacity="0.4"/><rect x="235.5" y="282.75" width="42" height="24" transform="translate(390.5 479.75) rotate(-180)" fill="#fff" opacity="0.4"/><rect x="19" y="220" width="42" height="24" fill="#fff" opacity="0.4"/><rect x="235.5" y="329.75" width="42" height="24" transform="translate(390.5 573.75) rotate(-180)" fill="#fff" opacity="0.4"/><rect x="19" y="267" width="42" height="24" fill="#fff" opacity="0.4"/><rect x="235.5" y="376.75" width="42" height="24" transform="translate(390.5 667.75) rotate(-180)" fill="#fff" opacity="0.4"/><rect x="19" y="314" width="42" height="24" fill="#fff" opacity="0.4"/><rect x="235.5" y="423.75" width="42" height="24" transform="translate(390.5 761.75) rotate(-180)" fill="#fff" opacity="0.4"/><rect x="19" y="361" width="42" height="24" fill="#fff" opacity="0.4"/><rect x="235.5" y="470.75" width="42" height="24" transform="translate(390.5 855.75) rotate(-180)" fill="#fff" opacity="0.4"/><rect x="19" y="408" width="42" height="24" fill="#fff" opacity="0.4"/><rect x="235.5" y="517.75" width="42" height="24" transform="translate(390.5 949.75) rotate(-180)" fill="#fff" opacity="0.4"/><rect x="19" y="455" width="42" height="24" fill="#fff" opacity="0.4"/><rect x="235.5" y="564.75" width="42" height="24" transform="translate(390.5 1043.75) rotate(-180)" fill="#fff" opacity="0.4"/><rect x="190" y="396" width="98" height="12" fill="#fff" opacity="0.4"/><rect x="190" y="414" width="98" height="12" fill="#fff" opacity="0.4"/><rect x="190" y="432" width="98" height="12" fill="#fff" opacity="0.4"/><rect x="446" y="402" width="98" height="12" fill="#fff" opacity="0.4"/><rect x="446" y="420" width="98" height="12" fill="#fff" opacity="0.4"/><rect x="446" y="438" width="98" height="12" fill="#fff" opacity="0.4"/><rect x="190" y="450" width="98" height="12" fill="#fff" opacity="0.4"/><rect x="190" y="468" width="98" height="12" fill="#fff" opacity="0.4"/><rect x="190" y="486" width="98" height="12" fill="#fff" opacity="0.4"/><rect x="324" y="272" width="27" height="35" fill="#fff" opacity="0.4"/><rect x="505.5" y="381.75" width="27" height="35" transform="translate(915.5 688.75) rotate(-180)" fill="#fff" opacity="0.4"/><rect x="324" y="328" width="27" height="35" fill="#fff" opacity="0.4"/><rect x="505.5" y="437.75" width="27" height="35" transform="translate(915.5 800.75) rotate(-180)" fill="#fff" opacity="0.4"/><rect x="324" y="384" width="27" height="35" fill="#fff" opacity="0.4"/><rect x="505.5" y="493.75" width="27" height="35" transform="translate(915.5 912.75) rotate(-180)" fill="#fff" opacity="0.4"/><rect x="324" y="440" width="27" height="35" fill="#fff" opacity="0.4"/><rect x="505.5" y="549.75" width="27" height="35" transform="translate(915.5 1024.75) rotate(-180)" fill="#fff" opacity="0.4"/><rect x="559" y="84" width="36" height="46" fill="#fff" opacity="0.4"/><rect x="559" y="150" width="36" height="46" fill="#fff" opacity="0.4"/><rect x="559" y="216" width="36" height="46" fill="#fff" opacity="0.4"/><rect x="559" y="282" width="36" height="46" fill="#fff" opacity="0.4"/><rect x="559" y="348" width="36" height="46" fill="#fff" opacity="0.4"/><rect x="559" y="414" width="36" height="46" fill="#fff" opacity="0.4"/><rect x="672.5" y="178" width="134" height="39" fill="#fff" opacity="0.4"/><rect x="673" y="262" width="134" height="39" fill="#fff" opacity="0.4"/><rect x="673.5" y="346" width="134" height="39" fill="#fff" opacity="0.4"/><rect x="674" y="430" width="134" height="39" fill="#fff" opacity="0.4"/><rect x="30" y="97" width="18" height="38" fill="#fff" opacity="0.4"/><rect x="910" y="272" width="45" height="58" fill="#fff" opacity="0.4"/><rect x="910" y="356" width="45" height="58" fill="#fff" opacity="0.4"/><rect x="910" y="440" width="45" height="58" fill="#fff" opacity="0.4"/><path d="M172.17,589.3s-78.73,47.5,66.4,120.63c0,0,32-59.36-3.38-107.76a47.66,47.66,0,0,0-61.84-13.55Z" transform="translate(-122.5 -109.75)" fill="#6c63ff"/><path d="M173.08,588.3s67.37,51.55,65.49,121.63" transform="translate(-122.5 -109.75)" fill="none" stroke="#535461" stroke-miterlimit="10"/><path d="M242.23,712.63s-24.67-83.76,4.63-145.41c12.29-25.87,16.37-54.92,10.69-83a221.91,221.91,0,0,0-11.75-39" transform="translate(-122.5 -109.75)" fill="none" stroke="#535461" stroke-miterlimit="10" stroke-width="2"/><path d="M264,406.31c0,10.26-18.58,40-18.58,40s-18.59-29.77-18.59-40a18.59,18.59,0,1,1,37.17,0Z" transform="translate(-122.5 -109.75)" fill="#6c63ff"/><path d="M294.76,463.17c-5.58,8.62-37.36,23.5-37.36,23.5s.57-35.09,6.15-43.7a18.59,18.59,0,0,1,31.21,20.2Z" transform="translate(-122.5 -109.75)" fill="#6c63ff"/><path d="M293.41,560.34c-9.16,4.62-44.11,1.42-44.11,1.42s18.21-30,27.38-34.62a18.59,18.59,0,0,1,16.73,33.2Z" transform="translate(-122.5 -109.75)" fill="#6c63ff"/><path d="M275.84,633.63c-8.25,6.1-43.23,8.86-43.23,8.86s12.87-32.65,21.13-38.75a18.59,18.59,0,0,1,22.1,29.89Z" transform="translate(-122.5 -109.75)" fill="#6c63ff"/><path d="M218.37,488.66c7.36,7.15,41.67,14.56,41.67,14.56s-8.4-34.07-15.77-41.22a18.58,18.58,0,1,0-25.9,26.66Z" transform="translate(-122.5 -109.75)" fill="#6c63ff"/><path d="M198.91,574.63c9.16,4.63,44.11,1.43,44.11,1.43s-18.21-30-27.37-34.62a18.59,18.59,0,1,0-16.74,33.19Z" transform="translate(-122.5 -109.75)" fill="#6c63ff"/><path d="M191.46,660.79c8.25,6.1,43.24,8.86,43.24,8.86S221.82,637,213.56,630.9a18.59,18.59,0,0,0-22.1,29.89Z" transform="translate(-122.5 -109.75)" fill="#6c63ff"/><path d="M264,406.31c0,10.26-18.58,40-18.58,40s-18.59-29.77-18.59-40a18.59,18.59,0,1,1,37.17,0Z" transform="translate(-122.5 -109.75)" opacity="0.25"/><path d="M294.76,463.17c-5.58,8.62-37.36,23.5-37.36,23.5s.57-35.09,6.15-43.7a18.59,18.59,0,0,1,31.21,20.2Z" transform="translate(-122.5 -109.75)" opacity="0.25"/><path d="M293.41,560.34c-9.16,4.62-44.11,1.42-44.11,1.42s18.21-30,27.38-34.62a18.59,18.59,0,0,1,16.73,33.2Z" transform="translate(-122.5 -109.75)" opacity="0.25"/><path d="M275.84,633.63c-8.25,6.1-43.23,8.86-43.23,8.86s12.87-32.65,21.13-38.75a18.59,18.59,0,0,1,22.1,29.89Z" transform="translate(-122.5 -109.75)" opacity="0.25"/><path d="M218.37,488.66c7.36,7.15,41.67,14.56,41.67,14.56s-8.4-34.07-15.77-41.22a18.58,18.58,0,1,0-25.9,26.66Z" transform="translate(-122.5 -109.75)" opacity="0.25"/><path d="M198.91,574.63c9.16,4.63,44.11,1.43,44.11,1.43s-18.21-30-27.37-34.62a18.59,18.59,0,1,0-16.74,33.19Z" transform="translate(-122.5 -109.75)" opacity="0.25"/><path d="M191.46,660.79c8.25,6.1,43.24,8.86,43.24,8.86S221.82,637,213.56,630.9a18.59,18.59,0,0,0-22.1,29.89Z" transform="translate(-122.5 -109.75)" opacity="0.25"/><path d="M1012.28,691s-24.67-83.76,4.63-145.41c12.29-25.87,16.38-54.92,10.7-83a223.63,223.63,0,0,0-11.75-39" transform="translate(-122.5 -109.75)" fill="none" stroke="#535461" stroke-miterlimit="10" stroke-width="2"/><path d="M1034.09,384.68c0,10.26-18.59,40-18.59,40s-18.59-29.77-18.59-40a18.59,18.59,0,1,1,37.18,0Z" transform="translate(-122.5 -109.75)" fill="#6c63ff"/><path d="M1064.81,441.54c-5.58,8.62-37.36,23.5-37.36,23.5s.58-35.09,6.16-43.7a18.58,18.58,0,0,1,31.2,20.2Z" transform="translate(-122.5 -109.75)" fill="#6c63ff"/><path d="M1063.47,538.71c-9.17,4.62-44.12,1.42-44.12,1.42s18.22-30,27.38-34.62a18.59,18.59,0,0,1,16.74,33.2Z" transform="translate(-122.5 -109.75)" fill="#6c63ff"/><path d="M1045.9,612c-8.26,6.1-43.24,8.86-43.24,8.86s12.88-32.65,21.13-38.75A18.59,18.59,0,0,1,1045.9,612Z" transform="translate(-122.5 -109.75)" fill="#6c63ff"/><path d="M988.42,467c7.37,7.15,41.67,14.56,41.67,14.56s-8.4-34.07-15.76-41.22A18.59,18.59,0,1,0,988.42,467Z" transform="translate(-122.5 -109.75)" fill="#6c63ff"/><path d="M969,553c9.17,4.63,44.12,1.43,44.12,1.43s-18.21-30-27.38-34.62A18.59,18.59,0,1,0,969,553Z" transform="translate(-122.5 -109.75)" fill="#6c63ff"/><path d="M961.51,639.16c8.26,6.1,43.24,8.86,43.24,8.86s-12.88-32.64-21.13-38.75a18.59,18.59,0,0,0-22.11,29.89Z" transform="translate(-122.5 -109.75)" fill="#6c63ff"/><path d="M901,682.85s-13.26-45,2.49-78.14a71.17,71.17,0,0,0,5.75-44.6,119.74,119.74,0,0,0-6.32-20.94" transform="translate(-122.5 -109.75)" fill="none" stroke="#535461" stroke-miterlimit="10" stroke-width="2"/><path d="M912.72,518.23c0,5.52-10,21.52-10,21.52s-10-16-10-21.52a10,10,0,0,1,20,0Z" transform="translate(-122.5 -109.75)" fill="#6c63ff"/><path d="M929.23,548.79c-3,4.63-20.08,12.63-20.08,12.63s.31-18.86,3.31-23.49a10,10,0,0,1,16.77,10.86Z" transform="translate(-122.5 -109.75)" fill="#6c63ff"/><path d="M928.51,601c-4.93,2.48-23.71.76-23.71.76s9.79-16.12,14.71-18.6a10,10,0,0,1,9,17.84Z" transform="translate(-122.5 -109.75)" fill="#6c63ff"/><path d="M919.06,640.39c-4.43,3.28-23.23,4.76-23.23,4.76s6.92-17.54,11.36-20.82a10,10,0,1,1,11.87,16.06Z" transform="translate(-122.5 -109.75)" fill="#6c63ff"/><path d="M888.18,562.49c4,3.84,22.39,7.82,22.39,7.82s-4.51-18.31-8.47-22.15a10,10,0,1,0-13.92,14.33Z" transform="translate(-122.5 -109.75)" fill="#6c63ff"/><path d="M877.72,608.69c4.93,2.48,23.71.77,23.71.77s-9.79-16.12-14.72-18.61a10,10,0,0,0-9,17.84Z" transform="translate(-122.5 -109.75)" fill="#6c63ff"/><path d="M873.72,655c4.43,3.28,23.23,4.76,23.23,4.76S890,642.21,885.6,638.93A10,10,0,0,0,873.72,655Z" transform="translate(-122.5 -109.75)" fill="#6c63ff"/><path d="M387.18,157.43H380.3a4.82,4.82,0,1,0,0-9.63H324.57a4.82,4.82,0,1,0,0,9.63h6.88a4.82,4.82,0,1,0,0,9.64h-9.63a4.82,4.82,0,1,0,0,9.63h55.73a4.82,4.82,0,1,0,0-9.63h9.63a4.82,4.82,0,1,0,0-9.64Z" transform="translate(-122.5 -109.75)" fill="#252223" opacity="0.1"/><path d="M633.18,278.43H626.3a4.82,4.82,0,1,0,0-9.63H570.57a4.82,4.82,0,1,0,0,9.63h6.88a4.82,4.82,0,0,0,0,9.64h-9.63a4.82,4.82,0,1,0,0,9.63h55.73a4.82,4.82,0,1,0,0-9.63h9.63a4.82,4.82,0,1,0,0-9.64Z" transform="translate(-122.5 -109.75)" fill="#252223" opacity="0.1"/><path d="M1052.18,120.43h-6.88a4.82,4.82,0,1,0,0-9.63H989.57a4.82,4.82,0,1,0,0,9.63h6.88a4.82,4.82,0,0,0,0,9.64h-9.63a4.82,4.82,0,1,0,0,9.63h55.73a4.82,4.82,0,1,0,0-9.63h9.63a4.82,4.82,0,0,0,0-9.64Z" transform="translate(-122.5 -109.75)" fill="#252223" opacity="0.1"/><path d="M828,638.59a1.5,1.5,0,0,0,0-3,1.5,1.5,0,0,0,0,3Z" transform="translate(-122.5 -109.75)" fill="#535461"/><g opacity="0.5"><path d="M644.53,552.76,630,484.36l1.49,0-.23-1.16h.42l-7.52-37s.38-38.65,2.21-53.6c1.34-10.91,3.46-24.81,1.91-36.51a11,11,0,0,0,.59-1,10.55,10.55,0,0,0,1.14-4,16.49,16.49,0,0,0-1.26-9.65L643.86,332c.34,0,.69.07,1,.09,0-.14-.14-.36-.25-.65a33.6,33.6,0,0,0,33.26-21.85,22.28,22.28,0,0,0,4.87,5.24c4.07,3.05,10.48,3.73,13.87-.06a11.67,11.67,0,0,0,2.43-5.23c.2-.86.34-1.74.46-2.61,1.92-10.22-2.29-20.76-7.72-29.72-6.79-11.19-15.8-21.32-27.25-27.68s-25.5-8.64-37.89-4.4-24.87,15.75-26,28.8c-.56,6.67.24,9.76-1.14,16.31-.69,3.26.8,9.61.78,13.21a16.3,16.3,0,0,0-.24,2c-.2,4,1.39,7.78,2.55,11.62-16.34.82-59.31,4.13-71.72,16.75-15.44,15.69-53.3,21.3-53.3,21.3l-63.05,12.69-22,9.34.25,1-.44.19s.78,2.91,1.9,6.75a28.57,28.57,0,0,0-9.09,17c-1.22,6.79-.57,15.53,3.73,26.68,0,0,21.71,39.87,23.21,55.95l27.4,54.69c-2.35,4.69-25.83,52.09-29.87,78.62a54.21,54.21,0,0,0-.65,5.77s-.15,1.4-.52,3.73c-1.61,9.83-6.7,34-19.13,45.3l0,0h0l.16.14h0l0,0-.36.35.28.24c-3.73,7.13,1.66,16.79,1.66,16.79l6.13,27.38,6.86,1.11,7.22-2.94,4,7.69s31.15,5,40,4.71-7.5-15.29-13.23-19.74c-3.18-2.46-5.67-12.57-7.25-21.08a13.26,13.26,0,0,0,2.23-2.31s-3.81-20,7.66-47.44c4.89-11.68,10.15-25.11,14.6-36.68,2.39,15.54,4.9,31.55,6.75,42.48,2.69,15.83,2.34,25.49,1.51,30.94A18.38,18.38,0,0,1,466.2,680a1.4,1.4,0,0,1,.1.16,2.86,2.86,0,0,1-.19.41c.06.1.12.19.17.29-6.26,7.16.26,18.84.26,18.84L472.67,727l6.86,1.11,7.22-2.94,4,7.69s31.15,5,40,4.71-7.5-15.29-13.24-19.74c-4.47-3.47-7.57-22.1-8.72-30.09.83-.08,1.29-.14,1.29-.14l-.09-.55.19,0-3.92-22.92c-6.7-5.77-5.77-87.74-5.77-87.74s-3.49,8.57-3.6,7.88c.34-1.38,1.6-5.28,4.52-13.59A81.77,81.77,0,0,0,505.2,556c3.17-19.51-2.74-31.44-2.74-31.44.39-3.92-3.74-19.15-8.62-35.37l15.33-29.88a12.22,12.22,0,0,0,6.68.55l11.61-21s24-14.3,30.87-13.19c6.39,1,26.41-3.38,34.15-11.72A15.83,15.83,0,0,0,594,412c6.23-9.55,3.67,49.86,3.67,49.86l-3.33,20.58-.18,1.14,9.93.2,23.4,80.26s1.47,27.22,28.06,33.27S644.53,552.76,644.53,552.76ZM484.7,460c-1.44-4.44-2.7-8.27-3.65-11.14L486,445s.62.52,1.67,1.35Z" transform="translate(-122.5 -109.75)" fill="url(#a5ac7b16-889c-4327-95b5-489bb9690718)"/></g><path d="M508.83,679.06s3.39,28.56,9,32.9,21.53,18.91,12.9,19.23-39-4.58-39-4.58l-3.93-7.5-7,2.86-6.69-1.08-6-26.69s-8.42-15.08,3.43-21.17S508.83,679.06,508.83,679.06Z" transform="translate(-122.5 -109.75)" fill="#3a384d"/><path d="M480.34,444.91S503.89,515,503,524c0,0,8.63,17.4-.89,44.45s-1,6.13-1,6.13-.9,79.89,5.62,85.52l3.82,22.34s-36.72,4.36-42.9-6.93c0,0,4.78-8.37.1-36S454.05,551,454.05,551L429.61,412.13Z" transform="translate(-122.5 -109.75)" opacity="0.1"/><path d="M480.43,444.35s23.55,70.13,22.66,79.13c0,0,8.63,17.4-.89,44.45s-1,6.13-1,6.13-.9,79.9,5.62,85.52l3.82,22.35s-36.72,4.35-42.9-6.94c0,0,4.78-8.37.1-36s-13.71-88.54-13.71-88.54L429.7,411.57Z" transform="translate(-122.5 -109.75)" fill="#bec7de"/><path d="M435.76,415.21l23.95,136.14s9,60.91,13.71,88.54-.1,36-.1,36c1.8,3.29,6.17,5.24,11.47,6.37-7.44-.87-14.15-2.9-16.49-7.18,0,0,4.79-8.37.11-36s-13.71-88.54-13.71-88.54L430.26,411.66Z" transform="translate(-122.5 -109.75)" opacity="0.1"/><path d="M435.39,670.05s3.38,28.56,9,32.9,21.53,18.91,12.9,19.23-39-4.58-39-4.58l-3.93-7.5-7,2.87-6.69-1.09-6-26.69s-8.42-15.08,3.42-21.17S435.39,670.05,435.39,670.05Z" transform="translate(-122.5 -109.75)" fill="#3a384d"/><path d="M480.34,444.91S503.89,515,503,524c0,0,8.63,17.4-.89,44.45s-1,6.13-1,6.13-.9,79.89,5.62,85.52l3.82,22.34s-36.72,4.36-42.9-6.93c0,0,4.78-8.37.1-36S454.05,551,454.05,551L429.61,412.13Z" transform="translate(-122.5 -109.75)" opacity="0.1"/><path d="M405.71,383.11s-26.21,10.06-12.11,46.64c0,0,21.17,38.86,22.64,54.54l26.8,53.5s-28.58,56.56-29.85,82.08c0,0-3.82,34.26-19.24,48.34,0,0,33.17,28.23,45.52,11.93,0,0-3.71-19.46,7.48-46.24S471.41,571,471.41,571s32.09-21.69,10.71-66.31l-24-99.35-.39-22.36-18.41-6.4Z" transform="translate(-122.5 -109.75)" opacity="0.1"/><path d="M404.51,383.48s-26.21,10.06-12.11,46.64c0,0,21.16,38.87,22.63,54.55l26.8,53.5S413.25,594.72,412,620.25c0,0-3.82,34.25-19.25,48.34,0,0,33.17,28.23,45.53,11.93,0,0-3.72-19.47,7.47-46.24s24.46-62.94,24.46-62.94,32.1-21.69,10.72-66.31l-24-99.35-.39-22.36-18.4-6.4Z" transform="translate(-122.5 -109.75)" opacity="0.1"/><path d="M404.6,382.93S378.39,393,392.49,429.57c0,0,15.55,28.55,20.91,46.58a139,139,0,0,0,9,22.49l19.52,39s-28.58,56.56-29.84,82.08c0,0-3.82,34.26-19.25,48.34,0,0,33.17,28.23,45.53,11.93,0,0-3.72-19.46,7.47-46.24s24.46-62.94,24.46-62.94,32.1-21.69,10.72-66.31l-24-99.35-.39-22.36-18.4-6.4Z" transform="translate(-122.5 -109.75)" fill="#bec7de"/><path d="M404.6,382.93l33.65-6.57,4.39,1.53L411.29,384s-26.21,10.06-12.11,46.64c0,0,15.54,28.55,20.91,46.58a139,139,0,0,0,9,22.49l19.53,39S420,595.25,418.77,620.77c0,0-3.83,34.26-19.25,48.34,0,0,14.29,12.16,27.6,15.91-14.68-.3-34.29-17-34.29-17,15.43-14.08,19.25-48.34,19.25-48.34,1.26-25.52,29.84-82.08,29.84-82.08l-19.52-39a139,139,0,0,1-9-22.49c-5.36-18-20.91-46.58-20.91-46.58C378.39,393,404.6,382.93,404.6,382.93Z" transform="translate(-122.5 -109.75)" opacity="0.1"/><path d="M512.59,454.12l-20.87,40.65s6.12,54.16-5.57,55.7-7-59.44-7-59.44l11.25-51.93Z" transform="translate(-122.5 -109.75)" fill="#be7c5e"/><path d="M626.66,480.56,641.58,551s36.62,49.37,10.7,43.47S624.93,562,624.93,562l-25-85.8Z" transform="translate(-122.5 -109.75)" fill="#be7c5e"/><path d="M641.53,335.45l-36.9,23.2-13.17-35.29s30.54,2.08,34.1-9.35S641.53,335.45,641.53,335.45Z" transform="translate(-122.5 -109.75)" fill="#be7c5e"/><polygon points="500.08 240.37 497.72 230.26 461.35 232.39 446.7 291.2 473.99 292.18 489.27 268.35 497.6 245.11 500.08 240.37" fill="#be7c5e"/><path d="M610,339.51l3-16.95s-67.31.84-82.36,16.13-51.95,20.77-51.95,20.77l-61.46,12.36-21.49,9.11s6.06,22.7,8.66,24.27,31.62-22.34,31.62-22.34l11,2.92L411.2,423.44l66.11,65,1.22-35.82L487,446s20.13,17,29.11,14.42l11.32-20.47s23.4-13.94,30.09-12.86c6.23,1,25.75-3.29,33.29-11.42a14.26,14.26,0,0,0,1.44-1.83c6.08-9.31,3.58,48.6,3.58,48.6l-3.42,21.17,36.47.75-7.32-36.06s.37-37.67,2.15-52.25,5-34.63-1.53-47.13l-12.84,12.22L587,397l8.48-31.22Z" transform="translate(-122.5 -109.75)" opacity="0.1"/><path d="M610.19,338.39,607,321s-61.09,1.28-76.14,16.57-52,20.76-52,20.76l-61.46,12.37L396,379.82s6.06,22.7,8.66,24.26,31.63-22.33,31.63-22.33l11,2.92-35.82,37.66,66.11,65,1.22-35.83,8.5-6.63s20.13,17,29.11,14.43l11.32-20.47S551,424.89,557.73,426c6.23,1,25.75-3.3,33.29-11.43a14.26,14.26,0,0,0,1.44-1.83c6.08-9.31,3.58,48.61,3.58,48.61l-3.42,21.17,36.47.75-7.32-36.06s.37-37.68,2.15-52.25,5-34.64-1.53-47.13L609.55,360l-22.37,35.83,8.48-31.22Z" transform="translate(-122.5 -109.75)" fill="#7faff2"/><path d="M533.14,360.53s-36.41,30.71-40.22,47.25" transform="translate(-122.5 -109.75)" opacity="0.1"/><path d="M572.89,387s-28,21.2-33,34.68" transform="translate(-122.5 -109.75)" opacity="0.1"/><path d="M491.12,418.92s-2.63,12.72-3.15,19.5" transform="translate(-122.5 -109.75)" opacity="0.1"/><path d="M477.81,448.21S435.87,410.56,430,411.33" transform="translate(-122.5 -109.75)" opacity="0.1"/><path d="M626,314.65c3.41-10.94,14.93,18.72,15.9,21.27a30.83,30.83,0,0,1-3.27-.36,32.6,32.6,0,0,1-21.76-13.79C621.36,320.36,624.94,318.13,626,314.65Z" transform="translate(-122.5 -109.75)" opacity="0.1"/><circle cx="520.91" cy="192.85" r="32.74" fill="#be7c5e"/><path d="M670,307.32c2.57,4.23,4.91,8.82,8.88,11.78s10.22,3.63,13.52-.06a11.4,11.4,0,0,0,2.36-5.1c2.42-10.31-1.81-21-7.3-30.09-6.62-10.91-15.41-20.78-26.56-27s-24.86-8.43-36.94-4.29-22,15.2-23,27.92c-.55,6.5,1.09,13.13-.26,19.52-.7,3.33-2.21,6.5-2.38,9.9-.32,6.31,4,12.18,3.61,18.49-.24,3.89-2.23,7.42-3.45,11.13-3,8.94-1.38,18.67-2,28.07s-4.73,19.94-13.73,22.72c9.95,5,23.67-.26,27.72-10.64,1.23-3.17,1.68-6.69,3.55-9.53,3.16-4.8,9.73-6.7,12.38-11.8s.35-11.31-2.55-16.26-6.52-9.93-6.58-15.66a13.78,13.78,0,0,1,9-12.82c2.73-.95,5.68-1,8.55-1.32a45.27,45.27,0,0,0,19.84-7.57C662.35,299.68,664.41,298.12,670,307.32Z" transform="translate(-122.5 -109.75)" opacity="0.1"/><path d="M670.21,305.89c2.57,4.24,4.91,8.82,8.88,11.79s10.22,3.63,13.52-.06a11.45,11.45,0,0,0,2.36-5.1c2.42-10.31-1.81-21-7.3-30.09-6.62-10.92-15.41-20.78-26.56-27s-24.86-8.42-36.94-4.29-24.24,15.36-25.31,28.08c-.55,6.5.24,9.51-1.11,15.89-.7,3.33.93,10,.76,13.38-.32,6.31,4,12.18,3.61,18.49-.24,3.89-2.23,7.42-3.45,11.12-3,8.95-1.38,18.68-2,28.08s-4.73,19.93-13.73,22.71c9.95,5,23.67-.26,27.72-10.64,1.23-3.16,1.68-6.68,3.55-9.52,3.16-4.8,9.73-6.7,12.38-11.8s.35-11.32-2.54-16.27-6.53-9.92-6.59-15.66a13.78,13.78,0,0,1,9-12.81c2.73-.95,5.68-1,8.55-1.32a45.39,45.39,0,0,0,19.84-7.57C662.58,298.25,664.64,296.7,670.21,305.89Z" transform="translate(-122.5 -109.75)" fill="#723647"/><rect x="600.5" y="322.05" width="18.03" height="3.95" rx="1.98" transform="translate(1037.04 631.38) rotate(-170.82)" fill="#252a62"/><path d="M573.64,601.2c.23,15.66,13.44,28,29.1,28h2.18a7.38,7.38,0,0,1,5.16,2.08,7.14,7.14,0,0,1,2.09,3.66,6.67,6.67,0,0,1,.22,1.73v27.65a27.69,27.69,0,0,0,4.38,15,39.57,39.57,0,0,1,6.52,21.34h0A13.34,13.34,0,0,0,636.87,714c7.32-.13,13.06-6.43,13.06-13.76v-6.91l3.64.42v6.93A13.33,13.33,0,0,0,667.14,714c7.33-.13,13.07-6.43,13.07-13.76v-3.5c3.63,1.52,24.22,1.52,29.93,0l1.55-.12v4A13.34,13.34,0,0,0,725.27,714c7.32-.13,13.06-6.43,13.06-13.76V694.5l1.21-.11v6.3A13.34,13.34,0,0,0,753.12,714a13.56,13.56,0,0,0,13-11.89,16.47,16.47,0,0,0,.12-1.87V671.32a44.31,44.31,0,0,0-9.45-27.4,8.22,8.22,0,0,1-.23-9.7c6.78-9.93,16.81-26.69,16.48-38.57a13,13,0,0,0-3.17-8.79c-.13-.15-.27-.29-.4-.43-9.76-10.22-26.94-2.18-25.45,11.87a39.71,39.71,0,0,1-1,14.05,43.54,43.54,0,0,1-2.73,7.53,12.8,12.8,0,0,1-13.07,7.27,44.6,44.6,0,0,0-5.46-.33h-56a15.73,15.73,0,0,1-14.9-10.67,15.2,15.2,0,0,1-.85-5.07v-43.6a8.48,8.48,0,0,0-8.74-8.48,8.28,8.28,0,0,0-5.85,2.73,9.09,9.09,0,0,0-2.36,6.1,4.48,4.48,0,0,1-4.49,4.49H602.1a28.46,28.46,0,0,0-28.46,28.88Z" transform="translate(-122.5 -109.75)" fill="#f3ad55"/><path d="M740,704a13.34,13.34,0,0,0,13.16,10,13.56,13.56,0,0,0,13-11.89C758,699.94,746.82,698.44,740,704Z" transform="translate(-122.5 -109.75)" fill="#fbdca3"/><path d="M712.1,704a13.35,13.35,0,0,0,13.17,10,13.55,13.55,0,0,0,12.94-11.89C730.15,699.94,719,698.44,712.1,704Z" transform="translate(-122.5 -109.75)" fill="#fbdca3"/><path d="M654,704a13.34,13.34,0,0,0,13.16,10,13.56,13.56,0,0,0,13-11.89C672,699.94,660.84,698.44,654,704Z" transform="translate(-122.5 -109.75)" fill="#fbdca3"/><path d="M623.7,704a13.34,13.34,0,0,0,13.17,10,13.55,13.55,0,0,0,12.94-11.89C641.75,699.94,630.57,698.44,623.7,704Z" transform="translate(-122.5 -109.75)" fill="#fbdca3"/><path d="M742.94,612.35c9.41-3.78,20.89-10.7,30-16.7a13,13,0,0,0-3.17-8.79c-.13-.15-.27-.29-.4-.43-9.76-10.22-26.94-2.18-25.45,11.87A39.71,39.71,0,0,1,742.94,612.35Z" transform="translate(-122.5 -109.75)" fill="#fbdca3"/><path d="M731.55,626.9s-25.91,32.62-68.3-.08" transform="translate(-122.5 -109.75)" fill="#fbdca3"/><path d="M649.93,566.27s-15.74,20.59,0,46" transform="translate(-122.5 -109.75)" fill="#fbdca3"/><path d="M612.39,636.51s13.87,17.22.18,30.92" transform="translate(-122.5 -109.75)" fill="#fbdca3"/><path d="M611.18,632.87c1,1,.68,1.9,1,3.32l45-11.79c-2.42-1.87-5.43-4.08-6.42-7C645.38,621.55,634.71,628.57,611.18,632.87Z" transform="translate(-122.5 -109.75)" opacity="0.1"/><path d="M610.08,631.32a7.14,7.14,0,0,1,2.09,3.66l43.89-11.44a15.69,15.69,0,0,1-5.28-7.39C645.38,620.34,633.61,627,610.08,631.32Z" transform="translate(-122.5 -109.75)" fill="#383f4d"/><path d="M649.13,618.57S635.4,628.9,612.39,632.1" transform="translate(-122.5 -109.75)" opacity="0.1"/><path d="M649.13,617.36s-13.73,10.33-36.74,13.53" transform="translate(-122.5 -109.75)" fill="#f3ad55"/><path d="M614.81,618.34s-23,7.27-29.06-15.74Z" transform="translate(-122.5 -109.75)" opacity="0.1"/><path d="M614.81,617.13s-23,7.27-29.06-15.74Z" transform="translate(-122.5 -109.75)" fill="#fbdca3"/><ellipse cx="451.14" cy="488.61" rx="2.42" ry="4.24" fill="#383f4d"/><path d="M757.1,685.55l-4.84-38.75s14.53,23,4.84,38.75" transform="translate(-122.5 -109.75)" opacity="0.1"/><path d="M751.05,646.8s14.53,23,4.84,38.75Z" transform="translate(-122.5 -109.75)" fill="#fbdca3"/></svg>