<svg height="512pt" viewBox="0 -12 512 512" width="512pt" xmlns="http://www.w3.org/2000/svg"><path d="m134.042969 488.03125c-4.128907 0-8.296875-.804688-12.28125-2.453125-12.003907-4.972656-19.761719-16.582031-19.761719-29.574219v-34.003906c0-12.132812-9.867188-22-22-22-44.113281 0-80-35.886719-80-80v-240c0-44.113281 35.886719-80 80-80h352c44.113281 0 80 35.886719 80 80v140c0 11.046875-8.953125 20-20 20s-20-8.953125-20-20v-140c0-22.054688-17.945312-40-40-40h-352c-22.054688 0-40 17.945312-40 40v240c0 22.054688 17.945312 40 40 40 34.1875 0 62 27.8125 62 62v14.714844l43.550781-43.550782c21.386719-21.386718 49.820313-33.164062 80.066407-33.164062h166.382812c22.054688 0 40-17.945312 40-40 0-11.046875 8.953125-20 20-20s20 8.953125 20 20c0 44.109375-35.886719 80-80 80h-166.382812c-19.558594 0-37.949219 7.617188-51.78125 21.445312l-57.191407 57.191407c-6.136719 6.140625-14.289062 9.394531-22.601562 9.394531zm141.957031-187.03125c0-11.046875-8.953125-20-20-20s-20 8.953125-20 20 8.953125 20 20 20 20-8.953125 20-20zm0-70v-13.984375c0-1.132813.648438-2.207031 1.511719-2.496094 28.484375-9.492187 47.578125-37.105469 46.4375-67.148437-1.339844-35.289063-30.03125-63.980469-65.320313-65.320313-18.664062-.710937-36.351562 6.023438-49.785156 18.957031-13.441406 12.941407-20.84375 30.339844-20.84375 48.992188 0 11.046875 8.953125 20 20 20s20-8.953125 20-20c0-7.679688 3.050781-14.847656 8.585938-20.175781 5.527343-5.324219 12.820312-8.097657 20.523437-7.804688 14.515625.550781 26.316406 12.355469 26.871094 26.871094.46875 12.390625-7.390625 23.773437-19.117188 27.683594-17.261719 5.753906-28.863281 22.003906-28.863281 40.441406v13.984375c0 11.046875 8.953125 20 20 20s20-8.953125 20-20zm0 0"/></svg>