<svg enable-background="new 0 0 256 256" height="512" viewBox="0 0 256 256" width="512" xmlns="http://www.w3.org/2000/svg"><path d="m43.49 53.906c-17.538 17.538-27.505 6.057-32.263 29.274-.647 3.155-1.985 6.148-4.025 8.641-3.25 3.971-7.268 10.829-2.531 16.591l-.129.309c-5.476 10.951 8.171 18.96 15.061 20.804 2.356.63 4.695 1.342 6.909 2.365 16.012 7.398 30.814 5.765 42.326 5.036 13.338-.845 23.696-11.956 23.696-25.321v-55.622c0-9.919-8.77-17.574-18.59-16.172-9.711 1.385-21.421 5.063-30.454 14.095z" fill="#7ccc4e"/><path d="m173.704 39.556c-47.091-1.811-71.618 16.174-81.17 25.611v46.437c0 4.993-1.448 9.67-3.954 13.616 1.371 4.353 4.718 9.092 12.809 9.092h25.022c.372-.421.753-.839 1.161-1.247 0 0-17.455-6.234-21.196-14.962s8.728-17.455 16.208-9.974c7.481 7.481 23.689 12.468 19.949 23.689 0 0-.756.946-1.849 2.494h43.355c-4.887-12.112-7.733-27.405 5.872-32.417 23.689-8.728 39.898 22.443 39.898 22.443s3.74 7.481-3.063 13.176c-3.056 2.558-7.462 2.747-11.168 1.278-4.865-1.929-11.643-5.643-14.733-12.028.91 2.385 2.32 6.298 3.571 10.696 12.467 5.497 21.386 17.653 22.007 32.078.512 11.891-2.109 25.952-11.576 40.829-21.158 33.248-55.368 30.924-67.349 26.132-10-4-17.434-10.939-17.434-21.651 0-13.715 12.468-22.443 22.443-22.443 7.481 0 14.26 4.909 19.286 11.046 1.328 1.621 3.945.287 3.457-1.751-2.07-8.661-8.589-20.9-28.978-19.269-38.528 3.082-46.132 71.068 14.962 71.068s92.266-60.586 92.266-104.224-14.962-107.226-79.796-109.719z" fill="#7ccc4e"/><g fill="#3aa03a"><path d="m42.446 54.911c11.048-1.806 36.218-3.055 50.089 19.092v-18.02c0-9.919-8.77-17.574-18.59-16.172-9.713 1.385-21.423 5.064-30.455 14.096-.353.352-.697.674-1.044 1.004z"/><circle cx="53.707" cy="85.74" r="19.334"/><path d="m173.704 56.847c62.554 2.189 78.679 56.137 79.736 95.599.036-1.066.059-2.126.059-3.171 0-43.638-14.962-107.225-79.796-109.719-47.091-1.811-71.618 16.174-81.17 25.611v14.988c9.554-8.589 34.081-24.957 81.171-23.308z"/><path d="m229.811 124.338s3.74 7.481-3.063 13.176c-3.056 2.559-7.462 2.747-11.168 1.278-5.453-2.162-13.324-6.557-15.693-14.454 0 0 7.204 17.178 7.204 28.63 0 5.944-6.088 10.05-11.637 7.92-4.524-1.736-11.8-3.416-18.415-.022-2.621 1.345-5.83.038-6.864-2.72-.919-2.449.199-5.201 2.58-6.282 3.951-1.794 10.681-3.586 19.652-1.343 0 0-26.183-39.898-2.494-48.625s39.898 22.442 39.898 22.442z"/><path d="m122.585 108.13c-7.481-7.481-19.949 1.247-16.208 9.974s21.196 14.962 21.196 14.962c-7.481 7.481-8.728 17.455-8.728 17.455-8.773-2.193-15.402-.528-19.386 1.224-2.226.98-3.591 3.376-3.044 5.746.738 3.199 4.241 4.823 7.062 3.376 8.049-4.131 16.011-.609 19.199.281 4.944 1.376 9.79-2.611 9.878-7.742l.007-.391c0-8.728 9.974-21.196 9.974-21.196 3.74-11.221-12.469-16.208-19.95-23.689z"/></g><path d="m39.163 118.434h-13.824c-5.328 0-10.292-.987-14.753-2.934-3.439-1.5-6.079-3.351-7.846-5.499-.876-1.067-.723-2.643.344-3.52 1.067-.875 2.641-.722 3.52.344 1.26 1.533 3.272 2.91 5.982 4.093 3.826 1.669 8.117 2.516 12.753 2.516h13.824c1.381 0 2.5 1.119 2.5 2.5s-1.119 2.5-2.5 2.5z"/><path d="m54.476 140.107c-8.789 0-18.612-1.144-29.013-5.948-2.165-1-4.504-1.684-6.506-2.22-5.125-1.371-13.885-5.931-17.01-12.875-1.503-3.34-1.548-6.896-.144-10.352-3.302-5.176-2.104-11.672 3.465-18.476 1.712-2.091 2.925-4.705 3.51-7.559 2.906-14.182 7.856-16.725 15.691-19.698 4.843-1.838 10.333-3.922 17.253-10.842 7.938-7.937 18.661-12.917 31.87-14.801 5.385-.769 10.83.837 14.944 4.406 4.13 3.582 6.499 8.772 6.499 14.24v55.622c0 14.673-11.438 26.892-26.038 27.816l-2.437.161c-3.745.254-7.792.526-12.084.526zm21.765-97.96c-.646 0-1.295.046-1.942.138-12.114 1.729-21.885 6.233-29.041 13.389-7.678 7.679-13.964 10.064-19.014 11.981-6.49 2.464-10.066 3.82-12.567 16.027-.747 3.644-2.316 7.005-4.539 9.722-3.088 3.773-6.034 9.164-2.535 13.42.589.716.733 1.697.376 2.552l-.129.309c-.021.052-.045.104-.07.154-1.24 2.479-1.329 4.826-.272 7.174 2.266 5.035 9.4 8.936 13.742 10.097 2.208.591 4.803 1.352 7.312 2.511 14.319 6.615 27.818 5.703 38.663 4.974.834-.057 1.653-.112 2.457-.163 11.975-.758 21.354-10.785 21.354-22.826v-55.624c0-4.018-1.74-7.831-4.775-10.464-2.524-2.188-5.73-3.371-9.02-3.371z"/><path d="m18.246 104.729h-1.442c-1.381 0-2.5-1.119-2.5-2.5s1.119-2.5 2.5-2.5h1.442c1.381 0 2.5 1.119 2.5 2.5s-1.119 2.5-2.5 2.5z"/><path d="m92.535 76.503c-.845 0-1.653-.43-2.119-1.173-13.192-21.065-37.66-19.57-47.566-17.952-1.076.177-2.153-.371-2.642-1.354s-.28-2.168.515-2.924l.218-.207c.259-.246.519-.491.782-.755 7.939-7.939 18.662-12.92 31.87-14.803 5.382-.771 10.828.837 14.942 4.404 4.131 3.583 6.5 8.774 6.5 14.242v18.021c0 1.115-.738 2.095-1.81 2.402-.228.068-.46.099-.69.099zm-39.265-24.971c11.146 0 25.904 2.766 36.766 14.964v-10.514c0-4.018-1.74-7.832-4.775-10.465-3.02-2.618-7.015-3.792-10.961-3.232-9.632 1.373-17.783 4.503-24.316 9.326 1.051-.05 2.15-.079 3.286-.079z"/><path d="m46.635 88.484c-1.377 0-2.495-1.114-2.5-2.492-.008-2.557.979-4.964 2.782-6.777 1.802-1.814 4.203-2.817 6.76-2.825h.032c5.264 0 9.554 4.273 9.571 9.542.005 1.381-1.111 2.503-2.492 2.508-.002 0-.005 0-.008 0-1.377 0-2.495-1.114-2.5-2.492-.008-2.516-2.058-4.558-4.572-4.558-.005 0-.01 0-.016 0-1.222.004-2.368.482-3.229 1.35-.861.866-1.333 2.016-1.329 3.237.005 1.381-1.111 2.503-2.492 2.508-.001-.001-.004-.001-.007-.001z"/><path d="m53.707 107.573c-12.039 0-21.833-9.795-21.833-21.834s9.794-21.833 21.833-21.833 21.834 9.794 21.834 21.833-9.795 21.834-21.834 21.834zm0-38.667c-9.282 0-16.833 7.551-16.833 16.833s7.551 16.834 16.833 16.834 16.834-7.552 16.834-16.834-7.552-16.833-16.834-16.833z"/><path d="m253.44 154.945c-.003 0-.006 0-.009 0-1.352-.005-2.454-1.082-2.49-2.433-2.188-81.724-54.805-92.379-77.325-93.168-45.39-1.579-69.234 13.521-79.409 22.669-.735.661-1.79.824-2.689.424-.901-.401-1.482-1.296-1.482-2.283v-14.987c0-.668.268-1.309.743-1.778 10.741-10.612 35.82-28.137 83.021-26.331 29.851 1.147 52.159 14.851 66.309 40.729 13.827 25.288 15.891 55.644 15.891 71.487 0 1.073-.023 2.161-.061 3.256-.045 1.347-1.151 2.415-2.499 2.415zm-79.648-100.596c28.868 1.01 50.72 12.776 64.946 34.971 1.479 2.307 2.834 4.66 4.076 7.05-1.903-5.503-4.238-10.962-7.093-16.184-13.247-24.227-34.145-37.057-62.113-38.132-44.269-1.708-68.013 14.074-78.573 24.17v8.614c12.471-9.556 36.904-21.946 78.757-20.489z"/><path d="m198.5 163.953c-1.331 0-2.667-.24-3.941-.729-4.343-1.667-10.711-3.043-16.379-.132-1.859.953-4.054 1.064-6.018.307-1.999-.773-3.577-2.367-4.329-4.373-1.377-3.677.331-7.821 3.888-9.438 3.519-1.598 8.856-3.12 15.738-2.458-4.628-8.233-12.826-25.301-8.936-37.099 1.645-4.987 5.186-8.515 10.525-10.481 25.466-9.382 42.808 23.304 42.979 23.636.007.012.013.023.019.035 1.599 3.198 2.885 10.703-3.694 16.211-3.557 2.978-8.806 3.621-13.693 1.686-2.458-.975-5.178-2.29-7.743-4.034 1.452 5.169 2.675 10.979 2.675 15.886 0 3.591-1.786 6.962-4.777 9.019-1.89 1.296-4.096 1.964-6.314 1.964zm-12.976-7.56c4.051 0 7.843 1.019 10.825 2.163 1.89.726 3.94.473 5.632-.689 1.658-1.14 2.609-2.925 2.609-4.897 0-8.243-4.035-19.904-5.982-25.051-.438-.904-.814-1.856-1.115-2.861-.382-1.273.3-2.622 1.551-3.071 1.252-.448 2.635.16 3.149 1.387.065.157.454 1.091 1.022 2.577 2.722 5.363 8.566 8.648 13.286 10.52 3.132 1.243 6.525.9 8.642-.871 5.131-4.296 2.645-9.702 2.44-10.122-.466-.874-15.7-29.013-36.807-21.234-3.892 1.434-6.347 3.84-7.506 7.356-1.795 5.443-.463 13.608 3.852 23.613 3.36 7.793 7.334 13.878 7.373 13.938.565.861.545 1.98-.052 2.819-.596.839-1.646 1.225-2.645.979-8.201-2.052-14.322-.482-18.011 1.193-1.173.532-1.732 1.907-1.274 3.13.252.671.781 1.205 1.451 1.464.646.25 1.33.216 1.931-.092 3.195-1.639 6.49-2.251 9.629-2.251z"/><path d="m124.666 163.921c-.889 0-1.782-.12-2.66-.365-.427-.118-.931-.28-1.504-.465-3.65-1.174-9.762-3.141-15.884.001-2.031 1.04-4.39 1.081-6.476.111-2.118-.984-3.636-2.861-4.163-5.149-.805-3.486 1.076-7.103 4.473-8.597 3.967-1.745 10.256-3.384 18.438-1.912.769-3.123 2.555-8.492 6.466-13.48-1.699-.736-3.884-1.754-6.182-3.015-6.913-3.791-11.319-7.815-13.096-11.961-2.161-5.043-.3-10.675 4.633-14.014 4.261-2.884 10.749-3.605 15.641 1.287 2.06 2.059 4.893 3.951 7.892 5.954 7.447 4.974 15.889 10.612 12.662 20.293-.094.279-.235.541-.419.771-2.622 3.283-9.428 13.21-9.428 19.635l-.007.436c-.057 3.297-1.673 6.447-4.324 8.427-1.8 1.343-3.917 2.043-6.062 2.043zm-12.89-7.507c4.3 0 8.001 1.191 10.258 1.918.501.161.942.304 1.313.407 1.513.421 3.073.113 4.39-.869 1.42-1.061 2.286-2.745 2.315-4.506l.007-.394c0-8.66 8.475-20.069 10.224-22.331 1.545-5.433-3.088-9.004-10.816-14.165-3.068-2.05-6.242-4.169-8.649-6.577-3.072-3.07-6.93-2.286-9.303-.682-2.402 1.626-4.212 4.701-2.84 7.904 2.71 6.322 15.168 11.955 19.739 13.593.807.288 1.409.97 1.597 1.806s-.065 1.71-.671 2.315c-6.795 6.796-8.003 15.906-8.015 15.998-.089.71-.478 1.348-1.067 1.752-.591.403-1.328.534-2.02.363-8.064-2.019-14.116-.522-17.772 1.086-1.182.521-1.876 1.765-1.615 2.896.18.776.689 1.41 1.399 1.74.678.314 1.437.307 2.086-.026 3.245-1.664 6.484-2.228 9.44-2.228zm30.758-24.595h.01z"/><path d="m161.236 256c-14.772 0-27.012-3.971-35.395-11.484-7.313-6.554-11.562-15.704-11.964-25.766-.71-17.755 11.14-37.125 32.197-38.811 22.658-1.808 29.533 12.492 31.609 21.181.489 2.051-.493 4.139-2.388 5.078-1.908.946-4.093.479-5.436-1.162-3.1-3.783-9.474-10.13-17.353-10.13-8.15 0-19.942 7.102-19.942 19.942 0 10.732 8.626 16.436 15.862 19.33 9.986 3.995 43.244 7.952 64.311-25.152 8.007-12.582 11.771-25.831 11.188-39.38-.563-13.11-8.425-24.566-20.518-29.898-.681-.3-1.192-.888-1.396-1.603-1.215-4.267-2.575-8.06-3.503-10.489-.478-1.251.115-2.656 1.345-3.187 1.228-.535 2.658-.001 3.241 1.206 2.713 5.604 8.787 8.962 13.404 10.792 3.131 1.242 6.523.901 8.642-.87 5.229-4.377 2.549-9.907 2.432-10.141-.133-.255-15.474-29.073-36.797-21.216-3.468 1.278-5.781 3.313-7.07 6.224-2.258 5.095-1.341 13.018 2.651 22.912.311.771.219 1.646-.246 2.334s-1.241 1.102-2.072 1.102h-43.354c-.935 0-1.79-.521-2.22-1.351-.43-.829-.361-1.829.178-2.592.725-1.026 1.308-1.799 1.639-2.229 1.548-5.434-3.085-9.005-10.815-14.167-3.068-2.05-6.242-4.169-8.649-6.577-3.072-3.07-6.93-2.286-9.303-.682-2.402 1.626-4.212 4.701-2.84 7.904 2.71 6.322 15.168 11.955 19.739 13.593.807.288 1.409.97 1.597 1.806s-.065 1.71-.671 2.315c-.371.371-.719.754-1.058 1.137-.475.535-1.155.842-1.871.842h-25.02c-7.596 0-12.991-3.85-15.193-10.841-.222-.703-.121-1.469.274-2.091 2.332-3.673 3.564-7.918 3.564-12.276v-46.436c0-.668.268-1.309.743-1.778 10.741-10.612 35.82-28.137 83.021-26.331 29.851 1.147 52.159 14.851 66.309 40.729 13.828 25.288 15.892 55.644 15.892 71.487 0 23.984-8.867 50.144-23.721 69.976-12.555 16.766-35.073 36.75-71.043 36.75zm-11.407-71.215c-1.071 0-2.188.045-3.355.139-18.06 1.445-28.215 18.231-27.6 33.626.626 15.687 12.084 32.45 42.362 32.45 33.901 0 55.169-18.896 67.041-34.747 14.229-18.998 22.723-44.036 22.723-66.979 0-15.366-1.985-44.775-15.278-69.089-13.247-24.227-34.145-37.057-62.113-38.132-44.269-1.708-68.013 14.074-78.573 24.17v45.381c0 4.896-1.276 9.674-3.703 13.896 1.693 4.244 4.994 6.312 10.058 6.312h17.149c-5.505-2.851-12.109-7.239-14.46-12.724-2.161-5.043-.3-10.675 4.633-14.014 4.261-2.884 10.749-3.605 15.641 1.287 2.06 2.059 4.893 3.951 7.892 5.954 6.882 4.597 15.4 10.286 12.903 19.496h35.276c-3.416-9.736-3.852-17.588-1.288-23.373 1.841-4.153 5.176-7.145 9.913-8.89 10.644-3.923 21.51-.986 31.424 8.487 7.229 6.908 11.383 14.815 11.556 15.148 1.617 3.233 2.903 10.738-3.677 16.246-3.409 2.854-8.372 3.566-13.08 1.913 8.155 6.961 13.175 17.008 13.651 28.087.628 14.592-3.398 28.816-11.965 42.278-22.882 35.959-59.397 31.507-70.387 27.111-12.433-4.974-19.005-13.263-19.005-23.973 0-14.699 13.145-24.942 24.942-24.942 6.788 0 13.721 3.607 19.711 10.211-2.405-7.548-8.306-15.329-22.391-15.329z"/><path d="m207.366 81.953c-.51 0-1.024-.155-1.469-.479-.126-.091-13.516-9.496-39.674-9.496-26.248 0-38.498 7.059-38.618 7.13-1.185.697-2.719.312-3.424-.872-.704-1.183-.323-2.711.858-3.42.533-.32 13.381-7.838 41.184-7.838 27.922 0 42.028 10.026 42.615 10.453 1.116.812 1.363 2.375.551 3.492-.489.674-1.25 1.03-2.023 1.03z"/></svg>