<?xml version="1.0"?>
<svg xmlns="http://www.w3.org/2000/svg" xmlns:xlink="http://www.w3.org/1999/xlink" version="1.1" id="Capa_1" x="0px" y="0px" viewBox="0 0 512 512" style="enable-background:new 0 0 512 512;" xml:space="preserve" width="512px" height="512px"><g><g>
	<g>
		<path d="M256,140c-63.963,0-116,52.038-116,116s52.037,116,116,116c11.947,0,23.735-1.813,35.036-5.39    c10.531-3.333,16.365-14.572,13.032-25.103c-3.332-10.531-14.574-16.366-25.103-13.033C271.573,330.814,263.847,332,256,332    c-41.906,0-76-34.093-76-76s34.094-76,76-76s76,34.093,76,76c0,7.283-1.024,14.479-3.045,21.386    c-3.101,10.602,2.98,21.709,13.582,24.81c10.604,3.101,21.709-2.98,24.811-13.582C370.435,278.058,372,267.084,372,256    C372,192.038,319.963,140,256,140z" data-original="#000000" class="active-path" data-old_color="#000000" fill="#6334DC"/>
	</g>
</g><g>
	<g>
		<path d="M452,186.001h-10.071c-2.65,0-5.052-1.669-6.092-4.187l-0.178-0.432c-1.077-2.594-0.562-5.481,1.311-7.355l7.123-7.122    c23.394-23.394,23.394-61.459,0-84.853L429.951,67.91c-11.333-11.333-26.401-17.574-42.427-17.574    c-16.028,0-31.095,6.241-42.427,17.574l-7.121,7.121c-1.875,1.875-4.765,2.389-7.347,1.316l-0.377-0.156    c-2.583-1.067-4.251-3.468-4.251-6.117V60c0-33.084-26.916-60-60-60h-20c-33.084,0-60,26.916-60,60v10.074    c0,2.649-1.668,5.05-4.229,6.107l-0.391,0.162c-2.591,1.078-5.481,0.563-7.354-1.311l-7.122-7.122    c-11.332-11.333-26.4-17.574-42.427-17.574c-16.027,0-31.094,6.241-42.427,17.574L67.909,82.05    c-23.394,23.395-23.394,61.459,0.001,84.854l7.121,7.121c1.874,1.875,2.388,4.762,1.281,7.43l-0.121,0.292    c-1.066,2.583-3.469,4.252-6.118,4.252H60c-33.084,0-60,26.916-60,60v20c0,33.084,26.916,60,60,60h10.072    c2.65,0,5.051,1.669,6.092,4.187l0.178,0.432c1.077,2.594,0.562,5.481-1.312,7.355l-7.121,7.122    c-11.333,11.333-17.574,26.4-17.574,42.427c0,16.026,6.241,31.093,17.573,42.426L82.05,444.09    c11.333,11.333,26.401,17.574,42.427,17.574c16.028,0,31.095-6.241,42.427-17.574l7.121-7.121    c1.873-1.875,4.764-2.389,7.347-1.316l0.377,0.156c2.583,1.067,4.251,3.468,4.251,6.117V452c0,33.084,26.916,60,60,60h20    c33.084,0,60-26.916,60-60v-10.074c0-2.649,1.668-5.05,4.229-6.107l0.391-0.162c2.593-1.076,5.481-0.562,7.354,1.311l7.122,7.122    c11.332,11.333,26.4,17.574,42.427,17.574c16.027,0,31.094-6.241,42.427-17.574l14.142-14.142    c11.332-11.332,17.573-26.4,17.573-42.426c0-16.027-6.241-31.094-17.573-42.426l-7.122-7.122    c-1.875-1.874-2.389-4.761-1.312-7.355l0.151-0.366c1.067-2.583,3.469-4.252,6.118-4.252H452c33.084,0,60-26.916,60-60v-20    C512,212.917,485.084,186.001,452,186.001z M472,266c0,11.028-8.972,20-20,20h-10.073c-18.905,0-35.818,11.376-43.089,28.983    l-0.13,0.314c-7.298,17.599-3.384,37.6,9.976,50.961l7.123,7.122c3.777,3.777,5.857,8.8,5.857,14.142    c0,5.342-2.08,10.364-5.858,14.142l-14.141,14.142c-3.779,3.777-8.801,5.858-14.143,5.858c-5.343,0-10.365-2.08-14.142-5.858    l-7.123-7.123c-13.368-13.365-33.381-17.276-50.991-9.962l-0.282,0.117C297.377,406.108,286,423.021,286,441.926V452    c0,11.028-8.972,20-20,20h-20c-11.028,0-20-8.972-20-20v-10.074c0-18.905-11.377-35.818-29.005-43.097l-0.27-0.112    c-5.89-2.447-12.047-3.636-18.137-3.636c-12.111,0-23.951,4.709-32.846,13.603l-7.122,7.123    c-3.778,3.777-8.799,5.857-14.142,5.857c-5.342,0-10.365-2.081-14.142-5.858l-14.142-14.142c-3.778-3.778-5.858-8.8-5.858-14.142    c0-5.342,2.08-10.365,5.858-14.142l7.122-7.122c13.361-13.361,17.275-33.362,9.976-50.961l-0.13-0.314    C105.89,297.376,88.977,286,70.073,286H60c-11.028,0-20-8.972-20-20v-20c0-11.028,8.972-20,20-20h10.073    c18.905,0,35.818-11.376,43.116-29.047l0.093-0.227c7.312-17.604,3.4-37.616-9.967-50.984l-7.121-7.121    c-7.799-7.799-7.799-20.487,0-28.285l14.141-14.142c3.779-3.777,8.801-5.858,14.143-5.858c5.343,0,10.365,2.08,14.142,5.858    l7.123,7.123c13.369,13.366,33.382,17.278,50.991,9.962l0.282-0.117C214.623,105.892,226,88.979,226,70.074V60    c0-11.028,8.972-20,20-20h20c11.028,0,20,8.972,20,20v10.074c0,18.905,11.377,35.818,29.005,43.096l0.27,0.112    c17.601,7.31,37.614,3.399,50.983-9.967l7.122-7.123c3.778-3.777,8.799-5.857,14.142-5.857c5.342,0,10.365,2.081,14.142,5.858    l14.142,14.142c7.799,7.798,7.799,20.486,0.001,28.284l-7.123,7.123c-13.366,13.368-17.278,33.379-9.996,50.91l0.15,0.365    C406.11,214.624,423.023,226,441.927,226H452c11.028,0,20,8.972,20,20V266z" data-original="#000000" class="active-path" data-old_color="#000000" fill="#6334DC"/>
	</g>
</g></g> </svg>
