<svg id="b957563f-f3ae-41bc-84ab-fc01e4d69de7" data-name="Layer 1" xmlns="http://www.w3.org/2000/svg" width="832" height="690.68939" viewBox="0 0 832 690.68939"><title>verified</title><ellipse cx="416" cy="666.68939" rx="416" ry="24" fill="#e6e6e6"/><path d="M838.124,336.988s-12.40214-4.42933-20.375,13.288-20.37494,37.20641-20.37494,37.20641l7.08694,1.77174s1.77173-12.40214,6.20107-14.17388l-1.77174,15.94561s53.152,18.60321,77.07044-1.77173l-.88587-6.20107s3.54347.88586,3.54347,6.20107l2.6576-2.6576s-2.6576-5.31521-10.6304-12.40214c-5.233-4.65156-7.03129-13.50109-7.64926-19.034a23.03336,23.03336,0,0,0-5.3029-12.54328C862.3951,336.47666,852.74079,329.95023,838.124,336.988Z" transform="translate(-184 -104.6553)" fill="#2f2e41"/><polygon points="581.286 384.321 592.884 399.082 600.264 390.647 593.938 380.104 581.286 384.321" fill="#fbbebe"/><polygon points="577.069 610.998 572.852 633.138 583.395 638.41 590.775 633.138 590.775 610.998 577.069 610.998" fill="#fbbebe"/><polygon points="650.87 610.998 655.088 633.138 644.545 638.41 637.164 633.138 637.164 610.998 650.87 610.998" fill="#fbbebe"/><polygon points="607.644 411.733 592.884 517.164 571.797 613.106 597.101 616.269 617.133 526.653 642.436 450.743 639.273 541.413 634.002 616.269 652.979 616.269 666.685 515.056 681.841 439.805 681.445 411.733 607.644 411.733" fill="#2f2e41"/><path d="M764.23181,735.68488s-5.27154-6.32585-8.43447-3.16293-10.54308,15.81463-10.54308,15.81463-16.86894,9.48878-3.16293,11.5974,17.92325,0,17.92325-1.05431,2.10862-4.21723,2.10862-4.21723l5.27154,1.0543,7.38016-2.10861s3.16293-19.42585,0-18.67455S765.28612,738.84781,764.23181,735.68488Z" transform="translate(-184 -104.6553)" fill="#2f2e41"/><path d="M831.70757,735.68488s5.27154-6.32585,8.43447-3.16293,10.54309,15.81463,10.54309,15.81463,16.86893,9.48878,3.16292,11.5974-17.92325,0-17.92325-1.05431-2.10861-4.21723-2.10861-4.21723l-5.27155,1.0543-7.38016-2.10861s-3.16292-19.42585,0-18.67455S830.65326,738.84781,831.70757,735.68488Z" transform="translate(-184 -104.6553)" fill="#2f2e41"/><circle cx="657.7235" cy="265.71162" r="21.08617" fill="#fbbebe"/><path d="M855.95667,383.54578s-2.10862,17.92325-1.05431,22.14048,3.16293,10.54309,3.16293,10.54309l-33.73788-6.32585s9.48878-20.03187,7.38016-23.19479S855.95667,383.54578,855.95667,383.54578Z" transform="translate(-184 -104.6553)" fill="#fbbebe"/><path d="M859.1196,408.84919,824.32741,401.469,804.29554,523.76884a45.67559,45.67559,0,0,1,27.412,1.0543c14.76032,5.27155,34.79219,0,34.79219,0L862.28252,409.9035Z" transform="translate(-184 -104.6553)" fill="#6c63ff"/><path d="M831.4138,391.78275l-12.35793,6.52335L803.24124,401.469,786.3723,441.53276l2.10861,28.46633s-17.92324,32.68357-20.03186,50.60682c0,0,2.10862,27.412,36.9008,26.35772l23.19479-64.31283s9.48878-48.4982,0-62.20422C828.54464,420.44658,835.33726,394.74818,831.4138,391.78275Z" transform="translate(-184 -104.6553)" fill="#2f2e41"/><path d="M809.56709,401.469l-3.41389-.58239-2.912.58239s-7.38017,1.05431-15.81463,8.43447-36.90081,30.575-39.00943,36.9008-1.0543,16.86894,2.10862,23.19479,9.48878,14.76032,9.48878,14.76032l3.16293,7.38016,17.92324-5.27154s-11.59739-22.14048-10.54308-31.62926l21.08617-16.86894Z" transform="translate(-184 -104.6553)" fill="#2f2e41"/><path d="M854.78918,396.54925l15.92781,19.6801,8.43447,10.54309-10.54309,35.84649-5.27154,30.575s12.6517,48.4982,2.10862,63.25852c0,0-6.32585,7.38016-8.43447-1.0543s-2.10862-48.4982-2.10862-48.4982-8.43447-52.71544-4.21723-66.42145S850.45877,399.00964,854.78918,396.54925Z" transform="translate(-184 -104.6553)" fill="#2f2e41"/><path d="M869.66268,549.07224v10.54309s-2.10862,34.79219,8.43447,30.575,3.16293-30.575,3.16293-30.575l-1.05431-11.5974Z" transform="translate(-184 -104.6553)" fill="#fbbebe"/><path d="M818.21832,371.49114c8.0189-5.8034,14.51-12.48772,18.80392-20.439,0,0,14.71612,16.35124,23.7093,17.1688s.81756-19.62149.81756-19.62149l-16.35124-4.08781-15.53368,1.63513-12.26343,8.17562Z" transform="translate(-184 -104.6553)" fill="#2f2e41"/><polygon points="686.717 318.954 695.151 322.117 696.206 332.66 700.423 396.973 698.314 445.471 682.5 446.526 677.228 392.756 675.12 333.715 686.717 318.954" fill="#2f2e41"/><path d="M614,263.08561h-3.66313V162.73537A58.08,58.08,0,0,0,552.2567,104.6553H339.65126a58.08,58.08,0,0,0-58.08017,58.08007V713.26463a58.08,58.08,0,0,0,58.08017,58.08007H552.2567a58.08,58.08,0,0,0,58.08017-58.08007v-378.748H614Z" transform="translate(-184 -104.6553)" fill="#3f3d56"/><path d="M597.97482,163.1406V712.85993a43.37625,43.37625,0,0,1-43.37549,43.37549H340.97379a43.37629,43.37629,0,0,1-43.37549-43.37549V163.1406a43.37632,43.37632,0,0,1,43.37549-43.37549H366.8892a20.61744,20.61744,0,0,0,19.08152,28.38874H507.77027a20.61754,20.61754,0,0,0,19.08158-28.38874h27.74748A43.37629,43.37629,0,0,1,597.97482,163.1406Z" transform="translate(-184 -104.6553)" fill="#fff"/><polygon points="212.286 474.693 207.793 474.693 209.291 386.937 210.788 386.937 212.286 474.693" fill="#e6e6e6"/><path d="M400.02937,436.34217l7.2519-11.20747a168.02248,168.02248,0,0,0-7.44-17.41632l-4.68931,3.7875,3.713-5.73823c-3.53853-6.96546-6.32286-11.35408-6.32286-11.35408s-14.54392,22.91888-19.403,47.18476l9.30587,14.38184-10.302-8.32089a67.97925,67.97925,0,0,0-.5652,8.52411c0,28.7389,9.386,52.03639,20.9643,52.03639s20.96431-23.29749,20.96431-52.03639c0-8.90935-2.01558-18.23048-4.796-26.85284Z" transform="translate(-184 -104.6553)" fill="#e6e6e6"/><polygon points="329.245 474.693 324.752 474.693 326.25 386.937 327.747 386.937 329.245 474.693" fill="#e6e6e6"/><path d="M516.98825,436.34217l7.2519-11.20747a168.02248,168.02248,0,0,0-7.44-17.41632l-4.68931,3.7875,3.713-5.73823c-3.53853-6.96546-6.32286-11.35408-6.32286-11.35408s-14.54392,22.91888-19.403,47.18476l9.30587,14.38184-10.302-8.32089a67.97925,67.97925,0,0,0-.5652,8.52411c0,28.7389,9.386,52.03639,20.9643,52.03639s20.96431-23.29749,20.96431-52.03639c0-8.90935-2.01558-18.23048-4.796-26.85284Z" transform="translate(-184 -104.6553)" fill="#e6e6e6"/><circle cx="208.86661" cy="142.51762" r="41.2796" fill="#e6e6e6"/><polygon points="266.043 461.916 256.78 461.916 259.868 280.971 262.955 280.971 266.043 461.916" fill="#e6e6e6"/><path d="M457.76188,271.7062l14.95271-23.10872A346.44778,346.44778,0,0,0,457.374,212.68674l-9.6689,7.80945,7.65586-11.83167c-7.2961-14.36211-13.0371-23.411-13.0371-23.411s-29.98817,47.25649-40.007,97.29037l19.1878,29.654L400.26294,295.041a140.16386,140.16386,0,0,0-1.16539,17.57587c0,59.25682,19.35307,107.294,43.22635,107.294s43.22634-48.03715,43.22634-107.294c0-18.3702-4.15593-37.58946-9.88882-55.36792Z" transform="translate(-184 -104.6553)" fill="#e6e6e6"/><path d="M604.20638,592.65271V715.661a45.176,45.176,0,0,1-45.17521,45.17521H336.542A45.176,45.176,0,0,1,291.36674,715.661V604.64538a212.73036,212.73036,0,0,1,312.83964-11.99267Z" transform="translate(-184 -104.6553)" fill="#3f3d56"/><circle cx="264.01977" cy="546.13015" r="63.20824" fill="#6c63ff" opacity="0.2"/><circle cx="264.01977" cy="546.13015" r="50.89495" fill="#6c63ff"/><polygon points="258.084 567.89 240.147 544.829 250.578 536.716 259.07 547.635 287.759 517.351 297.353 526.439 258.084 567.89" fill="#fff"/></svg>