<svg height="512" viewBox="0 0 512 512" width="512" xmlns="http://www.w3.org/2000/svg"><path d="m440 112h16v16h-16z" fill="#743b20"/><path d="m144 344h32v144h-32z" fill="#f7a116"/><path d="m232 136v32a32 32 0 0 1 -32 32h-48v32l17.6 23.47a31.982 31.982 0 0 1 6.29 16.53c.07.88.11 1.78.11 2.67v13.33h24a16 16 0 0 1 16 16v16h-40v48h-19.2l-11.08 13.85a47.877 47.877 0 0 1 14.28 34.15v32h16a40 40 0 0 1 40 40h-152a40 40 0 0 1 -40-40v-62.82a96.016 96.016 0 0 1 12.36-47.12l7.28-12.93a96.007 96.007 0 0 0 12.36-47.11v-150.02a40 40 0 0 1 40-40h44.92a40.008 40.008 0 0 1 37.14 25.14l5.94 14.86h40a8 8 0 0 1 8 8z" fill="#ffb531"/><circle cx="140" cy="132" fill="#7a432a" r="12"/><path d="m160 168h-16a47.747 47.747 0 0 0 12.324 32h35.676a32.034 32.034 0 0 1 -32-32z" fill="#7a432a"/><path d="m56 200h96v32h-96z" fill="#f35244"/><path d="m128 200h24v32h-24z" fill="#ea4a3b"/><path d="m152 488h-88a40.047 40.047 0 0 1 -40-40v-8h16v8a24.027 24.027 0 0 0 24 24h78.988a32.056 32.056 0 0 0 -30.988-24h-48v-16h48a48.052 48.052 0 0 1 48 48 8 8 0 0 1 -8 8z" fill="#f7a116"/><path d="m208 128h16a8 8 0 0 1 8 8v16a0 0 0 0 1 0 0h-16a8 8 0 0 1 -8-8v-16a0 0 0 0 1 0 0z" fill="#7a432a"/><g fill="#f7a116"><path d="m88 208a32.034 32.034 0 0 1 -32-32v-40h16v40a16 16 0 0 0 32 0v-40h16v40a32.034 32.034 0 0 1 -32 32z"/><path d="m176 368h-67.2a20.822 20.822 0 0 1 -20.8-20.8v-67.2h16v67.2a4.8 4.8 0 0 0 4.8 4.8h67.2z"/><path d="m176 274.67v13.33h-16a8.011 8.011 0 0 0 -8 8v32h-16v-32a24.032 24.032 0 0 1 24-24h15.89c.07.88.11 1.78.11 2.67z"/></g><path d="m488 496v-166.64a40.108 40.108 0 0 0 -32.88-39.36l-55.12-10v-64h-64v64l-59.892 10.89a40 40 0 0 0 -32.393 33.355l-23.935 134.315a25.347 25.347 0 0 0 -.4 4.24 24.838 24.838 0 0 0 49.12 5.2l12.38-50.88c1.92 11.04 7.44 21.76 15.12 30.88v48z" fill="#fec9a3"/><path d="m455.12 290-40.2-7.293-21.32 53.293h-51.2l-21.315-53.288-44.978 8.178a40 40 0 0 0 -32.392 33.355l-23.935 134.315a25.347 25.347 0 0 0 -.4 4.24 24.838 24.838 0 0 0 49.12 5.2l12.38-50.88c1.92 11.04 7.44 21.76 15.12 30.88v48h192v-166.64a40.108 40.108 0 0 0 -32.88-39.36z" fill="#ebebe9"/><path d="m488 329.36v166.64h-192v-48c-7.68-9.12-13.2-19.84-15.12-30.88l-12.38 50.88a24.838 24.838 0 0 1 -49.12-5.2 25.347 25.347 0 0 1 .4-4.24l23.94-134.31a39.992 39.992 0 0 1 32.39-33.36l44.97-8.18 46.92 117.29 46.92-117.29 40.2 7.29a40.116 40.116 0 0 1 32.87 38.41c.01.31.01.63.01.95z" fill="#4db7e5"/><path d="m488 329.36v166.64h-192v-8.66c64.97-19.12 149.36-62.26 191.99-158.93.01.31.01.63.01.95z" fill="#48add9"/><path d="m448 496h-16v-48a8.011 8.011 0 0 1 1.875-5.148c15.238-18.133 17.773-43.36 6.305-62.782l13.781-8.14c14.422 24.429 11.949 55.77-5.961 78.89z" fill="#419bc2"/><path d="m464 440h-16v-16h8v-32a24 24 0 0 0 -48 0v32h8v16h-16a8 8 0 0 1 -8-8v-40a40 40 0 0 1 80 0v40a8 8 0 0 1 -8 8z" fill="#4c5d72"/><path d="m440 360h-16v-72a16.019 16.019 0 0 0 -16-16h-8v-16h8a32.034 32.034 0 0 1 32 32z" fill="#4c5d72"/><path d="m312 392h-16v-104a32.034 32.034 0 0 1 32-32h8v16h-8c-8.824 0-16 7.18-15.333 15.333z" fill="#4c5d72"/><circle cx="304" cy="400" fill="#ebebe9" r="24"/><path d="m360 400h16v96h-16z" fill="#419bc2"/><path d="m328 408h16v16h-16z" fill="#419bc2"/><path d="m328 480h16v16h-16z" fill="#419bc2"/><path d="m264 360h-48a40 40 0 0 1 -40-40h64a24 24 0 0 1 24 24z" fill="#fec9a3"/><path d="m264 360h-48v32h49.865z" fill="#ebebe9"/><path d="m265.865 392h-49.865v69.075a26.925 26.925 0 1 0 53.77-2.065z" fill="#4db7e5"/><path d="m372.824 256a43.894 43.894 0 0 0 27.176-9.81v-30.19h-64v30.19a43.894 43.894 0 0 0 27.176 9.81z" fill="#feb784"/><circle cx="448" cy="64" fill="#61311b" r="40"/><path d="m440 112v56a72 72 0 0 1 -69.33 71.95c-.88.03-1.78.05-2.67.05a72.006 72.006 0 0 1 -72-72v-56a64 64 0 0 1 64-64h16a63.936 63.936 0 0 1 64 64z" fill="#fec9a3"/><path d="m440 112v56a72 72 0 0 1 -69.33 71.95 87.892 87.892 0 0 0 37.33-71.95v-64a87.6 87.6 0 0 0 -19.06-54.69 64.015 64.015 0 0 1 51.06 62.69z" fill="#fec093"/><path d="m332 152a12 12 0 1 1 12-12 12.013 12.013 0 0 1 -12 12z" fill="#7a432a"/><path d="m404 152a12 12 0 1 1 12-12 12.013 12.013 0 0 1 -12 12z" fill="#7a432a"/><path d="m456 104v16h-16a94.162 94.162 0 0 1 -45.29-49.22l-2.71-6.78-18.59 23.91a236.387 236.387 0 0 1 -42.13 41.97 236.578 236.578 0 0 1 -51.28 30.12v-56a79.989 79.989 0 0 1 76.84-79.93c1.05-.05 2.1-.07 3.16-.07h16a80 80 0 0 1 80 80z" fill="#7a432a"/><path d="m368 200a24.027 24.027 0 0 1 -24-24h16a8 8 0 0 0 16 0h16a24.027 24.027 0 0 1 -24 24z" fill="#f7a468"/><path d="m440 120h8a24 24 0 0 1 24 24 24 24 0 0 1 -24 24h-8a0 0 0 0 1 0 0v-48a0 0 0 0 1 0 0z" fill="#feb784"/><path d="m456 104v16h-16a94.115 94.115 0 0 1 -32.69-27.04 88.138 88.138 0 0 0 -50.47-68.89c1.05-.05 2.1-.07 3.16-.07h16a80 80 0 0 1 80 80z" fill="#743b20"/></svg>