<?xml version="1.0" encoding="UTF-8"?>
<svg width="24px" height="24px" viewBox="0 0 24 24" version="1.1" xmlns="http://www.w3.org/2000/svg" xmlns:xlink="http://www.w3.org/1999/xlink">
    <!-- Generator: Sketch 64 (93537) - https://sketch.com -->
    <title>@1xIconly/Broken/Activity</title>
    <desc>Created with Sketch.</desc>
    <g id="Iconly/Broken/Activity" stroke="none" stroke-width="1" fill="none" fill-rule="evenodd">
        <g id="Activity" transform="translate(2.000000, 2.000000)" fill="#200E32" fill-rule="nonzero">
            <path d="M18.5593769,6.79017287 C18.9610428,6.79500189 19.2840764,7.12128333 19.2840764,7.52209253 L19.2840764,7.52209253 L19.2840764,13.9947315 C19.2840764,17.6984213 16.9685732,20 13.2566978,20 L13.2566978,20 L10.3048731,20 C9.89829739,20 9.56733821,19.6737307 9.56249802,19.2680803 C9.56727055,18.8609709 9.89686386,18.5321044 10.3048731,18.5273424 L10.3048731,18.5273424 L13.2566978,18.5273424 C16.1820091,18.5273424 17.7993263,16.9224101 17.8258397,13.9947315 L17.8258397,13.9947315 L17.8258397,7.52209253 C17.8258397,7.11786446 18.1542555,6.79017287 18.5593769,6.79017287 Z M12.5231605,0.776086015 C12.9297074,0.780915527 13.2566978,1.11114487 13.2566978,1.51682398 C13.2566978,1.71247872 13.1782169,1.89999431 13.0387346,2.0375122 C12.8992522,2.1750301 12.7103957,2.25110093 12.5143227,2.24874365 L12.5143227,2.24874365 L6.01854081,2.24874365 C3.09322949,2.24874365 1.47591236,3.86249422 1.47591236,6.79017287 L1.47591236,6.79017287 L1.47591236,13.9947315 C1.47591236,16.9224101 3.09322949,18.5273424 6.01854081,18.5273424 C6.42655005,18.5321044 6.75614336,18.8609709 6.76091588,19.2680803 C6.7560757,19.6737307 6.42511652,20 6.01854081,20 C2.30666542,20 3.55271368e-15,17.6984213 3.55271368e-15,13.9947315 L3.55271368e-15,13.9947315 L3.55271368e-15,6.79017287 C3.55271368e-15,3.07766471 2.30666542,0.776086015 6.01854081,0.776086015 L6.01854081,0.776086015 Z M13.6405699,7.47415709 C13.8986602,7.29834112 14.2463981,7.30338911 14.5010412,7.49883643 C14.7875146,7.71871466 14.8707838,8.11403406 14.697259,8.43037837 L14.697259,8.43037837 L11.8691634,12.0723401 C11.745354,12.2248371 11.5687763,12.3255161 11.3742467,12.354526 C11.1806403,12.3741653 10.9870465,12.3171652 10.835141,12.1957964 L10.835141,12.1957964 L8.12193686,10.0705839 L5.68270446,13.2363569 C5.56639108,13.3942512 5.39148033,13.4990132 5.19712938,13.52719 C5.00277843,13.5553667 4.80522024,13.5046048 4.64868203,13.3862681 C4.32921663,13.1363618 4.27016334,12.6767618 4.51611505,12.354526 L4.51611505,12.354526 L7.40607518,8.59792625 C7.52663161,8.44217824 7.70434594,8.34069843 7.89999886,8.31588215 C8.09565177,8.29106586 8.2931598,8.34495309 8.4489354,8.46565161 L8.4489354,8.46565161 L11.1621396,10.5908641 L13.5483452,7.54854746 Z M16.401155,0.199963635 C17.3717893,-0.204098898 18.4908164,0.015529541 19.2357623,0.756304368 C19.9807081,1.49707919 20.2046334,2.61288381 19.8029872,3.5827487 C19.4013411,4.55261359 18.4533477,5.1852406 17.4016253,5.1852406 C15.9700611,5.1852406 14.8081818,4.02987504 14.8032974,2.60147601 L14.8032974,2.60147601 L14.8091938,2.41743042 C14.8751213,1.44242571 15.4876169,0.580257785 16.401155,0.199963635 Z M17.4016253,1.48155075 C16.7817407,1.48155075 16.2792249,1.98295837 16.2792249,2.60147601 C16.2792249,3.21999366 16.7817407,3.72140128 17.4016253,3.72140128 C18.02151,3.72140128 18.5240257,3.21999366 18.5240257,2.60147601 C18.5240257,1.98295837 18.02151,1.48155075 17.4016253,1.48155075 Z"></path>
        </g>
    </g>
</svg>