<?xml version="1.0" encoding="UTF-8"?>
<svg width="24px" height="24px" viewBox="0 0 24 24" version="1.1" xmlns="http://www.w3.org/2000/svg" xmlns:xlink="http://www.w3.org/1999/xlink">
    <!-- Generator: Sketch 64 (93537) - https://sketch.com -->
    <title>@1xIconly/Bold/Activity</title>
    <desc>Created with Sketch.</desc>
    <g id="Iconly/Bold/Activity" stroke="none" stroke-width="1" fill="none" fill-rule="evenodd">
        <g id="Activity" transform="translate(1.999700, 2.000000)" fill="#200E32" fill-rule="nonzero">
            <path d="M13.45,1.7803 C13.41,2.0303 13.39,2.2803 13.39,2.5303 C13.39,4.7803 15.21,6.5993 17.45,6.5993 C17.7,6.5993 17.94,6.5703 18.19,6.5303 L18.19,6.5303 L18.19,14.5993 C18.19,17.9903 16.19,20.0003 12.79,20.0003 L12.79,20.0003 L5.401,20.0003 C2,20.0003 1.77635684e-15,17.9903 1.77635684e-15,14.5993 L1.77635684e-15,14.5993 L1.77635684e-15,7.2003 C1.77635684e-15,3.8003 2,1.7803 5.401,1.7803 L5.401,1.7803 Z M13.651,7.8603 C13.38,7.8303 13.111,7.9503 12.95,8.1703 L12.95,8.1703 L10.531,11.3003 L7.76,9.1203 C7.59,8.9903 7.39,8.9393 7.19,8.9603 C6.991,8.9903 6.811,9.0993 6.69,9.2593 L6.69,9.2593 L3.731,13.1103 L3.67,13.2003 C3.5,13.5193 3.58,13.9293 3.88,14.1503 C4.02,14.2403 4.17,14.3003 4.34,14.3003 C4.571,14.3103 4.79,14.1893 4.93,14.0003 L4.93,14.0003 L7.44,10.7693 L10.29,12.9103 L10.38,12.9693 C10.7,13.1393 11.1,13.0603 11.33,12.7593 L11.33,12.7593 L14.22,9.0303 L14.18,9.0503 C14.34,8.8303 14.37,8.5503 14.26,8.3003 C14.151,8.0503 13.91,7.8803 13.651,7.8603 Z M17.5901,1.77635684e-15 C18.9201,1.77635684e-15 20.0001,1.08 20.0001,2.41 C20.0001,3.74 18.9201,4.82 17.5901,4.82 C16.2601,4.82 15.1801,3.74 15.1801,2.41 C15.1801,1.08 16.2601,1.77635684e-15 17.5901,1.77635684e-15 Z"></path>
        </g>
    </g>
</svg>