<?xml version="1.0" encoding="UTF-8"?>
<svg width="24px" height="24px" viewBox="0 0 24 24" version="1.1" xmlns="http://www.w3.org/2000/svg" xmlns:xlink="http://www.w3.org/1999/xlink">
    <!-- Generator: Sketch 64 (93537) - https://sketch.com -->
    <title>@1xIconly/Broken/Bag</title>
    <desc>Created with Sketch.</desc>
    <g id="Iconly/Broken/Bag" stroke="none" stroke-width="1" fill="none" fill-rule="evenodd">
        <g id="Basket" transform="translate(2.500000, 2.000000)" fill="#200E32" fill-rule="nonzero">
            <path d="M5.89312969,1.63401017 C7.18608714,0.193148877 9.2031953,-0.355361447 11.0471682,0.232477327 C12.8911411,0.820316102 14.2193651,2.4352824 14.4409959,4.35897817 L14.4409959,4.35897817 L14.5894358,4.3619408 C16.0320293,4.41953302 17.6812199,5.3259023 18.1482924,7.87506592 L18.1482924,7.87506592 L18.9038078,13.7469324 C19.1937149,15.7862633 18.8159572,17.3597126 17.9374509,18.4057487 C17.0589446,19.4517848 15.6181943,19.9616175 13.5449195,19.9616175 L13.5449195,19.9616175 L5.54172718,19.9616175 C3.9039713,20.1671179 2.27213858,19.5386369 1.19475678,18.2874336 C0.117374985,17.0362303 -0.262494372,15.3284472 0.182838817,13.7381422 L0.182838817,13.7381422 L0.204676893,13.6359698 C0.308595333,13.2721161 0.667848274,13.0320392 1.05256004,13.087666 C1.47224561,13.1483498 1.7633029,13.5379658 1.7026547,13.9578977 C1.42810152,15.1086213 1.66869663,16.3219324 2.36153441,17.2806006 C3.21278531,18.0879587 4.36270211,18.5022992 5.53294211,18.4233291 L5.53294211,18.4233291 L13.5449195,18.4233291 C15.1350158,18.4233291 16.2331487,18.0893008 16.8041778,17.3948735 C17.3752069,16.7004462 17.6036185,15.5401372 17.3752069,13.9578977 L17.3752069,13.9578977 L16.6284765,8.14756272 C16.3649247,6.74112762 15.5479138,5.86210568 14.4409959,5.86210568 L14.4409959,5.86210568 L4.6368657,5.86210568 C3.58265815,5.86210568 2.76564731,6.74112762 2.44059998,8.20909425 L2.44059998,8.20909425 L2.22975847,9.5012565 C2.13292635,9.8960748 1.74718016,10.1485239 1.34686024,10.0790635 C0.946540322,10.0096031 0.668265259,9.64193825 0.70994259,9.23754992 L0.70994259,9.23754992 L0.929569162,7.91901701 C1.50938331,5.23800011 3.22247058,4.35897817 4.6368657,4.35897817 L4.6368657,4.35897817 L12.8772547,4.35897817 C12.7565915,3.58000694 12.3719875,2.86620985 11.7879069,2.33722772 C10.3999955,1.09522364 8.26884501,1.21325324 7.0264028,2.6009343 L7.0264028,2.6009343 L7.0264028,2.68883649 L6.94026918,2.76845555 C6.75776787,2.91311984 6.51757868,2.96919924 6.28659927,2.9161396 C6.01712329,2.85423668 5.80112265,2.65318792 5.71996271,2.38872644 C5.63880277,2.12426495 5.70481365,1.83656874 5.89312969,1.63401017 Z M12.4383364,8.32344582 L12.5522074,8.34094754 C12.6668264,8.36747635 12.7765308,8.41197721 12.8772547,8.47280083 C12.9670814,8.54373125 13.0468748,8.62652847 13.1144514,8.71892697 C13.1525621,8.76156168 13.179702,8.81285597 13.1935169,8.8683607 C13.2202671,8.92070354 13.2380828,8.9771531 13.2462273,9.03537487 C13.2552916,9.09362541 13.2552916,9.15292872 13.2462273,9.21117926 C13.2491968,9.32648631 13.2251268,9.44088581 13.1759468,9.54520759 C13.1319069,9.65850998 13.0592634,9.7584534 12.9651053,9.83528483 C12.8029063,10.0009051 12.5818739,10.0956889 12.3501509,10.0989914 C12.2328864,10.0943227 12.117165,10.0705711 12.0075335,10.0286697 C11.8243521,9.91975422 11.6869768,9.74793427 11.6209907,9.54520759 C11.5745152,9.44025592 11.5534459,9.32581224 11.5594953,9.21117926 C11.5505699,9.15291804 11.5505699,9.09363609 11.5594953,9.03537487 L11.5594953,9.03537487 L11.5594953,8.8683607 L11.6473459,8.71892697 C11.6723518,8.66774342 11.7083499,8.62271947 11.7527666,8.58707368 L11.7527666,8.58707368 L11.8845426,8.47280083 C11.9335151,8.43953301 11.9866916,8.41292917 12.0426737,8.39368886 C12.0955144,8.36823465 12.1517224,8.35047434 12.2095899,8.34094754 C12.3222888,8.31469495 12.4395084,8.31469495 12.5522074,8.34094754 Z M6.82468123,8.33223604 L6.93855218,8.34973776 C6.99673979,8.35788702 7.05315624,8.3757132 7.10546837,8.40247908 C7.15943802,8.42003352 7.20996526,8.44679893 7.25481444,8.48159105 C7.30744517,8.51195767 7.3548955,8.55053369 7.39537545,8.5958639 C7.43979222,8.63150969 7.47579025,8.67653363 7.5007962,8.72771719 C7.53492947,8.77451018 7.5643561,8.82456481 7.58864683,8.87715092 L7.58864683,8.87715092 L7.64135721,9.04416509 C7.64612665,9.10266939 7.64612665,9.16146517 7.64135721,9.21996948 C7.64135721,9.70543989 7.24803654,10.0989914 6.76285092,10.0989914 C6.53725854,10.0911464 6.32334044,9.99671537 6.16546664,9.83528483 C6.08233341,9.75247348 6.01661735,9.65384152 5.97219526,9.54520759 C5.93018882,9.43892388 5.90930048,9.32546346 5.91069982,9.21117926 C5.90163554,9.15292872 5.90163554,9.09362541 5.91069982,9.03537487 C5.9188443,8.9771531 5.93666002,8.92070354 5.9634102,8.8683607 C5.98095434,8.81435937 6.00770405,8.76380247 6.04247576,8.71892697 C6.06748172,8.66774342 6.10347974,8.62271947 6.14789652,8.58707368 C6.18635827,8.54557661 6.23076843,8.51002763 6.27967246,8.48159105 C6.32452163,8.44679893 6.37504888,8.42003352 6.42901853,8.40247908 C6.48133066,8.3757132 6.53774711,8.35788702 6.59593472,8.34973776 C6.70863363,8.32348517 6.82585326,8.32348517 6.93855218,8.34973776 Z"></path>
        </g>
    </g>
</svg>