<?xml version="1.0" encoding="UTF-8"?>
<svg width="24px" height="24px" viewBox="0 0 24 24" version="1.1" xmlns="http://www.w3.org/2000/svg" xmlns:xlink="http://www.w3.org/1999/xlink">
    <!-- Generator: Sketch 64 (93537) - https://sketch.com -->
    <title>@1xIconly/Broken/Bookmark</title>
    <desc>Created with Sketch.</desc>
    <g id="Iconly/Broken/Bookmark" stroke="none" stroke-width="1" fill="none" fill-rule="evenodd">
        <g id="Bookmark" transform="translate(4.000000, 2.000000)" fill="#200E32" fill-rule="nonzero">
            <path d="M11.5258621,0 L4.62931034,0 C1.78448276,0 0,1.9858782 0,5.17210944 L0,18.3230362 C0,19.2491977 0.733326703,20 1.63793103,20 C1.91180194,20 2.18135035,19.9300723 2.42241379,19.7969991 L8.03448276,16.6813769 L14.5689655,19.8146514 C14.7461483,19.8908228 14.9456376,19.8917645 15.1234989,19.8172691 C15.3013603,19.7427737 15.4430062,19.598951 15.5172414,19.4174757 C15.6267768,19.0830842 15.4940188,18.7157283 15.1982759,18.5348632 L8.70689655,15.4280671 C8.28279792,15.1893907 7.76892621,15.1893907 7.34482759,15.4280671 L1.72413793,18.5348632 C1.65968122,18.5709713 1.58169809,18.5709713 1.51724138,18.5348632 C1.45595472,18.494491 1.41993354,18.4240845 1.42241379,18.3495146 L1.42241379,5.17210944 C1.43103448,2.81553398 2.5862069,1.47396293 4.65517241,1.47396293 L11.5517241,1.47396293 C14.2068966,1.47396293 14.5948276,3.68049426 14.5948276,5.00441306 L14.5948276,5.60458959 L7.12931034,5.60458959 C6.93950091,5.61148655 6.76015756,5.69536443 6.63079621,5.83774183 C6.50143487,5.98011924 6.43267077,6.16931284 6.43965517,6.36363636 C6.44874481,6.74967865 6.75225353,7.06042014 7.12931034,7.06972639 L14.5689655,7.06972639 L14.5689655,14.7925861 C14.5689655,15.1971724 14.8893135,15.5251545 15.2844828,15.5251545 C15.6763098,15.5251836 15.9952792,15.2025475 16,14.8014122 L16,14.8014122 L16,5.00441306 C16,1.9152692 14.2931034,0 11.5258621,0 Z"></path>
        </g>
    </g>
</svg>