<?xml version="1.0" encoding="UTF-8"?>
<svg width="24px" height="24px" viewBox="0 0 24 24" version="1.1" xmlns="http://www.w3.org/2000/svg" xmlns:xlink="http://www.w3.org/1999/xlink">
    <!-- Generator: Sketch 64 (93537) - https://sketch.com -->
    <title>@1xIconly/Bold/Bookmark</title>
    <desc>Created with Sketch.</desc>
    <g id="Iconly/Bold/Bookmark" stroke="none" stroke-width="1" fill="none" fill-rule="evenodd">
        <g id="Bookmark" transform="translate(4.000000, 2.000000)" fill="#200E32" fill-rule="nonzero">
            <path d="M11.0699,0.0001 C13.7799,0.0001 15.9699,1.0701 15.9999,3.7901 L15.9999,3.7901 L15.9999,18.9701 C15.9999,19.1401 15.9599,19.3101 15.8799,19.4601 C15.7499,19.7001 15.5299,19.8801 15.2599,19.9601 C14.9999,20.0401 14.7099,20.0001 14.4699,19.8601 L14.4699,19.8601 L7.9899,16.6201 L1.4999,19.8601 C1.3509,19.9391 1.1799,19.9901 1.0099,19.9901 C0.4499,19.9901 -0.0001,19.5301 -0.0001,18.9701 L-0.0001,18.9701 L-0.0001,3.7901 C-0.0001,1.0701 2.1999,0.0001 4.8999,0.0001 L4.8999,0.0001 Z M11.7499,6.0401 L4.2199,6.0401 C3.7899,6.0401 3.4399,6.3901 3.4399,6.8301 C3.4399,7.2691 3.7899,7.6201 4.2199,7.6201 L4.2199,7.6201 L11.7499,7.6201 C12.1799,7.6201 12.5299,7.2691 12.5299,6.8301 C12.5299,6.3901 12.1799,6.0401 11.7499,6.0401 L11.7499,6.0401 Z"></path>
        </g>
    </g>
</svg>