<?xml version="1.0" encoding="UTF-8"?>
<svg width="24px" height="24px" viewBox="0 0 24 24" version="1.1" xmlns="http://www.w3.org/2000/svg" xmlns:xlink="http://www.w3.org/1999/xlink">
    <!-- Generator: Sketch 64 (93537) - https://sketch.com -->
    <title>@1xIconly/Bold/Category</title>
    <desc>Created with Sketch.</desc>
    <g id="Iconly/Bold/Category" stroke="none" stroke-width="1" fill="none" fill-rule="evenodd">
        <g id="Category" transform="translate(2.000000, 2.000000)" fill="#200E32" fill-rule="nonzero">
            <path d="M5.9199,11.4697 C7.3299,11.4697 8.4599,12.6107 8.4599,14.0307 L8.4599,14.0307 L8.4599,17.4397 C8.4599,18.8497 7.3299,19.9997 5.9199,19.9997 L5.9199,19.9997 L2.5399,19.9997 C1.1399,19.9997 -0.0001,18.8497 -0.0001,17.4397 L-0.0001,17.4397 L-0.0001,14.0307 C-0.0001,12.6107 1.1399,11.4697 2.5399,11.4697 L2.5399,11.4697 Z M17.46,11.4697 C18.86,11.4697 20,12.6107 20,14.0307 L20,14.0307 L20,17.4397 C20,18.8497 18.86,19.9997 17.46,19.9997 L17.46,19.9997 L14.08,19.9997 C12.67,19.9997 11.54,18.8497 11.54,17.4397 L11.54,17.4397 L11.54,14.0307 C11.54,12.6107 12.67,11.4697 14.08,11.4697 L14.08,11.4697 Z M5.9199,-9.32587341e-14 C7.3299,-9.32587341e-14 8.4599,1.15 8.4599,2.561 L8.4599,2.561 L8.4599,5.97 C8.4599,7.39 7.3299,8.53 5.9199,8.53 L5.9199,8.53 L2.5399,8.53 C1.1399,8.53 -0.0001,7.39 -0.0001,5.97 L-0.0001,5.97 L-0.0001,2.561 C-0.0001,1.15 1.1399,-9.32587341e-14 2.5399,-9.32587341e-14 L2.5399,-9.32587341e-14 Z M17.46,-9.32587341e-14 C18.86,-9.32587341e-14 20,1.15 20,2.561 L20,2.561 L20,5.97 C20,7.39 18.86,8.53 17.46,8.53 L17.46,8.53 L14.08,8.53 C12.67,8.53 11.54,7.39 11.54,5.97 L11.54,5.97 L11.54,2.561 C11.54,1.15 12.67,-9.32587341e-14 14.08,-9.32587341e-14 L14.08,-9.32587341e-14 Z"></path>
        </g>
    </g>
</svg>