<?xml version="1.0" encoding="UTF-8"?>
<svg width="24px" height="24px" viewBox="0 0 24 24" version="1.1" xmlns="http://www.w3.org/2000/svg" xmlns:xlink="http://www.w3.org/1999/xlink">
    <!-- Generator: Sketch 64 (93537) - https://sketch.com -->
    <title>@1xIconly/Bold/Discovery</title>
    <desc>Created with Sketch.</desc>
    <g id="Iconly/Bold/Discovery" stroke="none" stroke-width="1" fill="none" fill-rule="evenodd">
        <g id="Discovery" transform="translate(2.000000, 2.000000)" fill="#200E32" fill-rule="nonzero">
            <path d="M4.4495,1.6781 C8.4095,-0.9619 13.6885,-0.4409 17.0695,2.9181 C18.9585,4.8091 20.0085,7.3681 19.9985708,10.0381 C19.9795,14.7981 16.5985,18.8881 11.9285,19.8091 C7.2485,20.7291 2.5695,18.2181 0.7585,13.8091 C-1.0615,9.4081 0.4795,4.3281 4.4495,1.6781 Z M13.4985,6.2481 C13.3695,6.1881 13.2185,6.1681 13.0795,6.2181 L13.0795,6.2181 L8.1385,7.7781 C7.9685,7.8281 7.8385,7.9681 7.7895,8.1381 L7.7895,8.1381 L6.2185,13.0781 C6.1885,13.1781 6.1885,13.2881 6.2185,13.3881 C6.2585,13.5281 6.3595,13.6481 6.4895,13.7181 C6.6285,13.7981 6.7795,13.8091 6.9185,13.7681 L6.9185,13.7681 L11.8595,12.2081 C12.0295,12.1581 12.1595,12.0281 12.2185,11.8581 L12.2185,11.8581 L13.7685,6.9181 C13.8095,6.8091 13.8095,6.6881 13.7685,6.5781 C13.7295,6.4381 13.6285,6.3181 13.4985,6.2481 Z"></path>
        </g>
    </g>
</svg>