<?xml version="1.0" encoding="UTF-8"?>
<svg width="24px" height="24px" viewBox="0 0 24 24" version="1.1" xmlns="http://www.w3.org/2000/svg" xmlns:xlink="http://www.w3.org/1999/xlink">
    <!-- Generator: Sketch 64 (93537) - https://sketch.com -->
    <title>@1xIconly/Broken/Discovery</title>
    <desc>Created with Sketch.</desc>
    <g id="Iconly/Broken/Discovery" stroke="none" stroke-width="1" fill="none" fill-rule="evenodd">
        <g id="Discovery" transform="translate(2.000000, 2.000000)" fill="#200E32" fill-rule="nonzero">
            <path d="M9.99602972,7.55281494e-06 C10.7278853,-0.000908807126 11.4574685,0.0815620999 12.1706951,0.245835907 C14.7690443,0.817784239 17.0313145,2.40571737 18.4541827,4.65634271 C19.8770509,6.90696806 20.3424908,9.63359719 19.7469485,12.2295938 L19.7469485,12.2295938 L19.7203347,12.3348969 C19.6419116,12.5739163 19.4519358,12.7630594 19.2074268,12.8380238 C18.9279881,12.9236974 18.624158,12.8458804 18.4201377,12.6363831 C18.2161175,12.4268859 18.1461022,12.1208213 18.2387129,11.8433042 C19.1744696,7.65891833 16.8162387,3.43964592 12.7647251,2.04941778 C8.71321149,0.659189634 4.26573039,2.54316386 2.44111466,6.42254844 C0.616498926,10.301933 1.99899977,14.9345293 5.65021208,17.1758532 C9.30142439,19.4171771 14.0522115,18.5495452 16.6778644,15.1618833 L16.6778644,15.1618833 L16.7666515,15.0907986 C17.0446853,14.8996201 17.4202979,14.9074143 17.6917725,15.1220966 C17.993411,15.3606325 18.076654,15.7835483 17.8879604,16.1188281 C15.0246868,19.8239019 9.976095,21.0422036 5.74127001,19.0500085 C1.50644501,17.0578135 -0.77936521,12.389178 0.241710838,7.81747642 C1.26278689,3.2457748 5.31702489,-0.0034370198 9.99602972,7.55281494e-06 Z M12.9686569,6.05773901 C13.1160512,6.00480074 13.2772409,6.00480074 13.4246352,6.05773901 C13.6212811,6.11636288 13.7860516,6.25182094 13.8817486,6.43353266 C13.9774457,6.61524438 13.9960013,6.82788989 13.9332263,7.02346309 L13.9332263,7.02346309 L12.3723777,11.9135387 C12.3102136,12.1162927 12.1675296,12.284544 11.9777812,12.3788421 L11.9777812,12.3788421 L11.1009,12.8178076 L10.9971067,12.8472603 C10.6491605,12.920513 10.2887444,12.7475145 10.1322491,12.4176563 C9.96010423,12.0548122 10.0907985,11.6204038 10.4344703,11.413118 L10.4344703,11.413118 L11.02199,11.1234008 L12.0040876,7.98040786 L8.93500348,8.94613194 L7.53199358,13.4323593 L7.49427436,13.53029 C7.33404138,13.8749395 6.94029581,14.0567931 6.56742427,13.9415592 L6.56742427,13.9415592 L6.4532389,13.8962719 C6.30696934,13.8242877 6.18618132,13.7072065 6.10972828,13.5607161 C6.01416199,13.377603 5.99583206,13.1637956 6.05883318,12.9670558 L6.05883318,12.9670558 L7.58460645,8.08575958 C7.66366118,7.84662719 7.85301245,7.66031782 8.09319754,7.58533892 L8.09319754,7.58533892 Z"></path>
        </g>
    </g>
</svg>