<?xml version="1.0" encoding="UTF-8"?>
<svg width="24px" height="24px" viewBox="0 0 24 24" version="1.1" xmlns="http://www.w3.org/2000/svg" xmlns:xlink="http://www.w3.org/1999/xlink">
    <!-- Generator: Sketch 64 (93537) - https://sketch.com -->
    <title>@1xIconly/Broken/Document</title>
    <desc>Created with Sketch.</desc>
    <g id="Iconly/Broken/Document" stroke="none" stroke-width="1" fill="none" fill-rule="evenodd">
        <g id="Document" transform="translate(3.000000, 2.000000)" fill="#200E32" fill-rule="nonzero">
            <path d="M12.8534107,-1.95399252e-14 C16.0667634,-1.95399252e-14 17.9912917,1.95143488 18,5.20971302 L18,5.20971302 L18,14.790287 C18,18.0485651 16.08418,20 12.862119,20 L12.862119,20 L10.0058055,20 C9.63949884,19.9590452 9.36223544,19.6452022 9.36223544,19.2715232 C9.36223544,18.8978441 9.63949884,18.5840011 10.0058055,18.5430464 L10.0058055,18.5430464 L12.8534107,18.5430464 C15.3091437,18.5430464 16.5457184,17.2803532 16.5457184,14.790287 L16.5457184,14.790287 L16.5457184,5.20971302 C16.5457184,2.7196468 15.3091437,1.45695364 12.8534107,1.45695364 L12.8534107,1.45695364 L5.13788099,1.45695364 C2.68214804,1.45695364 1.43686502,2.7196468 1.43686502,5.20971302 L1.43686502,5.20971302 L1.43686502,14.790287 C1.43686502,17.2803532 2.68214804,18.5430464 5.13788099,18.5430464 C5.50418766,18.5840011 5.78145107,18.8978441 5.78145107,19.2715232 C5.78145107,19.6452022 5.50418766,19.9590452 5.13788099,20 C1.9245283,20 -3.55271368e-15,18.0485651 -3.55271368e-15,14.790287 L-3.55271368e-15,14.790287 L-3.55271368e-15,5.20971302 C-3.55271368e-15,1.94260486 1.9245283,-1.95399252e-14 5.13788099,-1.95399252e-14 L5.13788099,-1.95399252e-14 Z M12.5921626,13.5099338 C12.9865372,13.5099338 13.3062409,13.8341073 13.3062409,14.2339956 C13.3062409,14.6338839 12.9865372,14.9580574 12.5921626,14.9580574 L12.5921626,14.9580574 L5.38171263,14.9580574 C4.98733803,14.9580574 4.66763425,14.6338839 4.66763425,14.2339956 C4.66763425,13.8341073 4.98733803,13.5099338 5.38171263,13.5099338 L5.38171263,13.5099338 Z M12.5921626,9.27152318 C12.8677202,9.24071456 13.1363773,9.37243477 13.283685,9.61057053 C13.4309927,9.84870629 13.4309927,10.1512937 13.283685,10.3894295 C13.1363773,10.6275652 12.8677202,10.7592854 12.5921626,10.7284768 L12.5921626,10.7284768 L5.38171263,10.7284768 C5.01540595,10.687522 4.73814255,10.373679 4.73814255,10 C4.73814255,9.62632096 5.01540595,9.31247796 5.38171263,9.27152318 L5.38171263,9.27152318 Z M8.13352685,5.0419426 C8.49983352,5.08289739 8.77709693,5.39674039 8.77709693,5.77041943 C8.77709693,6.14409846 8.49983352,6.45794146 8.13352685,6.49889625 L8.13352685,6.49889625 L5.3904209,6.49889625 C5.02411423,6.45794146 4.74685082,6.14409846 4.74685082,5.77041943 C4.74685082,5.39674039 5.02411423,5.08289739 5.3904209,5.0419426 L5.3904209,5.0419426 Z"></path>
        </g>
    </g>
</svg>