<?xml version="1.0" encoding="UTF-8"?>
<svg width="24px" height="24px" viewBox="0 0 24 24" version="1.1" xmlns="http://www.w3.org/2000/svg" xmlns:xlink="http://www.w3.org/1999/xlink">
    <!-- Generator: Sketch 64 (93537) - https://sketch.com -->
    <title>@1xIconly/Bold/Document</title>
    <desc>Created with Sketch.</desc>
    <g id="Iconly/Bold/Document" stroke="none" stroke-width="1" fill="none" fill-rule="evenodd">
        <g id="Document" transform="translate(3.000000, 2.000000)" fill="#200E32" fill-rule="nonzero">
            <path d="M13.191,0 C16.28,0 18,1.78 18,4.83 L18,4.83 L18,15.16 C18,18.26 16.28,20 13.191,20 L13.191,20 L4.81,20 C1.77,20 0,18.26 0,15.16 L0,15.16 L0,4.83 C0,1.78 1.77,0 4.81,0 L4.81,0 Z M5.08,13.74 C4.78,13.71 4.49,13.85 4.33,14.11 C4.17,14.36 4.17,14.69 4.33,14.95 C4.49,15.2 4.78,15.35 5.08,15.31 L5.08,15.31 L12.92,15.31 C13.319,15.27 13.62,14.929 13.62,14.53 C13.62,14.12 13.319,13.78 12.92,13.74 L12.92,13.74 Z M12.92,9.179 L5.08,9.179 C4.649,9.179 4.3,9.53 4.3,9.96 C4.3,10.39 4.649,10.74 5.08,10.74 L5.08,10.74 L12.92,10.74 C13.35,10.74 13.7,10.39 13.7,9.96 C13.7,9.53 13.35,9.179 12.92,9.179 L12.92,9.179 Z M8.069,4.65 L5.08,4.65 L5.08,4.66 C4.649,4.66 4.3,5.01 4.3,5.44 C4.3,5.87 4.649,6.22 5.08,6.22 L5.08,6.22 L8.069,6.22 C8.5,6.22 8.85,5.87 8.85,5.429 C8.85,5 8.5,4.65 8.069,4.65 L8.069,4.65 Z"></path>
        </g>
    </g>
</svg>