<?xml version="1.0" encoding="UTF-8"?>
<svg width="24px" height="24px" viewBox="0 0 24 24" version="1.1" xmlns="http://www.w3.org/2000/svg" xmlns:xlink="http://www.w3.org/1999/xlink">
    <!-- Generator: Sketch 64 (93537) - https://sketch.com -->
    <title>@1xIconly/Bold/Folder</title>
    <desc>Created with Sketch.</desc>
    <g id="Iconly/Bold/Folder" stroke="none" stroke-width="1" fill="none" fill-rule="evenodd">
        <g id="Folder" transform="translate(2.000000, 2.000000)" fill="#200E32" fill-rule="nonzero">
            <path d="M7.0499,2.93394578e-05 C7.9809,-0.0098 8.8499,0.4202 9.4199,1.1502 L9.4199,1.1502 L10.2999,2.3202 C10.5799,2.6702 10.9999,2.8802 11.4499,2.8802 L11.4499,2.8802 L14.5199,2.8802 C18.2099,2.8802 20.0099,4.8502 19.9999414,8.8902 L19.9999414,8.8902 L19.9999414,13.7602 C19.9999414,17.6202 17.6199,20.0002 13.7499,20.0002 L13.7499,20.0002 L6.2399,20.0002 C2.3899,20.0002 -0.0001,17.6202 -0.0001,13.7502 L-0.0001,13.7502 L-0.0001,6.2402 C-0.0001,2.1002 1.8399,2.93394578e-05 5.4699,2.93394578e-05 L5.4699,2.93394578e-05 Z M14.6299,11.7902 L5.3699,11.7902 C4.9499,11.7902 4.6199,12.1202 4.6199,12.5402 C4.6199,12.9502 4.9499,13.2902 5.3699,13.2902 L5.3699,13.2902 L14.6299,13.2902 C15.0399,13.2902 15.3699,12.9502 15.3699,12.5402 C15.3699,12.1202 15.0399,11.7902 14.6299,11.7902 L14.6299,11.7902 Z"></path>
        </g>
    </g>
</svg>