<?xml version="1.0" encoding="UTF-8"?>
<svg width="24px" height="24px" viewBox="0 0 24 24" version="1.1" xmlns="http://www.w3.org/2000/svg" xmlns:xlink="http://www.w3.org/1999/xlink">
    <!-- Generator: Sketch 64 (93537) - https://sketch.com -->
    <title>@1xIconly/Bold/Game</title>
    <desc>Created with Sketch.</desc>
    <g id="Iconly/Bold/Game" stroke="none" stroke-width="1" fill="none" fill-rule="evenodd">
        <g id="Game" transform="translate(2.000000, 2.000000)" fill="#200E32" fill-rule="nonzero">
            <path d="M6.35917566,0 C6.77134446,0 7.09519136,0.327552987 7.09519136,0.722543353 C7.09519136,1.01156069 7.34052993,1.24277457 7.63493621,1.24277457 L7.63493621,1.24277457 L8.60647694,1.24277457 C10.0883219,1.25240848 11.2953876,2.43737958 11.3052012,3.88246628 L11.3052012,3.88246628 L11.3052012,4.0655106 C12.2374877,4.0655106 13.1697743,4.08477842 14.1118744,4.09441233 C17.5171737,4.09441233 20,6.522158 20,9.87475915 L20,9.87475915 L20,14.1811175 C20,17.5337187 17.5171737,19.9614644 14.1118744,19.9614644 C12.747792,19.9903661 11.3837095,20 10.0098135,20 C8.63591757,20 7.25220805,19.9903661 5.88812561,19.9614644 C2.4828263,19.9614644 0,17.5337187 0,14.1811175 L0,14.1811175 L0,9.87475915 C0,6.522158 2.4828263,4.09441233 5.89793916,4.09441233 C7.18351325,4.07514451 8.49852797,4.05587669 9.83316977,4.05587669 L9.83316977,4.05587669 L9.83316977,3.89210019 C9.83316977,3.22736031 9.27379784,2.68786127 8.60647694,2.68786127 L8.60647694,2.68786127 L7.63493621,2.68786127 C6.52600589,2.68786127 5.62315996,1.80154143 5.62315996,0.722543353 C5.62315996,0.327552987 5.95682041,0 6.35917566,0 Z M7.08537782,9.56647399 C6.67320903,9.56647399 6.34936212,9.89402697 6.34936212,10.2890173 L6.34936212,10.2890173 L6.34936212,11.300578 L5.30912659,11.300578 C4.90677134,11.300578 4.57311089,11.628131 4.57311089,12.0231214 C4.57311089,12.4277457 4.90677134,12.7456647 5.30912659,12.7456647 L5.30912659,12.7456647 L6.34936212,12.7456647 L6.34936212,13.7668593 C6.34936212,14.1618497 6.67320903,14.4894027 7.08537782,14.4894027 C7.48773307,14.4894027 7.82139352,14.1618497 7.82139352,13.7668593 L7.82139352,13.7668593 L7.82139352,12.7456647 L8.85181551,12.7456647 C9.25417076,12.7456647 9.58783121,12.4277457 9.58783121,12.0231214 C9.58783121,11.628131 9.25417076,11.300578 8.85181551,11.300578 L8.85181551,11.300578 L7.82139352,11.300578 L7.82139352,10.2890173 C7.82139352,9.89402697 7.48773307,9.56647399 7.08537782,9.56647399 Z M14.7988224,12.9865125 L14.7006869,12.9865125 C14.2875368,12.9865125 13.9646712,13.3140655 13.9646712,13.7090559 C13.9646712,14.1136802 14.2875368,14.4315992 14.7006869,14.4315992 L14.7006869,14.4315992 L14.7988224,14.4315992 C15.2011776,14.4315992 15.5348381,14.1136802 15.5348381,13.7090559 C15.5348381,13.3140655 15.2011776,12.9865125 14.7988224,12.9865125 L14.7988224,12.9865125 Z M13.1207066,9.67244701 L13.0225711,9.67244701 C12.6104024,9.67244701 12.2865554,10 12.2865554,10.3949904 C12.2865554,10.7996146 12.6104024,11.1175337 13.0225711,11.1175337 L13.0225711,11.1175337 L13.1207066,11.1175337 C13.5230618,11.1175337 13.8567223,10.7996146 13.8567223,10.3949904 C13.8567223,10 13.5230618,9.67244701 13.1207066,9.67244701 L13.1207066,9.67244701 Z"></path>
        </g>
    </g>
</svg>