<?xml version="1.0" encoding="UTF-8"?>
<svg width="24px" height="24px" viewBox="0 0 24 24" version="1.1" xmlns="http://www.w3.org/2000/svg" xmlns:xlink="http://www.w3.org/1999/xlink">
    <!-- Generator: Sketch 64 (93537) - https://sketch.com -->
    <title>@1xIconly/Broken/Game</title>
    <desc>Created with Sketch.</desc>
    <g id="Iconly/Broken/Game" stroke="none" stroke-width="1" fill="none" fill-rule="evenodd">
        <g id="Game" transform="translate(2.000000, 2.000000)" fill="#200E32" fill-rule="nonzero">
            <path d="M7.08434302,9.47692308 C7.50494479,9.47692308 7.84590989,9.81541549 7.84590989,10.232967 L7.84590989,10.232967 L7.84590989,11.2263736 L8.85542877,11.2263736 C9.14548011,11.1951873 9.42798675,11.3312438 9.58285036,11.5767034 C9.73771396,11.822163 9.73771396,12.1338809 9.58285036,12.3793405 C9.42798675,12.6248001 9.14548011,12.7608567 8.85542877,12.7296703 L8.85542877,12.7296703 L7.84590989,12.7296703 L7.84590989,13.7318681 C7.84112538,14.1474363 7.50294696,14.4831623 7.08434302,14.4879121 L7.08434302,14.4879121 C6.65834815,14.4830965 6.32274794,14.1460105 6.32277614,13.7318681 L6.32277614,13.7318681 L6.32277614,12.7296703 L5.31325726,12.7296703 C5.02320593,12.7608567 4.74069928,12.6248001 4.58583568,12.3793405 C4.43097207,12.1338809 4.43097207,11.822163 4.58583568,11.5767034 C4.74069928,11.3312438 5.02320593,11.1951873 5.31325726,11.2263736 L5.31325726,11.2263736 L6.32277614,11.2263736 L6.32277614,10.232967 L6.32972835,10.1303763 C6.38015669,9.76135073 6.69879139,9.47692308 7.08434302,9.47692308 Z M14.168686,13.1868132 C14.3845922,12.9721595 14.7088272,12.9063984 14.9922409,13.0197802 C15.0832926,13.0620493 15.1669897,13.1184318 15.2401929,13.1868132 C15.5312865,13.4796411 15.5291945,13.9509773 15.235513,14.2412472 C14.9418314,14.5315172 14.4670475,14.5315172 14.173366,14.2412472 C13.8796844,13.9509773 13.8775925,13.4796411 14.168686,13.1868132 Z M12.7163957,9.67032967 C12.8979098,9.59608441 13.101629,9.59608441 13.2831432,9.67032967 C13.377889,9.71073876 13.4647974,9.76726578 13.5399506,9.83736264 C13.6804121,9.97766499 13.7598904,10.1670297 13.7613363,10.3648352 C13.7625247,10.4640259 13.7444862,10.5625178 13.7082037,10.6549451 C13.6732405,10.7494214 13.6154682,10.833942 13.5399506,10.9010989 C13.2424082,11.1824176 12.7748415,11.1824176 12.4772991,10.9010989 C12.3293813,10.7631807 12.2454825,10.5706878 12.2454825,10.3692308 C12.2454825,10.1677738 12.3293813,9.9752808 12.4772991,9.83736264 C12.5438956,9.7651781 12.6254693,9.70819068 12.7163957,9.67032967 Z M19.9953625,9.51600005 C19.8613625,6.43700005 17.2533625,4.08000005 14.1103625,4.10200005 C13.7253625,4.10800005 13.4173625,4.42300005 13.4223625,4.80900005 C13.4273625,5.19300005 13.7413625,5.50900005 14.1283625,5.49700005 C16.5753625,5.44800005 18.4973625,7.21800005 18.6003625,9.57500005 C18.6053625,9.66700005 18.6063625,9.76000005 18.6033625,9.87000005 L18.6033625,14.209 C18.6293625,15.35 18.2083625,16.431 17.4203625,17.254 C16.6323625,18.079 15.5703625,18.546 14.4283625,18.571 C14.3353625,18.573 14.2413625,18.571 14.1073625,18.567 C11.3323625,18.614 8.56936248,18.614 5.85136248,18.568 C3.47836248,18.67 1.50236248,16.841 1.39936248,14.491 C1.39536248,14.397 1.39436248,14.303 1.39636248,14.194 L1.39636248,9.85400005 C1.34536248,7.50000005 3.21836248,5.54400005 5.57436248,5.49400005 C5.66636248,5.49100005 5.76036248,5.49400005 5.88236248,5.49700005 L10.5693625,5.49700005 C10.9543625,5.49700005 11.2673625,5.18500005 11.2673625,4.79900005 L11.2673625,3.86400005 C11.2473625,2.41600005 10.0603625,1.24700005 8.62136248,1.24700005 L8.60136248,1.24700005 L7.61136248,1.24700005 L7.60536248,1.24700005 C7.45836248,1.24700005 7.31936248,1.19000005 7.21336248,1.08600005 C7.10536248,0.98200005 7.04536248,0.84100005 7.04436248,0.69100005 C7.04036248,0.30800005 6.72836248,4.99999402e-08 6.34736248,4.99999402e-08 L6.33936248,4.99999402e-08 C5.95436248,0.00400005 5.64536248,0.32000005 5.64936248,0.70500005 C5.65536248,1.22700005 5.86336248,1.71700005 6.23636248,2.08200005 C6.61036248,2.45000005 7.10236248,2.62100005 7.61936248,2.64300005 L8.60636248,2.64300005 L8.61636248,2.64300005 C9.30036248,2.64300005 9.86336248,3.19700005 9.87136248,3.87200005 L9.87136248,4.10200005 L5.91236248,4.10300005 C5.78736248,4.09800005 5.66336248,4.09600005 5.54136248,4.09800005 C2.41936248,4.16600005 -0.0666375207,6.76200005 0.00136247932,9.87000005 L0.00136247932,14.18 C-0.000637520677,14.303 0.000362479323,14.426 0.00536247932,14.55 C0.142362479,17.67 2.78536248,20.115 5.87036248,19.962 C7.21136248,19.986 8.57636248,19.997 9.94736248,19.997 C11.3263625,19.997 12.7113625,19.986 14.0893625,19.961 C14.2143625,19.966 14.3383625,19.968 14.4613625,19.965 C15.9733625,19.932 17.3823625,19.313 18.4283625,18.219 C19.4743625,17.126 20.0323625,15.691 19.9983625,14.194 L19.9983625,9.88700005 C20.0013625,9.76400005 20.0003625,9.64000005 19.9953625,9.51600005"></path>
        </g>
    </g>
</svg>