<?xml version="1.0" encoding="UTF-8"?>
<svg width="24px" height="24px" viewBox="0 0 24 24" version="1.1" xmlns="http://www.w3.org/2000/svg" xmlns:xlink="http://www.w3.org/1999/xlink">
    <!-- Generator: Sketch 64 (93537) - https://sketch.com -->
    <title>@1xIconly/Broken/Graph</title>
    <desc>Created with Sketch.</desc>
    <g id="Iconly/Broken/Graph" stroke="none" stroke-width="1" fill="none" fill-rule="evenodd">
        <g id="Graph" transform="translate(2.000000, 2.500000)" fill="#200E32" fill-rule="nonzero">
            <path d="M6.72970968,2.5994097 C7.12844918,2.57048183 7.49579485,2.84041391 7.57623434,3.23997918 C7.66337711,3.67284156 7.3808044,4.0939267 6.94509053,4.18049918 C3.8264317,4.83954199 1.59908375,7.57916351 1.60666584,10.7467221 C1.59940351,10.9942629 1.61406983,11.2419585 1.65049527,11.4869462 C2.0351288,14.6495023 4.61426926,17.102108 7.81142902,17.3456194 C11.0085888,17.5891309 13.9339187,15.5557728 14.7993246,12.4884258 L14.7993246,12.4884258 L14.8364408,12.3878372 C14.9950269,12.0330584 15.3934467,11.8370297 15.7811038,11.9397892 C15.9885454,11.9889646 16.1671102,12.1194787 16.2761049,12.3015884 C16.3850997,12.4836981 16.4152382,12.7018881 16.3596523,12.9064347 C15.7643111,15.0651027 14.3122278,16.8911139 12.3361105,17.9660839 C9.91133499,19.3012903 6.97567477,19.3458382 4.51098158,18.0848281 C2.04628839,16.8238181 0.37791857,14.4237121 0.0638698642,11.6872421 C0.0129268716,11.3676539 -0.00761750522,11.0440108 0.00250866083,10.7205966 C-0.00172614149,6.79931462 2.76557993,3.4137311 6.62951863,2.61296585 L6.62951863,2.61296585 Z M11.4419901,0.000410303812 C15.7166381,0.124667928 19.3016173,3.24419203 19.9887292,7.43748509 L19.9887292,7.43748509 L19.9974951,7.43748509 L19.9974951,7.57682139 L20,7.7233636 C19.9887427,8.06387877 19.8587114,8.39173505 19.6296562,8.64934583 C19.3678788,8.94375814 18.998491,9.12198569 18.6037192,9.14435472 L18.6037192,9.14435472 L12.0293045,9.57978064 L11.9241139,9.57978064 C11.0904374,9.57804163 10.3970551,8.94218513 10.3287226,8.11674954 L10.3287226,8.11674954 L9.89042829,1.57665215 C9.86408615,1.16409544 10.0136075,0.759553186 10.3024249,0.461961784 C10.6014004,0.157749259 11.0141385,-0.00941966238 11.4419901,0.000410303812 Z M11.4858196,1.58536067 L11.9241139,8.01224731 L18.4108697,7.58552991 C17.8050532,4.21929272 14.925133,1.72400265 11.4858196,1.58536067 L11.4858196,1.58536067 Z"></path>
        </g>
    </g>
</svg>