<?xml version="1.0" encoding="UTF-8"?>
<svg width="24px" height="24px" viewBox="0 0 24 24" version="1.1" xmlns="http://www.w3.org/2000/svg" xmlns:xlink="http://www.w3.org/1999/xlink">
    <!-- Generator: Sketch 64 (93537) - https://sketch.com -->
    <title>@1xIconly/Bold/Graph</title>
    <desc>Created with Sketch.</desc>
    <g id="Iconly/Bold/Graph" stroke="none" stroke-width="1" fill="none" fill-rule="evenodd">
        <g id="Graph" transform="translate(2.000000, 2.000000)" fill="#200E32" fill-rule="nonzero">
            <path d="M6.95606786,2.95950151 C7.44620192,2.86776122 7.93761674,3.11247932 8.15145949,3.55479079 C8.20469318,3.63505234 8.24729691,3.72163572 8.27824345,3.81245332 C8.41408341,5.9092932 8.55897937,7.97059341 8.69481932,10.0318936 C8.69172532,10.2461634 8.72540074,10.4594166 8.79443529,10.6627226 C8.95694568,11.0627398 9.36136315,11.3165343 9.79965099,11.2935515 L9.79965099,11.2935515 L16.4558089,10.8670756 L16.5010889,10.8848454 L16.6225788,10.8935839 C16.8631941,10.9243831 17.0875272,11.0342242 17.2578527,11.207045 C17.4565658,11.4086694 17.5654848,11.679494 17.5607955,11.9599201 C17.2983545,15.7820112 14.4961635,18.9755074 10.6827697,19.7982347 C6.86937584,20.6209621 2.96017358,18.8754273 1.08778165,15.513886 C0.537217372,14.5457082 0.189302592,13.4793917 0.064453968,12.3775111 C0.0160313339,12.0510067 -0.00516960027,11.7211716 0.00106198744,11.3912856 C0.0136824193,7.32706469 2.90727611,3.81906518 6.95606786,2.95950151 Z M10.9135386,0.000824899247 C15.4843466,0.137654769 19.3043738,3.45580061 19.9967039,7.89062918 C20.0010987,7.91710955 20.0010987,7.94411305 19.9967039,7.97059341 L19.9967039,7.97059341 L19.9954743,8.09579004 C19.9804371,8.26129079 19.9124787,8.41912541 19.7996309,8.54584839 C19.6585712,8.70425213 19.4589977,8.80098884 19.2450561,8.81466031 L19.2450561,8.81466031 L11.5655704,9.32110045 L11.4390517,9.32361382 C11.2294325,9.31338516 11.0284278,9.23186051 10.8718458,9.09092113 C10.6839474,8.92179389 10.5774317,8.68278379 10.5784667,8.43260898 L10.5784667,8.43260898 L10.0622749,0.889316372 L10.0622749,0.764927566 C10.0716715,0.552775761 10.1666921,0.353003202 10.3263834,0.209662731 C10.4860747,0.0663222611 10.6973208,-0.00881317968 10.9135386,0.000824899247 Z"></path>
        </g>
    </g>
</svg>