<?xml version="1.0" encoding="UTF-8"?>
<svg width="24px" height="24px" viewBox="0 0 24 24" version="1.1" xmlns="http://www.w3.org/2000/svg" xmlns:xlink="http://www.w3.org/1999/xlink">
    <!-- Generator: Sketch 64 (93537) - https://sketch.com -->
    <title>@1xIconly/Bold/Home</title>
    <desc>Created with Sketch.</desc>
    <g id="Iconly/Bold/Home" stroke="none" stroke-width="1" fill="none" fill-rule="evenodd">
        <g id="Home" transform="translate(2.500000, 2.000000)" fill="#200E32" fill-rule="nonzero">
            <path d="M6.63477851,18.7733424 L6.63477851,15.7156161 C6.63477851,14.9350667 7.27217143,14.3023065 8.05843544,14.3023065 L10.9326107,14.3023065 C11.310188,14.3023065 11.6723007,14.4512083 11.9392882,14.7162553 C12.2062757,14.9813022 12.3562677,15.3407831 12.3562677,15.7156161 L12.3562677,18.7733424 C12.3538816,19.0978491 12.4820659,19.4098788 12.7123708,19.6401787 C12.9426757,19.8704786 13.2560494,20 13.5829406,20 L15.5438266,20 C16.4596364,20.0023499 17.3387522,19.6428442 17.9871692,19.0008077 C18.6355861,18.3587712 19,17.4869804 19,16.5778238 L19,7.86685918 C19,7.13246047 18.6720694,6.43584231 18.1046183,5.96466895 L11.4340245,0.675869015 C10.2736604,-0.251438297 8.61111277,-0.221497907 7.48539114,0.74697893 L0.967012253,5.96466895 C0.37274068,6.42195254 0.0175522924,7.12063643 0,7.86685918 L0,16.568935 C0,18.4638535 1.54738155,20 3.45617342,20 L5.37229029,20 C6.05122667,20 6.60299723,19.4562152 6.60791706,18.7822311 L6.63477851,18.7733424 Z"></path>
        </g>
    </g>
</svg>