<?xml version="1.0" encoding="UTF-8"?>
<svg width="24px" height="24px" viewBox="0 0 24 24" version="1.1" xmlns="http://www.w3.org/2000/svg" xmlns:xlink="http://www.w3.org/1999/xlink">
    <!-- Generator: Sketch 64 (93537) - https://sketch.com -->
    <title>@1xIconly/Bold/Location</title>
    <desc>Created with Sketch.</desc>
    <g id="Iconly/Bold/Location" stroke="none" stroke-width="1" fill="none" fill-rule="evenodd">
        <g id="Location" transform="translate(3.500000, 2.000000)" fill="#200E32" fill-rule="nonzero">
            <path d="M8.5299,-1.99535389e-05 C10.7899,0.01 12.9499,0.91 14.5299,2.49 C16.1199,4.08 17.0099,6.23 16.9999834,8.46 L16.9999834,8.46 L16.9999834,8.51 C16.9399,11.54 15.2399,14.33 13.1199,16.51 C11.9199,17.74 10.5899,18.83 9.1399,19.75 C8.7499,20.08 8.1799,20.08 7.7899,19.75 C5.6399,18.35 3.7399,16.59 2.1999,14.54 C0.8499,12.76 0.0799,10.62 -0.0001,8.39 C0.0199,3.74 3.8399,-0.01 8.5299,-1.99535389e-05 Z M8.5299,5.93 C7.0399,5.93 5.8399,7.12 5.8399,8.6 C5.8399,10.061 7.0199,11.24 8.4999,11.26 L8.4999,11.26 L8.5299,11.26 C9.2399,11.26 9.9199,10.99 10.4199,10.5 C10.9399,9.99 11.2309,9.311 11.2309,8.6 C11.2309,7.12 10.0199,5.93 8.5299,5.93 Z"></path>
        </g>
    </g>
</svg>