<?xml version="1.0" encoding="UTF-8"?>
<svg width="24px" height="24px" viewBox="0 0 24 24" version="1.1" xmlns="http://www.w3.org/2000/svg" xmlns:xlink="http://www.w3.org/1999/xlink">
    <!-- Generator: Sketch 64 (93537) - https://sketch.com -->
    <title>@1xIconly/Bold/Message</title>
    <desc>Created with Sketch.</desc>
    <g id="Iconly/Bold/Message" stroke="none" stroke-width="1" fill="none" fill-rule="evenodd">
        <g id="Message" transform="translate(2.000400, 3.000000)" fill="#200E32" fill-rule="nonzero">
            <path d="M14.939,0 C16.28,0 17.57,0.53 18.519,1.481 C19.469,2.43 20,3.71 20,5.05 L20,5.05 L20,12.95 C20,15.74 17.73,18 14.939,18 L14.939,18 L5.06,18 C2.269,18 0,15.74 0,12.95 L0,12.95 L0,5.05 C0,2.26 2.259,0 5.06,0 L5.06,0 Z M16.07,5.2 C15.86,5.189 15.66,5.26 15.509,5.4 L15.509,5.4 L11,9 C10.42,9.481 9.589,9.481 9,9 L9,9 L4.5,5.4 C4.189,5.17 3.759,5.2 3.5,5.47 C3.23,5.74 3.2,6.17 3.429,6.47 L3.429,6.47 L3.56,6.6 L8.11,10.15 C8.67,10.59 9.349,10.83 10.06,10.83 C10.769,10.83 11.46,10.59 12.019,10.15 L12.019,10.15 L16.53,6.54 L16.61,6.46 C16.849,6.17 16.849,5.75 16.599,5.46 C16.46,5.311 16.269,5.22 16.07,5.2 Z"></path>
        </g>
    </g>
</svg>