<?xml version="1.0" encoding="UTF-8"?>
<svg width="24px" height="24px" viewBox="0 0 24 24" version="1.1" xmlns="http://www.w3.org/2000/svg" xmlns:xlink="http://www.w3.org/1999/xlink">
    <!-- Generator: Sketch 64 (93537) - https://sketch.com -->
    <title>@1xIconly/Bold/Notification</title>
    <desc>Created with Sketch.</desc>
    <g id="Iconly/Bold/Notification" stroke="none" stroke-width="1" fill="none" fill-rule="evenodd">
        <g id="Notification" transform="translate(3.500000, 2.000000)" fill="#200E32" fill-rule="nonzero">
            <path d="M9.66385809,17.0850308 C10.1612052,17.0997055 10.6494874,17.2209963 11.0952733,17.4405986 L11.0952733,17.4405986 L11.1221123,17.4405986 C11.4945539,17.7444568 11.5578428,18.2868367 11.2652539,18.6673073 C10.7325,19.4297129 9.88007929,19.9104286 8.94815048,19.9740188 C7.99068936,20.0881969 7.02648958,19.8231391 6.26424693,19.2362157 C5.87223416,18.9673952 5.61748007,18.5422722 5.56643201,18.0717313 C5.56643201,17.5739365 6.03164196,17.3428174 6.46106652,17.2450363 C6.96403775,17.1390934 7.47674317,17.0854692 7.99089154,17.0850308 L7.99089154,17.0850308 Z M8.5366186,-1.59872116e-14 C11.632054,-1.59872116e-14 14.8258992,2.24007688 15.156914,5.48463268 C15.2105921,6.15132223 15.156914,6.84467936 15.2105921,7.5202581 C15.3862376,8.39147523 15.7905529,9.20107362 16.3825633,9.86700531 C16.7506233,10.4142844 16.9638305,11.04982 16.9999314,11.7070685 L16.9999314,11.7070685 L16.9999314,11.9115199 C17.0053658,12.7983874 16.6875755,13.6572551 16.1052266,14.3293807 C15.3671354,15.1185689 14.3656784,15.6145192 13.2871279,15.7249841 C10.1005486,16.1338607 6.87427876,16.1338607 3.68769953,15.7249841 C2.59644926,15.6229087 1.58089806,15.1262849 0.833815425,14.3293807 C0.269727524,13.6508093 -0.0260731338,12.7911986 0.00180532602,11.9115199 L0.00180532602,11.7070685 C0.0367179505,11.0522761 0.243355163,10.417938 0.601210451,9.86700531 C1.19585108,9.20045914 1.60588236,8.3917618 1.79107436,7.5202581 C1.84475243,6.84467936 1.79107436,6.16021142 1.84475243,5.48463268 C2.18471354,2.24007688 5.31593434,-1.59872116e-14 8.44715515,-1.59872116e-14 L8.44715515,-1.59872116e-14 Z"></path>
        </g>
    </g>
</svg>