<?xml version="1.0" encoding="UTF-8"?>
<svg width="24px" height="24px" viewBox="0 0 24 24" version="1.1" xmlns="http://www.w3.org/2000/svg" xmlns:xlink="http://www.w3.org/1999/xlink">
    <!-- Generator: Sketch 64 (93537) - https://sketch.com -->
    <title>@1xIconly/Bold/Scan</title>
    <desc>Created with Sketch.</desc>
    <g id="Iconly/Bold/Scan" stroke="none" stroke-width="1" fill="none" fill-rule="evenodd">
        <g id="Scan" transform="translate(1.000000, 3.000000)" fill="#200E32" fill-rule="nonzero">
            <path d="M21.1972192,9.23684211 C21.4724456,9.20531344 21.7415728,9.33252106 21.8892455,9.56394031 C22.0369182,9.79535956 22.0369182,10.0899036 21.8892455,10.3213228 C21.7415728,10.5527421 21.4724456,10.6799497 21.1972192,10.6484211 L21.1972192,10.6484211 L20.1798966,10.6484211 L20.1798966,13.3105263 C20.1824453,14.5533801 19.6840627,15.7461917 18.7946562,16.625912 C17.9052498,17.5056323 16.6978739,18 15.4387895,18 L15.4387895,18 L14.6614015,18 C14.2638649,18 13.9415978,17.6818865 13.9415978,17.2894737 C13.9415978,16.8970608 14.2638649,16.5789474 14.6614015,16.5789474 L14.6614015,16.5789474 L15.4387895,16.5789474 C17.2524483,16.5581891 18.7116189,15.1009296 18.711497,13.3105263 L18.711497,13.3105263 L18.711497,10.6484211 L16.0146325,10.6484211 L16.0146325,11.7094737 C16.0146325,12.2999293 15.7770123,12.8662015 15.3540455,13.2837167 C14.9310788,13.7012319 14.3574128,13.9357895 13.7592475,13.9357895 L13.7592475,13.9357895 L8.26954461,13.9357895 C7.0239299,13.9357895 6.01415967,12.9390339 6.01415967,11.7094737 L6.01415967,11.7094737 L6.01415967,10.6484211 L3.35568465,10.6484211 L3.35568465,13.3105263 C3.35568465,15.1156254 4.83811329,16.5789474 6.66678169,16.5789474 L6.66678169,16.5789474 L7.49215661,16.5789474 C7.88969322,16.5789474 8.21196031,16.8970608 8.21196031,17.2894737 C8.21196031,17.6818865 7.88969322,18 7.49215661,18 L7.49215661,18 L6.71476861,18 C4.08315205,18.0001299 1.9423934,15.9080947 1.91607723,13.3105263 L1.91607723,13.3105263 L1.91607723,10.6484211 L0.802780836,10.6484211 C0.527554413,10.6799497 0.258427242,10.5527421 0.110754532,10.3213228 C-0.0369181774,10.0899036 -0.0369181774,9.79535956 0.110754532,9.56394031 C0.258427242,9.33252106 0.527554413,9.20531344 0.802780836,9.23684211 L0.802780836,9.23684211 Z M13.7496502,4.06421053 C14.3478154,4.06421053 14.9214814,4.29876812 15.3444481,4.71628332 C15.7674149,5.13379852 16.0050351,5.70007066 16.0050351,6.29052632 L16.0050351,6.29052632 L16.0050351,7.51263158 C16.0077577,7.58377363 15.9803208,7.65281715 15.9293226,7.70315806 C15.8783244,7.75349896 15.8083793,7.78058225 15.7363084,7.77789474 L15.7363084,7.77789474 L6.28288638,7.77789474 C6.21081542,7.78058225 6.1408704,7.75349896 6.08987219,7.70315806 C6.03887397,7.65281715 6.01143706,7.58377363 6.01415967,7.51263158 L6.01415967,7.51263158 L6.01415967,6.29052632 C6.01415967,5.06096606 7.0239299,4.06421053 8.26954461,4.06421053 L8.26954461,4.06421053 Z M15.4387895,5.68434189e-14 C18.0552408,0.0464966099 20.1515284,2.15369526 20.1511045,4.73684211 L20.1511045,4.73684211 L20.1511045,5.75052632 C20.1511045,6.14293916 19.8288373,6.46105263 19.4313007,6.46105263 C19.0337641,6.46105263 18.711497,6.14293916 18.711497,5.75052632 L18.711497,5.75052632 L18.711497,4.73684211 C18.7243076,3.86835591 18.3863844,3.03055443 17.7723434,2.40843021 C17.1583024,1.78630599 16.3186508,1.43103105 15.4387895,1.42105263 L15.4387895,1.42105263 L14.6614015,1.42105263 C14.2638649,1.42105263 13.9415978,1.10293916 13.9415978,0.710526316 C13.9415978,0.318113467 14.2638649,5.68434189e-14 14.6614015,5.68434189e-14 L14.6614015,5.68434189e-14 Z M7.44416969,5.68434189e-14 C7.83954545,0.0051023485 8.15880443,0.320246466 8.1639734,0.710526316 C8.15880443,1.10080617 7.83954545,1.41595028 7.44416969,1.42105263 L7.44416969,1.42105263 L6.66678169,1.42105263 C5.7802463,1.42096072 4.9307011,1.77180596 4.30835191,2.39503713 C3.68600272,3.01826831 3.3428363,3.86182498 3.35568465,4.73684211 L3.35568465,4.73684211 L3.35568465,5.75052632 C3.35051568,6.14080617 3.0312567,6.45595028 2.63588094,6.46105263 L2.63588094,6.46105263 L2.62628356,6.46105263 L2.5295877,6.45340744 C2.18196026,6.40260168 1.91607723,6.10687381 1.91607723,5.75052632 L1.91607723,5.75052632 L1.91607723,4.73684211 C1.91594565,2.13914387 4.03529672,0.0259769791 6.66678169,5.68434189e-14 L6.66678169,5.68434189e-14 Z"></path>
        </g>
    </g>
</svg>