<?xml version="1.0" encoding="UTF-8"?>
<svg width="24px" height="24px" viewBox="0 0 24 24" version="1.1" xmlns="http://www.w3.org/2000/svg" xmlns:xlink="http://www.w3.org/1999/xlink">
    <!-- Generator: Sketch 64 (93537) - https://sketch.com -->
    <title>@1xIconly/Broken/Scan</title>
    <desc>Created with Sketch.</desc>
    <g id="Iconly/Broken/Scan" stroke="none" stroke-width="1" fill="none" fill-rule="evenodd">
        <g id="Scan" transform="translate(1.000000, 3.000000)" fill="#200E32" fill-rule="nonzero">
            <path d="M21.2070896,9.08294726 L21.1977349,9.09215909 C21.472943,9.06112383 21.7418418,9.18824494 21.8893608,9.41912317 C22.0368797,9.65000139 22.0368797,9.94372698 21.8893608,10.1746052 C21.7418418,10.4054834 21.472943,10.5326045 21.1977349,10.5015693 L21.1977349,10.5015693 L20.1219452,10.5015693 L20.1219452,13.3111778 C20.1167981,15.8986405 17.9879966,17.9949315 15.3604063,18 L15.3604063,18 L14.5746121,18 C14.1767951,18 13.8543007,17.6824306 13.8543007,17.290689 C13.8543007,16.8989473 14.1767951,16.581378 14.5746121,16.581378 L14.5746121,16.581378 L15.3604063,16.581378 C16.2444013,16.5887379 17.0948932,16.2487167 17.7234963,15.6366296 C18.3520994,15.0245426 18.7069279,14.1909124 18.7093865,13.3203897 L18.7093865,13.3203897 L18.7093865,10.5015693 L3.28349733,10.5015693 L3.28349733,13.2651187 C3.28349007,15.067609 4.76462171,16.5302414 6.59505874,16.5353188 L6.59505874,16.5353188 L7.40891705,16.5353188 C7.80673404,16.5353188 8.12922843,16.8528882 8.12922843,17.2446298 C8.12922843,17.6363715 7.80673404,17.9539408 7.40891705,17.9539408 L7.40891705,17.9539408 L6.62312282,17.9539408 C3.99705149,17.9488603 1.87093358,15.8510905 1.87093865,13.2651187 L1.87093865,13.2651187 L1.87093865,10.5015693 L0.72031138,10.5015693 C0.32249439,10.5015693 0,10.1839999 0,9.79225827 C0,9.40051662 0.32249439,9.08294726 0.72031138,9.08294726 L0.72031138,9.08294726 L21.2070896,9.08294726 Z M12.8439938,12.3992065 L12.9417358,12.4056817 C13.2933203,12.4526499 13.5643052,12.7494211 13.5643052,13.1085176 C13.5643052,13.5002592 13.2418108,13.8178286 12.8439938,13.8178286 L12.8439938,13.8178286 L8.82147573,13.8178286 C8.42365874,13.8178286 8.10116435,13.5002592 8.10116435,13.1085176 C8.10628432,12.7152905 8.43147212,12.3991742 8.83083042,12.3992065 L8.83083042,12.3992065 L12.8439938,12.3992065 Z M15.3604063,8.15560059e-05 C16.6281004,-0.00727614135 17.8464386,0.483473304 18.7454793,1.36359677 C19.64452,2.24372023 20.1500092,3.44054776 20.1500092,4.68890371 L20.1500092,4.68890371 L20.1500092,5.74826431 L20.1434336,5.84451362 C20.0957371,6.19072885 19.7943634,6.45757533 19.4296979,6.45757533 C19.0318809,6.45757533 18.7093865,6.14000597 18.7093865,5.74826431 L18.7093865,5.74826431 L18.7093865,4.68890371 C18.7094181,3.81678325 18.3556871,2.98077941 17.7268116,2.36669729 C17.097936,1.75261518 16.2460204,1.41133355 15.3604063,1.41870358 L15.3604063,1.41870358 L14.5839668,1.41870358 C14.1861498,1.41870358 13.8636554,1.10113422 13.8636554,0.709392569 C13.8636554,0.317650914 14.1861498,8.15560059e-05 14.5839668,8.15560059e-05 L14.5839668,8.15560059e-05 Z M7.39020766,8.1556006e-05 C7.78802465,8.1556006e-05 8.11051903,0.31765092 8.11051903,0.709392569 C8.11051903,1.10113422 7.78802465,1.41870357 7.39020766,1.41870358 L7.39020766,1.41870358 L6.60441343,1.41870358 C4.77032211,1.41870358 3.28349733,2.88282205 3.28349733,4.68890371 L3.28349733,4.68890371 L3.28349733,5.74826431 L3.27449904,5.85937815 C3.25067209,6.00542578 3.1802548,6.14134506 3.0719665,6.24659474 C2.93660614,6.37815685 2.75335897,6.45082777 2.56318595,6.44842419 C2.17996604,6.43367798 1.87562923,6.1258892 1.87092917,5.74826431 L1.87092917,5.74826431 L1.87092917,4.68890371 C1.86575906,2.10801035 3.9835094,0.0102375334 6.60441343,8.1556006e-05 L6.60441343,8.1556006e-05 Z M8.72877987,4.89318643 L8.83083042,4.90077583 L12.8346391,4.90077583 C13.1983702,4.94179384 13.4729968,5.2449636 13.4729968,5.60548093 C13.4729968,5.96599825 13.1983702,6.26916801 12.8346391,6.31018603 L12.8346391,6.31018603 L8.77470226,6.31018603 C8.4995307,6.3286147 8.2378316,6.1906976 8.10076368,5.95501608 C7.96369577,5.71933456 7.97532682,5.42727201 8.13071648,5.20288427 C8.28610613,4.97849652 8.55796947,4.8611839 8.83083042,4.90077583 Z"></path>
        </g>
    </g>
</svg>