<?xml version="1.0" encoding="UTF-8"?>
<svg width="24px" height="24px" viewBox="0 0 24 24" version="1.1" xmlns="http://www.w3.org/2000/svg" xmlns:xlink="http://www.w3.org/1999/xlink">
    <!-- Generator: Sketch 64 (93537) - https://sketch.com -->
    <title>@1xIconly/Bold/Search</title>
    <desc>Created with Sketch.</desc>
    <g id="Iconly/Bold/Search" stroke="none" stroke-width="1" fill="none" fill-rule="evenodd">
        <g id="Search" transform="translate(2.000000, 2.000000)" fill="#200E32" fill-rule="nonzero">
            <path d="M15.6207067,15.6542822 C16.0072308,15.270377 16.6268293,15.270377 17.0133534,15.6542822 L17.0133534,15.6542822 L19.5680176,17.7164156 L19.6123694,17.7164156 C20.1292102,18.2388171 20.1292102,19.0857973 19.6123694,19.6081989 C19.0955285,20.1306004 18.2575639,20.1306004 17.7407231,19.6081989 L17.7407231,19.6081989 L15.6207067,17.1784678 L15.5402577,17.0876967 C15.390397,16.8980019 15.3076306,16.6615115 15.3076306,16.416375 C15.3076306,16.1303824 15.4202849,15.8561581 15.6207067,15.6542822 Z M8.57763961,-7.10542736e-15 C10.8525711,-7.10542736e-15 13.0343273,0.913436016 14.6429467,2.53936255 C16.2515662,4.16528909 17.1552792,6.37051871 17.1552792,8.66992606 C17.1552792,13.458194 13.3149392,17.3398521 8.57763961,17.3398521 C3.84034006,17.3398521 2.13162821e-14,13.458194 2.13162821e-14,8.66992606 C2.13162821e-14,3.88165812 3.84034006,-7.10542736e-15 8.57763961,-7.10542736e-15 Z"></path>
        </g>
    </g>
</svg>