<?xml version="1.0" encoding="UTF-8"?>
<svg width="24px" height="24px" viewBox="0 0 24 24" version="1.1" xmlns="http://www.w3.org/2000/svg" xmlns:xlink="http://www.w3.org/1999/xlink">
    <!-- Generator: Sketch 64 (93537) - https://sketch.com -->
    <title>@1xIconly/Broken/Setting</title>
    <desc>Created with Sketch.</desc>
    <g id="Iconly/Broken/Setting" stroke="none" stroke-width="1" fill="none" fill-rule="evenodd">
        <g id="Setting" transform="translate(2.500000, 2.000000)" fill="#200E32" fill-rule="nonzero">
            <path d="M0.873095197,5.16335138 C1.07736478,5.12378632 1.28935874,5.16536248 1.46214576,5.27887571 C1.80346964,5.50552363 1.90243476,5.95394091 1.68701228,6.29776021 L1.68701228,6.29776021 L1.63049727,6.40886656 C1.41692137,6.89799239 1.60769048,7.47656916 2.09177201,7.74703557 C2.4834486,7.98141148 2.80584873,8.31137851 3.02721671,8.70443566 C3.71653222,9.94093426 3.28873846,11.4881571 2.05579336,12.2178305 C1.5344748,12.509102 1.35332921,13.1577086 1.65103364,13.6671058 L1.65103364,13.6671058 L2.27166522,14.7123408 C2.41288109,14.9614196 2.65203322,15.1434682 2.93385106,15.2164131 C3.2156689,15.2893581 3.51576316,15.2468866 3.76477889,15.0988142 C4.16629362,14.8713997 4.62284123,14.7531186 5.086994,14.7562582 C6.57727817,14.7562582 7.7853922,15.9360086 7.7853922,17.3913043 C7.79033116,17.9796916 8.28018723,18.454126 8.88274079,18.4541063 L8.88274079,18.4541063 L8.87374613,18.4716733 C9.15331914,18.4716732 9.41165527,18.617322 9.55144177,18.8537549 C9.69122828,19.0901879 9.69122828,19.3814853 9.55144177,19.6179183 C9.41165527,19.8543513 9.15331914,20 8.87374613,20 C7.38346196,20 6.17534794,18.8202497 6.17534794,17.3649539 C6.17777146,17.1797208 6.12798477,16.9974041 6.03143337,16.8379447 C5.72964011,16.3277527 5.06266326,16.1511907 4.5383197,16.4426877 L4.5383197,16.4426877 L4.37846769,16.5211696 C3.14151143,17.0796422 1.65653771,16.647903 0.940455444,15.4940711 L0.940455444,15.4940711 L0.328818521,14.4488362 C-0.360496985,13.2123376 0.0672967775,11.6651148 1.30024187,10.9354414 C1.46365758,10.8415595 1.59986794,10.708547 1.69600694,10.5489679 C1.8763988,10.3034349 1.94122763,9.99452277 1.87427955,9.69949129 C1.80733148,9.40445982 1.61493722,9.15120776 1.34521517,9.00307422 L1.34521517,9.00307422 L1.1953131,8.90768859 C0.0785600264,8.14500505 -0.286802202,6.67465723 0.373791824,5.4896794 L0.373791824,5.4896794 L0.450399681,5.39452047 C0.561991749,5.27649703 0.709679528,5.19500342 0.873095197,5.16335138 Z M17.001622,7.70191857 C17.3561623,7.5776619 17.7596901,7.71242785 17.9583534,8.03689065 C18.1782389,8.39845653 18.057649,8.86556614 17.6885136,9.0821256 C17.5250979,9.17600748 17.3888875,9.30901995 17.2927485,9.46859903 C17.1461723,9.71295723 17.1055255,10.0043354 17.1798277,10.2780759 C17.2541299,10.5518165 17.4372357,10.7852791 17.6885136,10.9266579 C18.9613109,11.6716815 19.3792149,13.2805084 18.6239583,14.5278876 L18.6239583,14.5278876 L18.0123214,15.5731225 L17.9146425,15.7195053 C17.1336224,16.8100396 15.6279243,17.166824 14.4144571,16.5217391 C14.0779771,16.3233633 13.6576674,16.3192826 13.3172148,16.5110862 C12.9767623,16.7028897 12.7699918,17.0602538 12.7774289,17.4440053 C12.7343665,17.8367986 12.3949315,18.1346728 11.990396,18.1346728 C11.5858606,18.1346728 11.2464256,17.8367986 11.2033632,17.4440053 C11.2226877,16.5230894 11.7330478,15.6788723 12.5494071,15.217434 C13.3657664,14.7559956 14.3696134,14.7443234 15.1969926,15.1866491 C15.4455875,15.3326398 15.7442164,15.3738466 16.0245013,15.3008344 C16.3042857,15.2242105 16.542826,15.0447838 16.6901062,14.8001757 L16.6901062,14.8001757 L17.3017432,13.7549407 C17.4479092,13.5119249 17.4883234,13.2218682 17.4139597,12.9495514 C17.339596,12.6772345 17.1566491,12.4453424 16.9059781,12.3056653 C16.4844845,12.0548529 16.1445142,11.6924066 15.9255601,11.2604304 C15.2362446,10.0239318 15.6640383,8.47670896 16.8969834,7.74703557 L16.8969834,7.74703557 Z M9.49437772,6.70178889 C10.3905098,6.69946703 11.2507575,7.04546173 11.885264,7.6634236 C12.5197705,8.28138546 12.8763822,9.12051219 12.8763822,9.99560826 L12.8763822,9.99560826 L12.8707845,10.1950507 C12.7967374,11.4511365 11.9951527,12.5648103 10.7948548,13.0530599 C9.53138337,13.5670069 8.07525531,13.2866234 7.10614636,12.3427838 C6.13703741,11.3989442 5.84603609,9.97775434 6.36897286,8.74258193 C6.89190962,7.50740952 8.125672,6.70178889 9.49437772,6.70178889 Z M9.49437772,8.24769433 C8.50085494,8.24769433 7.69544559,9.03419455 7.69544559,10.0043917 C7.69544559,10.9745889 8.50085494,11.7610892 9.49437772,11.7610892 C10.4879005,11.7610892 11.2933098,10.9745889 11.2933098,10.0043917 L11.2933098,10.0043917 L11.2873464,9.86031524 C11.2122986,8.95751078 10.4382244,8.24769433 9.49437772,8.24769433 Z M10.1150093,-1.44328993e-13 C11.6052935,-1.44328993e-13 12.8134075,1.17975033 12.8134075,2.63504611 C12.810984,2.82027917 12.8607707,3.00259594 12.9573221,3.16205534 C13.1005848,3.4089241 13.3389912,3.58959879 13.6194445,3.66384036 C13.8998978,3.73808193 14.1991078,3.699725 14.4504357,3.55731225 C15.7166624,2.88418026 17.3010837,3.30193043 18.0483,4.50592885 C18.2548102,4.87335233 18.1278399,5.33443771 17.7604709,5.55116381 C17.3871594,5.75928058 16.9119889,5.6384028 16.6901062,5.27887571 L16.6901062,5.27887571 L16.6194327,5.1754002 C16.2908071,4.74960935 15.6817056,4.62034539 15.1969926,4.89240228 C14.3710046,5.3340714 13.3689751,5.32328725 12.553156,4.86394851 C11.7373368,4.40460977 11.2257575,3.56317174 11.2033632,2.6438296 C11.2131151,2.35592011 11.1027692,2.07647732 10.8975968,1.8694985 C10.6924243,1.66251968 10.4100019,1.54573627 10.1150093,1.54589372 L10.1150093,1.54589372 L8.88274079,1.54589372 C8.58696967,1.54580638 8.30368621,1.6623152 8.09709986,1.86901212 C7.8905135,2.07570904 7.77811912,2.35508982 7.7853922,2.6438296 C7.77705279,3.5681803 7.26506951,4.4181882 6.44181545,4.87447051 C5.61856138,5.33075283 4.6087325,5.32419777 3.79176287,4.85726834 L3.79176287,4.85726834 L3.75578423,4.82213439 L3.66924268,4.76137496 C3.37175784,4.52112323 3.29446603,4.09717449 3.50393374,3.76811595 C3.73244398,3.409143 4.21568958,3.29903296 4.58329301,3.5221783 C4.74737874,3.61567616 4.93305,3.66704793 5.12297264,3.67149758 C5.41407245,3.68338695 5.69806446,3.58174102 5.91234656,3.38896624 C6.12662867,3.19619145 6.2536083,2.92811463 6.26529455,2.6438296 C6.2597607,1.21544702 7.42066447,0.0428415621 8.88274079,-1.44328993e-13 L8.88274079,-1.44328993e-13 Z"></path>
        </g>
    </g>
</svg>