<?xml version="1.0" encoding="UTF-8"?>
<svg width="24px" height="24px" viewBox="0 0 24 24" version="1.1" xmlns="http://www.w3.org/2000/svg" xmlns:xlink="http://www.w3.org/1999/xlink">
    <!-- Generator: Sketch 64 (93537) - https://sketch.com -->
    <title>@1xIconly/Broken/Star</title>
    <desc>Created with Sketch.</desc>
    <g id="Iconly/Broken/Star" stroke="none" stroke-width="1" fill="none" fill-rule="evenodd">
        <g id="Star" transform="translate(2.000000, 2.000000)" fill="#200E32" fill-rule="nonzero">
            <path d="M15.5010304,19.9188439 C15.3779723,19.9212443 15.2564982,19.8901266 15.1490199,19.8286705 L10.0096678,17.1234686 L5.48633398,19.5581504 C4.73990509,19.9651024 3.81286561,19.6793253 3.40947251,18.9179192 C3.25250553,18.6105817 3.19692963,18.2594097 3.25106783,17.9169945 L4.13109387,12.7230068 L0.452585006,8.99884548 C0.162917727,8.70426459 0,8.30338535 0,7.88520402 C0,7.46702269 0.162917727,7.06614344 0.452585006,6.77156256 C0.688337819,6.52448113 0.99825272,6.36570128 1.33261105,6.32069557 L6.37516028,5.55422169 L8.61922669,0.883239686 C8.87545438,0.342960115 9.41023407,0 9.99646745,0 C10.5827008,0 11.1174805,0.342960115 11.3737082,0.883239686 L13.6265749,5.57225637 L18.6867246,6.34774759 C19.0932866,6.40766055 19.4593121,6.63242891 19.7025703,6.97155645 C19.9458285,7.31068398 20.0459216,7.73573413 19.9803629,8.15121554 C19.9326232,8.49261137 19.7782478,8.80897816 19.5403499,9.05294952 L15.8794416,12.7320241 L16.3898567,15.5273995 C16.4589071,15.9528668 16.179812,16.3556549 15.7650382,16.4291335 C15.3572986,16.5062579 14.9649059,16.2328489 14.8850121,15.8159543 L14.3657968,13.020579 C14.2791343,12.5061602 14.4434567,11.9808276 14.8058098,11.613874 L18.4755184,7.90774737 L13.4153686,7.12323881 C12.9064205,7.04315051 12.4721136,6.70344048 12.2625345,6.22150483 L10.0096678,1.55052283 L7.73040039,6.29364355 C7.52082132,6.7755792 7.08651439,7.11528923 6.57756627,7.19537753 L1.53501704,7.96185141 L5.17832486,11.6589607 C5.53904826,12.0194709 5.70358749,12.5387527 5.61833788,13.047631 L4.73831184,18.2416187 L9.26164571,15.8159543 C9.71134448,15.56415 10.2551896,15.56415 10.7048884,15.8159543 L15.8354403,18.5211563 C16.1464005,18.688721 16.3061501,19.0516462 16.2228983,19.4013983 C16.1396466,19.7511503 15.8347625,19.9979548 15.4834298,20 L15.5010304,19.9188439 Z"></path>
        </g>
    </g>
</svg>