<?xml version="1.0" encoding="UTF-8"?>
<svg width="24px" height="24px" viewBox="0 0 24 24" version="1.1" xmlns="http://www.w3.org/2000/svg" xmlns:xlink="http://www.w3.org/1999/xlink">
    <!-- Generator: Sketch 64 (93537) - https://sketch.com -->
    <title>@1xIconly/Bold/Wallet</title>
    <desc>Created with Sketch.</desc>
    <g id="Iconly/Bold/Wallet" stroke="none" stroke-width="1" fill="none" fill-rule="evenodd">
        <g id="Wallet" transform="translate(2.000000, 3.000000)" fill="#200E32" fill-rule="nonzero">
            <path d="M14.5155556,3.55271368e-15 C17.9644444,3.55271368e-15 20,1.98459316 20,5.38180067 L20,5.38180067 L15.7688889,5.38180067 L15.7688889,5.41646606 C13.8052098,5.41646606 12.2133333,6.96848811 12.2133333,8.88300433 C12.2133333,10.7975206 13.8052098,12.3495426 15.7688889,12.3495426 L15.7688889,12.3495426 L20,12.3495426 L20,12.6615311 C20,16.0154068 17.9644444,18 14.5155556,18 L14.5155556,18 L5.48444444,18 C2.03555556,18 -1.77635684e-14,16.0154068 -1.77635684e-14,12.6615311 L-1.77635684e-14,12.6615311 L-1.77635684e-14,5.33846895 C-1.77635684e-14,1.98459316 2.03555556,3.55271368e-15 5.48444444,3.55271368e-15 L5.48444444,3.55271368e-15 Z M19.2533333,6.87241213 C19.6657059,6.87241213 20,7.19833676 20,7.60038517 L20,7.60038517 L20,10.1309581 C19.9951999,10.531052 19.6637012,10.8542512 19.2533333,10.8589312 L19.2533333,10.8589312 L15.8488889,10.8589312 C14.8547801,10.8719719 13.9854845,10.2083726 13.76,9.26432354 C13.64708,8.67829202 13.8055982,8.0735653 14.1930699,7.61221673 C14.5805417,7.15086815 15.1573445,6.88007476 15.7688889,6.87241213 L15.7688889,6.87241213 Z M16.2488889,8.0423688 L15.92,8.0423688 C15.7180785,8.04005257 15.5236085,8.11663883 15.3799861,8.25503736 C15.2363636,8.39343589 15.1555556,8.58212842 15.1555556,8.77900818 C15.1555276,9.19205439 15.4963752,9.5282326 15.92,9.53298026 L15.92,9.53298026 L16.2488889,9.53298026 C16.6710799,9.53298026 17.0133333,9.19929552 17.0133333,8.78767453 C17.0133333,8.37605354 16.6710799,8.0423688 16.2488889,8.0423688 L16.2488889,8.0423688 Z M10.3822222,3.89118922 L4.73777778,3.89118922 C4.31903387,3.89116161 3.97820245,4.21959601 3.97333333,4.6278286 C3.97333333,5.0408748 4.31415294,5.37705302 4.73777778,5.38180067 L4.73777778,5.38180067 L10.3822222,5.38180067 C10.8044132,5.38180067 11.1466667,5.04811593 11.1466667,4.63649494 C11.1466667,4.22487396 10.8044132,3.89118922 10.3822222,3.89118922 L10.3822222,3.89118922 Z"></path>
        </g>
    </g>
</svg>